<svg width="65" height="65" viewBox="0 0 65 65" fill="none" xmlns="http://www.w3.org/2000/svg">
<mask id="path-1-inside-1_82_1245" fill="white">
<path d="M43.3568 18.7528C50.8384 22.7977 54.7894 30.8258 54.0055 38.7908C53.9723 39.1275 54.1389 39.4548 54.4365 39.6157C54.8347 39.831 54.9829 40.3283 54.7677 40.7265L51.0154 47.6667C51.0093 47.678 50.9953 47.6822 50.984 47.6761C50.9732 47.6703 50.9598 47.6739 50.9533 47.6843C45.2598 56.7537 33.4236 59.9632 23.8691 54.7976L18.0216 51.6361C8.46714 46.4703 4.67072 34.8087 9.14176 25.0783C9.14676 25.0674 9.14251 25.0544 9.13199 25.0487C9.12097 25.0428 9.11687 25.029 9.12282 25.018L12.8756 18.0768C13.0907 17.6789 13.5877 17.5307 13.9856 17.7459C14.283 17.9066 14.6478 17.8668 14.9112 17.6548C21.1464 12.6368 30.0275 11.5464 37.5093 15.5913L43.3568 18.7528Z"/>
</mask>
<path d="M43.3568 18.7528C50.8384 22.7977 54.7894 30.8258 54.0055 38.7908C53.9723 39.1275 54.1389 39.4548 54.4365 39.6157C54.8347 39.831 54.9829 40.3283 54.7677 40.7265L51.0154 47.6667C51.0093 47.678 50.9953 47.6822 50.984 47.6761C50.9732 47.6703 50.9598 47.6739 50.9533 47.6843C45.2598 56.7537 33.4236 59.9632 23.8691 54.7976L18.0216 51.6361C8.46714 46.4703 4.67072 34.8087 9.14176 25.0783C9.14676 25.0674 9.14251 25.0544 9.13199 25.0487C9.12097 25.0428 9.11687 25.029 9.12282 25.018L12.8756 18.0768C13.0907 17.6789 13.5877 17.5307 13.9856 17.7459C14.283 17.9066 14.6478 17.8668 14.9112 17.6548C21.1464 12.6368 30.0275 11.5464 37.5093 15.5913L43.3568 18.7528Z" fill="url(#paint0_linear_82_1245)"/>
<path d="M18.0216 51.6361L16.5659 54.3284L16.566 54.3284L18.0216 51.6361ZM37.5093 15.5913L38.9649 12.8989L38.9649 12.8989L37.5093 15.5913ZM14.9112 17.6548L16.8301 20.0392L14.9112 17.6548ZM50.9533 47.6843L48.3611 46.057L50.9533 47.6843ZM9.14176 25.0783L11.9229 26.3561L9.14176 25.0783ZM54.0055 38.7908L57.0514 39.0906L54.0055 38.7908ZM41.9012 21.4451C48.2607 24.8834 51.627 31.7091 50.9596 38.491L57.0514 39.0906C57.9518 29.9425 53.4162 20.7121 44.8124 16.0604L41.9012 21.4451ZM52.0753 39.2709L48.3231 46.2111L53.7078 49.1224L57.46 42.1821L52.0753 39.2709ZM48.3611 46.057C43.5195 53.7694 33.4504 56.4984 25.3247 52.1052L22.4135 57.4899C33.3968 63.428 47.0002 59.7379 53.5455 49.3115L48.3611 46.057ZM25.3247 52.1052L19.4772 48.9437L16.566 54.3284L22.4135 57.4899L25.3247 52.1052ZM19.4772 48.9438C11.3515 44.5504 8.1208 34.6307 11.9229 26.3561L6.36066 23.8004C1.22063 34.9867 5.58275 48.3901 16.5659 54.3284L19.4772 48.9438ZM11.8152 26.4736L15.5679 19.5324L10.1833 16.6212L6.43048 23.5624L11.8152 26.4736ZM16.8301 20.0392C22.139 15.7666 29.6941 14.8454 36.0537 18.2836L38.9649 12.8989C30.361 8.2474 20.1537 9.507 12.9923 15.2704L16.8301 20.0392ZM36.0537 18.2836L41.9012 21.4451L44.8124 16.0604L38.9649 12.8989L36.0537 18.2836ZM12.53 20.4382C13.9548 21.2086 15.6454 20.9926 16.8301 20.0392L12.9923 15.2704C13.6502 14.7409 14.6111 14.6047 15.4412 15.0535L12.53 20.4382ZM15.5679 19.5324C14.9791 20.6215 13.619 21.027 12.53 20.4382L15.4412 15.0535C13.5564 14.0345 11.2023 14.7363 10.1833 16.6212L15.5679 19.5324ZM10.5876 22.3564C12.0635 23.1543 12.6131 24.9977 11.8152 26.4736L6.43048 23.5624C5.62061 25.0603 6.17841 26.9312 7.67637 27.7411L10.5876 22.3564ZM52.4396 44.9838C50.9927 44.2015 49.2149 44.6968 48.3611 46.057L53.5455 49.3115C52.7046 50.651 50.9538 51.1391 49.5284 50.3684L52.4396 44.9838ZM48.3231 46.2111C49.1209 44.7355 50.9639 44.1859 52.4396 44.9838L49.5284 50.3684C51.0266 51.1785 52.8978 50.6205 53.7078 49.1224L48.3231 46.2111ZM11.9229 26.3561C12.5933 24.8971 12.0343 23.1386 10.5876 22.3564L7.67637 27.7411C6.25069 26.9703 5.70022 25.2377 6.36066 23.8004L11.9229 26.3561ZM52.9809 42.308C51.8921 41.7194 51.4867 40.3596 52.0753 39.2709L57.46 42.1821C58.4792 40.297 57.7772 37.9426 55.8921 36.9234L52.9809 42.308ZM50.9596 38.491C50.8106 40.0046 51.5558 41.5376 52.9809 42.308L55.8921 36.9234C56.722 37.3721 57.1341 38.2504 57.0514 39.0906L50.9596 38.491Z" fill="#0F64E9" mask="url(#path-1-inside-1_82_1245)"/>
<rect x="22.6489" width="47.6227" height="42.3642" rx="21.1821" transform="rotate(28.398 22.6489 0)" fill="url(#paint1_linear_82_1245)"/>
<rect x="22.6489" width="47.6227" height="42.3642" rx="21.1821" transform="rotate(28.398 22.6489 0)" fill="url(#paint2_linear_82_1245)"/>
<mask id="mask0_82_1245" style="mask-type:alpha" maskUnits="userSpaceOnUse" x="10" y="7" width="48" height="46">
<rect x="22.6489" width="47.6227" height="42.3642" rx="21.1821" transform="rotate(28.398 22.6489 0)" fill="#74BE39"/>
</mask>
<g mask="url(#mask0_82_1245)">
<ellipse cx="46.5029" cy="5.39656" rx="32.9695" ry="31.5996" transform="rotate(28.398 46.5029 5.39656)" fill="#2B71DE"/>
</g>
<rect x="23.8856" y="4.14796" width="41.5014" height="36.243" rx="18.1215" transform="rotate(28.398 23.8856 4.14796)" stroke="url(#paint3_linear_82_1245)" stroke-width="6.12128"/>
<rect x="23.8856" y="4.14796" width="41.5014" height="36.243" rx="18.1215" transform="rotate(28.398 23.8856 4.14796)" stroke="url(#paint4_linear_82_1245)" stroke-width="6.12128"/>
<defs>
<linearGradient id="paint0_linear_82_1245" x1="41.2353" y1="58.6037" x2="5.76419" y2="39.4822" gradientUnits="userSpaceOnUse">
<stop stop-color="#3564AD"/>
<stop offset="0.514303" stop-color="#0F64E9"/>
<stop offset="1" stop-color="#29508C"/>
</linearGradient>
<linearGradient id="paint1_linear_82_1245" x1="46.4603" y1="0" x2="46.4603" y2="42.3642" gradientUnits="userSpaceOnUse">
<stop stop-color="#ABCCFF"/>
<stop offset="1" stop-color="#5C96F0"/>
</linearGradient>
<linearGradient id="paint2_linear_82_1245" x1="45.9369" y1="17.7096" x2="49.6016" y2="61.5475" gradientUnits="userSpaceOnUse">
<stop stop-color="#0557D6"/>
<stop offset="1" stop-color="#0F64E9" stop-opacity="0"/>
</linearGradient>
<linearGradient id="paint3_linear_82_1245" x1="51.0394" y1="35.4193" x2="26.3084" y2="-5.0465" gradientUnits="userSpaceOnUse">
<stop stop-color="#477DD0"/>
<stop offset="1" stop-color="#ADCDFF"/>
</linearGradient>
<linearGradient id="paint4_linear_82_1245" x1="49.6002" y1="34.3775" x2="52.2545" y2="46.3782" gradientUnits="userSpaceOnUse">
<stop stop-color="#0F64E9" stop-opacity="0"/>
<stop offset="1" stop-color="#CDE1FF"/>
</linearGradient>
</defs>
</svg>
