<svg width="124" height="124" viewBox="0 0 124 124" fill="none" xmlns="http://www.w3.org/2000/svg">
<mask id="path-1-inside-1_82_1234" fill="white">
<path d="M95.7484 42.8077C107.644 49.2391 112.074 64.0962 105.642 75.9917L91.6945 101.79C85.2632 113.685 70.406 118.115 58.5105 111.684L21.5388 91.6948C9.6433 85.2635 5.21362 70.4063 11.6449 58.5108L25.5927 32.7127C32.0241 20.8172 46.8812 16.3876 58.7767 22.8189L95.7484 42.8077Z"/>
</mask>
<path d="M95.7484 42.8077C107.644 49.2391 112.074 64.0962 105.642 75.9917L91.6945 101.79C85.2632 113.685 70.406 118.115 58.5105 111.684L21.5388 91.6948C9.6433 85.2635 5.21362 70.4063 11.6449 58.5108L25.5927 32.7127C32.0241 20.8172 46.8812 16.3876 58.7767 22.8189L95.7484 42.8077Z" fill="url(#paint0_linear_82_1234)"/>
<path d="M95.7484 42.8077L94.2928 45.5001L95.7484 42.8077ZM58.5105 111.684L59.9661 108.991L58.5105 111.684ZM21.5388 91.6948L20.0832 94.3871L21.5388 91.6948ZM58.7767 22.8189L60.2323 20.1265L58.7767 22.8189ZM94.2928 45.5001C104.701 51.1275 108.577 64.1275 102.95 74.5361L108.335 77.4473C115.57 64.0649 110.586 47.3506 97.2041 40.1154L94.2928 45.5001ZM102.95 74.5361L89.0022 100.334L94.3868 103.245L108.335 77.4473L102.95 74.5361ZM89.0022 100.334C83.3748 110.743 70.3747 114.619 59.9661 108.991L57.0549 114.376C70.4374 121.611 87.1516 116.628 94.3868 103.245L89.0022 100.334ZM59.9661 108.991L22.9944 89.0025L20.0832 94.3871L57.0549 114.376L59.9661 108.991ZM22.9944 89.0025C12.5859 83.3751 8.70987 70.375 14.3373 59.9664L8.95261 57.0552C1.71736 70.4377 6.70074 87.1519 20.0832 94.3871L22.9944 89.0025ZM14.3373 59.9664L28.2851 34.1684L22.9004 31.2571L8.95261 57.0552L14.3373 59.9664ZM28.2851 34.1684C33.9125 23.7598 46.9125 19.8838 57.3211 25.5112L60.2323 20.1265C46.8499 12.8913 30.1356 17.8747 22.9004 31.2571L28.2851 34.1684ZM57.3211 25.5112L94.2928 45.5001L97.2041 40.1154L60.2323 20.1265L57.3211 25.5112Z" fill="#0F64E9" mask="url(#path-1-inside-1_82_1234)"/>
<rect x="43.2788" width="91" height="80.9519" rx="24" transform="rotate(28.398 43.2788 0)" fill="url(#paint1_linear_82_1234)"/>
<rect x="43.2788" width="91" height="80.9519" rx="24" transform="rotate(28.398 43.2788 0)" fill="url(#paint2_linear_82_1234)"/>
<mask id="mask0_82_1234" style="mask-type:alpha" maskUnits="userSpaceOnUse" x="13" y="8" width="102" height="98">
<rect x="43.2788" width="91" height="80.9519" rx="24" transform="rotate(28.398 43.2788 0)" fill="#74BE39"/>
</mask>
<g mask="url(#mask0_82_1234)">
<ellipse cx="88.8608" cy="10.3121" rx="63" ry="60.3822" transform="rotate(28.398 88.8608 10.3121)" fill="#2B71DE"/>
</g>
<rect x="44.5155" y="4.14796" width="84.8787" height="74.8307" rx="20.9394" transform="rotate(28.398 44.5155 4.14796)" stroke="url(#paint3_linear_82_1234)" stroke-width="6.12128"/>
<rect x="44.5155" y="4.14796" width="84.8787" height="74.8307" rx="20.9394" transform="rotate(28.398 44.5155 4.14796)" stroke="url(#paint4_linear_82_1234)" stroke-width="6.12128"/>
<defs>
<linearGradient id="paint0_linear_82_1234" x1="78.7948" y1="111.982" x2="11.0151" y2="75.4441" gradientUnits="userSpaceOnUse">
<stop stop-color="#3564AD"/>
<stop offset="0.514303" stop-color="#0F64E9"/>
<stop offset="1" stop-color="#29508C"/>
</linearGradient>
<linearGradient id="paint1_linear_82_1234" x1="88.7788" y1="0" x2="88.7788" y2="80.9519" gradientUnits="userSpaceOnUse">
<stop stop-color="#ABCCFF"/>
<stop offset="1" stop-color="#5C96F0"/>
</linearGradient>
<linearGradient id="paint2_linear_82_1234" x1="87.7788" y1="33.8406" x2="94.7814" y2="117.608" gradientUnits="userSpaceOnUse">
<stop stop-color="#0557D6"/>
<stop offset="1" stop-color="#0F64E9" stop-opacity="0"/>
</linearGradient>
<linearGradient id="paint3_linear_82_1234" x1="97.5288" y1="67.6811" x2="50.2716" y2="-9.64313" gradientUnits="userSpaceOnUse">
<stop stop-color="#477DD0"/>
<stop offset="1" stop-color="#ADCDFF"/>
</linearGradient>
<linearGradient id="paint4_linear_82_1234" x1="94.7788" y1="65.6905" x2="99.8508" y2="88.622" gradientUnits="userSpaceOnUse">
<stop stop-color="#0F64E9" stop-opacity="0"/>
<stop offset="1" stop-color="#CDE1FF"/>
</linearGradient>
</defs>
</svg>
