<svg width="49" height="49" viewBox="0 0 49 49" fill="none" xmlns="http://www.w3.org/2000/svg">
<mask id="path-1-inside-1_82_1201" fill="white">
<path d="M23.4475 9.83156C30.3451 7.98835 37.3835 10.6109 41.4958 15.924C41.6696 16.1486 41.9599 16.2524 42.2343 16.1791C42.6014 16.081 42.9785 16.299 43.0766 16.6662L44.7867 23.0655C44.7894 23.0757 44.7833 23.0862 44.7731 23.0889C44.7634 23.0915 44.7573 23.1013 44.7593 23.1113C46.5118 31.9284 41.1368 40.709 32.3278 43.063L26.9369 44.5036C18.1279 46.8575 9.08934 41.9286 6.20997 33.4126C6.20673 33.403 6.1966 33.3975 6.18684 33.4001C6.17663 33.4028 6.16613 33.3968 6.1634 33.3866L4.45335 26.9872C4.35524 26.6201 4.57332 26.243 4.94044 26.1449C5.2148 26.0716 5.41464 25.8368 5.45327 25.5555C6.36708 18.8993 11.159 13.1154 18.0566 11.2722L23.4475 9.83156Z"/>
</mask>
<path d="M23.4475 9.83156C30.3451 7.98835 37.3835 10.6109 41.4958 15.924C41.6696 16.1486 41.9599 16.2524 42.2343 16.1791C42.6014 16.081 42.9785 16.299 43.0766 16.6662L44.7867 23.0655C44.7894 23.0757 44.7833 23.0862 44.7731 23.0889C44.7634 23.0915 44.7573 23.1013 44.7593 23.1113C46.5118 31.9284 41.1368 40.709 32.3278 43.063L26.9369 44.5036C18.1279 46.8575 9.08934 41.9286 6.20997 33.4126C6.20673 33.403 6.1966 33.3975 6.18684 33.4001C6.17663 33.4028 6.16613 33.3968 6.1634 33.3866L4.45335 26.9872C4.35524 26.6201 4.57332 26.243 4.94044 26.1449C5.2148 26.0716 5.41464 25.8368 5.45327 25.5555C6.36708 18.8993 11.159 13.1154 18.0566 11.2722L23.4475 9.83156Z" fill="url(#paint0_linear_82_1201)"/>
<path d="M5.45327 25.5555L2.42598 25.1398L5.45327 25.5555ZM44.7593 23.1113L41.7622 23.7069L44.7593 23.1113ZM6.20997 33.4126L9.10467 32.4338L6.20997 33.4126ZM41.4958 15.924L39.0793 17.7943L41.4958 15.924ZM24.2364 12.7837C29.9036 11.2692 35.6935 13.4198 39.0793 17.7943L43.9122 14.0537C39.0735 7.80204 30.7866 4.70746 22.6586 6.87946L24.2364 12.7837ZM40.1245 17.455L41.8346 23.8543L47.7388 22.2766L46.0287 15.8773L40.1245 17.455ZM41.7622 23.7069C43.2028 30.9549 38.7814 38.1755 31.5389 40.1109L33.1166 46.0151C43.4921 43.2425 49.8207 32.9018 47.7564 22.5156L41.7622 23.7069ZM31.5389 40.1109L26.148 41.5515L27.7257 47.4557L33.1166 46.0151L31.5389 40.1109ZM26.148 41.5515C18.9054 43.4868 11.4716 39.4343 9.10467 32.4338L3.31527 34.3913C6.70708 44.4229 17.3503 50.2282 27.7257 47.4557L26.148 41.5515ZM9.1155 32.5977L7.40545 26.1984L1.50125 27.7761L3.2113 34.1754L9.1155 32.5977ZM8.48055 25.9711C9.23294 20.4908 13.1783 15.7387 18.8455 14.2242L17.2677 8.32005C9.13975 10.492 3.50122 17.3079 2.42598 25.1398L8.48055 25.9711ZM18.8455 14.2242L24.2364 12.7837L22.6586 6.87946L17.2677 8.32005L18.8455 14.2242ZM5.72931 29.097C7.23991 28.6933 8.28135 27.4221 8.48055 25.9711L2.42598 25.1398C2.54793 24.2515 3.18969 23.4498 4.15156 23.1928L5.72931 29.097ZM7.40545 26.1984C7.74303 27.4617 6.9926 28.7594 5.72931 29.097L4.15156 23.1928C2.15405 23.7266 0.967461 25.7786 1.50125 27.7761L7.40545 26.1984ZM5.39797 30.448C7.01815 30.0151 8.68255 30.9775 9.1155 32.5977L3.2113 34.1754C3.64972 35.8161 5.3351 36.7906 6.97572 36.3522L5.39797 30.448ZM43.9842 20.1368C42.3997 20.5602 41.4501 22.1364 41.7622 23.7069L47.7564 22.5156C48.0646 24.0663 47.127 25.6228 45.562 26.041L43.9842 20.1368ZM41.8346 23.8543C41.4016 22.2341 42.3641 20.5698 43.9842 20.1368L45.562 26.041C47.2026 25.6026 48.1772 23.9173 47.7388 22.2766L41.8346 23.8543ZM9.10467 32.4338C8.59178 30.917 6.98253 30.0246 5.39797 30.448L6.97572 36.3522C5.41067 36.7704 3.82168 35.8891 3.31527 34.3913L9.10467 32.4338ZM43.0231 19.1312C41.7599 19.4687 40.4621 18.7183 40.1245 17.455L46.0287 15.8773C45.4949 13.8798 43.4429 12.6932 41.4454 13.227L43.0231 19.1312ZM39.0793 17.7943C39.9758 18.9526 41.5125 19.5348 43.0231 19.1312L41.4454 13.227C42.4073 12.9699 43.3634 13.3446 43.9122 14.0537L39.0793 17.7943Z" fill="#8DCC2E" mask="url(#path-1-inside-1_82_1201)"/>
<rect x="0.000488281" y="10.3213" width="39.9781" height="35.5638" rx="17.7819" transform="rotate(-14.9613 0.000488281 10.3213)" fill="url(#paint1_linear_82_1201)"/>
<rect x="0.000488281" y="10.3213" width="39.9781" height="35.5638" rx="17.7819" transform="rotate(-14.9613 0.000488281 10.3213)" fill="url(#paint2_linear_82_1201)"/>
<mask id="mask0_82_1201" style="mask-type:alpha" maskUnits="userSpaceOnUse" x="3" y="3" width="41" height="38">
<rect x="0.000488281" y="10.3213" width="39.9781" height="35.5638" rx="17.7819" transform="rotate(-14.9613 0.000488281 10.3213)" fill="#74BE39"/>
</mask>
<g mask="url(#mask0_82_1201)">
<ellipse cx="17.6703" cy="-0.133193" rx="27.6771" ry="26.5271" transform="rotate(-14.9613 17.6703 -0.133193)" fill="#91D742"/>
</g>
<rect x="3.74146" y="12.4845" width="33.8667" height="29.4524" rx="14.7262" transform="rotate(-14.9613 3.74146 12.4845)" stroke="url(#paint3_linear_82_1201)" stroke-width="6.11137"/>
<rect x="3.74146" y="12.4845" width="33.8667" height="29.4524" rx="14.7262" transform="rotate(-14.9613 3.74146 12.4845)" stroke="url(#paint4_linear_82_1201)" stroke-width="6.11137"/>
<defs>
<linearGradient id="paint0_linear_82_1201" x1="45.1208" y1="35.377" x2="12.45" y2="44.1503" gradientUnits="userSpaceOnUse">
<stop stop-color="#6FA835"/>
<stop offset="0.514303" stop-color="#7CB435"/>
<stop offset="1" stop-color="#538D2B"/>
</linearGradient>
<linearGradient id="paint1_linear_82_1201" x1="19.9895" y1="10.3213" x2="19.9895" y2="45.8851" gradientUnits="userSpaceOnUse">
<stop stop-color="#BBF341"/>
<stop offset="1" stop-color="#90DE0B"/>
</linearGradient>
<linearGradient id="paint2_linear_82_1201" x1="19.5502" y1="25.1881" x2="22.6266" y2="61.989" gradientUnits="userSpaceOnUse">
<stop stop-color="#74BE39"/>
<stop offset="1" stop-color="#74BE39" stop-opacity="0"/>
</linearGradient>
<linearGradient id="paint3_linear_82_1201" x1="23.8336" y1="40.0549" x2="3.07258" y2="6.08487" gradientUnits="userSpaceOnUse">
<stop stop-color="#90D447"/>
<stop offset="1" stop-color="#EEFF2D"/>
</linearGradient>
<linearGradient id="paint4_linear_82_1201" x1="22.6254" y1="39.1804" x2="24.8537" y2="49.2547" gradientUnits="userSpaceOnUse">
<stop stop-color="#90D447" stop-opacity="0"/>
<stop offset="1" stop-color="#EBFF00"/>
</linearGradient>
</defs>
</svg>
