<svg width="85" height="85" viewBox="0 0 85 85" fill="none" xmlns="http://www.w3.org/2000/svg">
<mask id="path-1-inside-1_82_1190" fill="white">
<path d="M45.5306 15.6157C56.6579 12.6423 68.0439 17.8447 73.3129 27.5356C73.3896 27.6767 73.5529 27.7486 73.7081 27.7071C73.892 27.658 74.0809 27.7672 74.13 27.9511L78.1632 43.0437C81.6486 56.0868 73.9006 69.4857 60.8575 72.9713L41.4298 78.1628C28.3867 81.6482 14.9877 73.9003 11.5022 60.8572L7.46911 45.7646C7.41997 45.5807 7.5292 45.3918 7.71308 45.3426C7.86828 45.3012 7.97395 45.1574 7.97006 44.9968C7.70265 33.9694 14.9757 23.7808 26.103 20.8072L45.5306 15.6157Z"/>
</mask>
<path d="M45.5306 15.6157C56.6579 12.6423 68.0439 17.8447 73.3129 27.5356C73.3896 27.6767 73.5529 27.7486 73.7081 27.7071C73.892 27.658 74.0809 27.7672 74.13 27.9511L78.1632 43.0437C81.6486 56.0868 73.9006 69.4857 60.8575 72.9713L41.4298 78.1628C28.3867 81.6482 14.9877 73.9003 11.5022 60.8572L7.46911 45.7646C7.41997 45.5807 7.5292 45.3918 7.71308 45.3426C7.86828 45.3012 7.97395 45.1574 7.97006 44.9968C7.70265 33.9694 14.9757 23.7808 26.103 20.8072L45.5306 15.6157Z" fill="url(#paint0_linear_82_1190)"/>
<path d="M45.5306 15.6157L44.7418 12.6636L44.7418 12.6636L45.5306 15.6157ZM60.8575 72.9713L61.6463 75.9234L61.6464 75.9234L60.8575 72.9713ZM41.4298 78.1628L42.2186 81.1149L42.2187 81.1149L41.4298 78.1628ZM26.103 20.8072L25.3141 17.8551L25.3141 17.8551L26.103 20.8072ZM7.97006 44.9968L4.91527 45.0709L7.97006 44.9968ZM73.3129 27.5356L75.9974 26.076L73.3129 27.5356ZM46.3195 18.5678C56.0519 15.9671 66.0179 20.5156 70.6283 28.9952L75.9974 26.076C70.0698 15.1738 57.2639 9.31743 44.7418 12.6636L46.3195 18.5678ZM71.1779 28.74L75.2111 43.8326L81.1153 42.2548L77.0821 27.1622L71.1779 28.74ZM75.2111 43.8326C78.2608 55.2453 71.4813 66.9693 60.0686 70.0192L61.6464 75.9234C76.3198 72.0022 85.0364 56.9284 81.1153 42.2548L75.2111 43.8326ZM60.0686 70.0192L40.6409 75.2107L42.2187 81.1149L61.6463 75.9234L60.0686 70.0192ZM40.6409 75.2107C29.2282 78.2604 17.5041 71.481 14.4543 60.0683L8.55012 61.646C12.4713 76.3196 27.5451 85.036 42.2186 81.1149L40.6409 75.2107ZM14.4543 60.0683L10.4212 44.9757L4.51701 46.5534L8.55012 61.646L14.4543 60.0683ZM11.0248 44.9227C10.7909 35.2736 17.1595 26.3601 26.8919 23.7593L25.3141 17.8551C12.792 21.2014 4.61443 32.6651 4.91527 45.0709L11.0248 44.9227ZM26.8918 23.7593L46.3195 18.5678L44.7418 12.6636L25.3141 17.8551L26.8918 23.7593ZM8.50196 48.2947C10.0468 47.8819 11.0623 46.4671 11.0248 44.9227L4.91527 45.0709C4.88561 43.8477 5.68976 42.7204 6.92421 42.3905L8.50196 48.2947ZM10.4212 44.9757C10.8078 46.4222 9.94847 47.9082 8.50196 48.2947L6.92421 42.3905C5.10994 42.8754 4.03218 44.7392 4.51701 46.5534L10.4212 44.9757ZM74.497 30.6592C73.0505 31.0458 71.5645 30.1865 71.1779 28.74L77.0821 27.1622C76.5973 25.348 74.7335 24.2702 72.9193 24.755L74.497 30.6592ZM70.6283 28.9952C71.3663 30.3524 72.9522 31.0721 74.497 30.6592L72.9193 24.755C74.1537 24.4252 75.413 25.001 75.9974 26.076L70.6283 28.9952Z" fill="#8DCC2E" mask="url(#path-1-inside-1_82_1190)"/>
<rect y="17.8135" width="69" height="61.3811" rx="24" transform="rotate(-14.9613 0 17.8135)" fill="url(#paint1_linear_82_1190)"/>
<rect y="17.8135" width="69" height="61.3811" rx="24" transform="rotate(-14.9613 0 17.8135)" fill="url(#paint2_linear_82_1190)"/>
<mask id="mask0_82_1190" style="mask-type:alpha" maskUnits="userSpaceOnUse" x="5" y="5" width="73" height="67">
<rect y="17.8135" width="69" height="61.3811" rx="24" transform="rotate(-14.9613 0 17.8135)" fill="#74BE39"/>
</mask>
<g mask="url(#mask0_82_1190)">
<ellipse cx="30.4972" cy="-0.231017" rx="47.7692" ry="45.7843" transform="rotate(-14.9613 30.4972 -0.231017)" fill="#91D742"/>
</g>
<rect x="3.74097" y="19.9767" width="62.8886" height="55.2698" rx="20.9443" transform="rotate(-14.9613 3.74097 19.9767)" stroke="url(#paint3_linear_82_1190)" stroke-width="6.11137"/>
<rect x="3.74097" y="19.9767" width="62.8886" height="55.2698" rx="20.9443" transform="rotate(-14.9613 3.74097 19.9767)" stroke="url(#paint4_linear_82_1190)" stroke-width="6.11137"/>
<defs>
<linearGradient id="paint0_linear_82_1190" x1="77.8756" y1="61.0584" x2="21.4881" y2="76.2004" gradientUnits="userSpaceOnUse">
<stop stop-color="#6FA835"/>
<stop offset="0.514303" stop-color="#7CB435"/>
<stop offset="1" stop-color="#538D2B"/>
</linearGradient>
<linearGradient id="paint1_linear_82_1190" x1="34.5" y1="17.8135" x2="34.5" y2="79.1946" gradientUnits="userSpaceOnUse">
<stop stop-color="#BBF341"/>
<stop offset="1" stop-color="#90DE0B"/>
</linearGradient>
<linearGradient id="paint2_linear_82_1190" x1="33.7418" y1="43.4728" x2="39.0514" y2="106.989" gradientUnits="userSpaceOnUse">
<stop stop-color="#74BE39"/>
<stop offset="1" stop-color="#74BE39" stop-opacity="0"/>
</linearGradient>
<linearGradient id="paint3_linear_82_1190" x1="41.1346" y1="69.1321" x2="5.30226" y2="10.5016" gradientUnits="userSpaceOnUse">
<stop stop-color="#90D447"/>
<stop offset="1" stop-color="#EEFF2D"/>
</linearGradient>
<linearGradient id="paint4_linear_82_1190" x1="39.0495" y1="67.6228" x2="42.8952" y2="85.0104" gradientUnits="userSpaceOnUse">
<stop stop-color="#90D447" stop-opacity="0"/>
<stop offset="1" stop-color="#EBFF00"/>
</linearGradient>
</defs>
</svg>
