<svg width="111" height="111" viewBox="0 0 111 111" fill="none" xmlns="http://www.w3.org/2000/svg">
<mask id="path-1-inside-1_82_1256" fill="white">
<path d="M83.0168 34.0119C95.0208 39.093 100.852 52.6404 96.5035 64.7592C96.4999 64.7692 96.5048 64.7804 96.5146 64.7846C96.5248 64.7889 96.5296 64.8007 96.5252 64.8109L86.8848 87.5865C81.6222 100.019 67.2773 105.832 54.8444 100.569L22.5121 86.8839C10.0793 81.6212 4.26659 67.2764 9.52917 54.8434L19.1696 32.0678C19.1739 32.0576 19.1857 32.0529 19.1959 32.0572C19.2057 32.0613 19.2171 32.057 19.2218 32.0475C24.8952 20.4894 38.6804 15.2453 50.6846 20.3263L83.0168 34.0119Z"/>
</mask>
<path d="M83.0168 34.0119C95.0208 39.093 100.852 52.6404 96.5035 64.7592C96.4999 64.7692 96.5048 64.7804 96.5146 64.7846C96.5248 64.7889 96.5296 64.8007 96.5252 64.8109L86.8848 87.5865C81.6222 100.019 67.2773 105.832 54.8444 100.569L22.5121 86.8839C10.0793 81.6212 4.26659 67.2764 9.52917 54.8434L19.1696 32.0678C19.1739 32.0576 19.1857 32.0529 19.1959 32.0572C19.2057 32.0613 19.2171 32.057 19.2218 32.0475C24.8952 20.4894 38.6804 15.2453 50.6846 20.3263L83.0168 34.0119Z" fill="url(#paint0_linear_82_1256)"/>
<path d="M83.0168 34.0119L84.2079 31.1979L84.2079 31.1979L83.0168 34.0119ZM54.8444 100.569L53.6533 103.383L53.6533 103.383L54.8444 100.569ZM22.5121 86.8839L21.321 89.6979L21.321 89.6979L22.5121 86.8839ZM50.6846 20.3263L51.8757 17.5124L51.8756 17.5123L50.6846 20.3263ZM19.2218 32.0475L21.9649 33.3939L19.2218 32.0475ZM96.5035 64.7592L93.6274 63.7272L96.5035 64.7592ZM81.8257 36.8259C92.328 41.2714 97.4316 53.1255 93.6274 63.7272L99.3797 65.7912C104.273 52.1552 97.7136 36.9147 84.2079 31.1979L81.8257 36.8259ZM93.7113 63.6198L84.0708 86.3954L89.6988 88.7776L99.3392 66.002L93.7113 63.6198ZM84.0708 86.3954C79.4661 97.2741 66.9143 102.36 56.0355 97.7554L53.6533 103.383C67.6403 109.304 83.7784 102.765 89.6988 88.7776L84.0708 86.3954ZM56.0355 97.7555L23.7032 84.0699L21.321 89.6979L53.6533 103.383L56.0355 97.7555ZM23.7033 84.0699C12.8245 79.4651 7.7384 66.9133 12.3432 56.0345L6.71519 53.6523C0.794768 67.6394 7.3341 83.7774 21.321 89.6979L23.7033 84.0699ZM12.3432 56.0345L21.9836 33.2589L16.3556 30.8767L6.71519 53.6523L12.3432 56.0345ZM21.9649 33.3939C26.9279 23.2828 38.991 18.695 49.4935 23.1403L51.8756 17.5123C38.3699 11.7957 22.8624 17.696 16.4788 30.701L21.9649 33.3939ZM49.4935 23.1403L81.8257 36.8259L84.2079 31.1979L51.8757 17.5124L49.4935 23.1403ZM18.0048 34.8712C19.5257 35.5149 21.2544 34.8412 21.9649 33.3939L16.4788 30.701C17.1798 29.2728 18.8857 28.6077 20.387 29.2432L18.0048 34.8712ZM21.9836 33.2589C21.33 34.803 19.5486 35.5246 18.0048 34.8712L20.387 29.2432C18.8228 28.5811 17.0178 29.3123 16.3556 30.8767L21.9836 33.2589ZM95.3235 67.5985C93.7796 66.945 93.0578 65.1637 93.7113 63.6198L99.3392 66.002C100.001 64.4376 99.27 62.6327 97.7057 61.9706L95.3235 67.5985ZM93.6274 63.7272C93.083 65.2445 93.8024 66.9547 95.3235 67.5985L97.7057 61.9706C99.2072 62.6061 99.9169 64.294 99.3797 65.7912L93.6274 63.7272Z" fill="#AD5BFE" mask="url(#path-1-inside-1_82_1256)"/>
<rect x="32.7432" width="84" height="74.7249" rx="24" transform="rotate(22.9419 32.7432 0)" fill="url(#paint1_linear_82_1256)"/>
<rect x="32.7432" width="84" height="74.7249" rx="24" transform="rotate(22.9419 32.7432 0)" fill="url(#paint2_linear_82_1256)"/>
<mask id="mask0_82_1256" style="mask-type:alpha" maskUnits="userSpaceOnUse" x="11" y="7" width="92" height="88">
<rect x="32.7432" width="84" height="74.7249" rx="24" transform="rotate(22.9419 32.7432 0)" fill="#74BE39"/>
</mask>
<g mask="url(#mask0_82_1256)">
<ellipse cx="75.5332" cy="5.47511" rx="58.1538" ry="55.7374" transform="rotate(22.9419 75.5332 5.47511)" fill="#BF7DFF"/>
</g>
<rect x="34.366" y="4.00508" width="77.8886" height="68.6135" rx="20.9443" transform="rotate(22.9419 34.366 4.00508)" stroke="url(#paint3_linear_82_1256)" stroke-width="6.11137"/>
<rect x="34.366" y="4.00508" width="77.8886" height="68.6135" rx="20.9443" transform="rotate(22.9419 34.366 4.00508)" stroke="url(#paint4_linear_82_1256)" stroke-width="6.11137"/>
<defs>
<linearGradient id="paint0_linear_82_1256" x1="75.2073" y1="99.7822" x2="9.71801" y2="72.1563" gradientUnits="userSpaceOnUse">
<stop stop-color="#9A4AFE"/>
<stop offset="0.514303" stop-color="#AD5BFE"/>
<stop offset="1" stop-color="#7031FC"/>
</linearGradient>
<linearGradient id="paint1_linear_82_1256" x1="74.7432" y1="0" x2="74.7432" y2="74.7249" gradientUnits="userSpaceOnUse">
<stop stop-color="#BF7DFF"/>
<stop offset="1" stop-color="#D8B1FF"/>
</linearGradient>
<linearGradient id="paint2_linear_82_1256" x1="73.8201" y1="31.2374" x2="80.2841" y2="108.562" gradientUnits="userSpaceOnUse">
<stop stop-color="#AD5BFE"/>
<stop offset="1" stop-color="#AD5BFE" stop-opacity="0"/>
</linearGradient>
<linearGradient id="paint3_linear_82_1256" x1="82.8201" y1="62.4749" x2="39.1981" y2="-8.90136" gradientUnits="userSpaceOnUse">
<stop stop-color="#AD5BFE"/>
<stop offset="1" stop-color="#ECDAFF"/>
</linearGradient>
<linearGradient id="paint4_linear_82_1256" x1="80.2816" y1="60.6374" x2="84.9635" y2="81.8049" gradientUnits="userSpaceOnUse">
<stop stop-color="#AD5BFE" stop-opacity="0"/>
<stop offset="1" stop-color="#DDBBFF"/>
</linearGradient>
</defs>
</svg>
