<svg width="53" height="53" viewBox="0 0 53 53" fill="none" xmlns="http://www.w3.org/2000/svg">
<mask id="path-1-inside-1_82_1267" fill="white">
<path d="M25.5515 10.1672C33.1285 8.40492 40.7003 11.5111 44.9896 17.4434C45.1709 17.6941 45.4833 17.8174 45.7846 17.7473C46.1877 17.6536 46.5906 17.9044 46.6844 18.3075L48.3192 25.3361C48.3218 25.3472 48.3149 25.3583 48.3037 25.3609C48.2931 25.3634 48.2863 25.3737 48.288 25.3845C49.8837 35.0484 43.7186 44.4205 34.0422 46.6713L28.1202 48.0487C18.4437 50.2995 8.77544 44.6102 5.94243 35.234C5.93927 35.2235 5.92854 35.2172 5.91793 35.2197C5.90681 35.2223 5.89571 35.2154 5.89313 35.2043L4.25817 28.1751C4.16447 27.7723 4.41508 27.3697 4.81793 27.276C5.11901 27.206 5.34474 26.9577 5.39671 26.6529C6.6276 19.4363 12.0521 13.3071 19.6295 11.5447L25.5515 10.1672Z"/>
</mask>
<path d="M25.5515 10.1672C33.1285 8.40492 40.7003 11.5111 44.9896 17.4434C45.1709 17.6941 45.4833 17.8174 45.7846 17.7473C46.1877 17.6536 46.5906 17.9044 46.6844 18.3075L48.3192 25.3361C48.3218 25.3472 48.3149 25.3583 48.3037 25.3609C48.2931 25.3634 48.2863 25.3737 48.288 25.3845C49.8837 35.0484 43.7186 44.4205 34.0422 46.6713L28.1202 48.0487C18.4437 50.2995 8.77544 44.6102 5.94243 35.234C5.93927 35.2235 5.92854 35.2172 5.91793 35.2197C5.90681 35.2223 5.89571 35.2154 5.89313 35.2043L4.25817 28.1751C4.16447 27.7723 4.41508 27.3697 4.81793 27.276C5.11901 27.206 5.34474 26.9577 5.39671 26.6529C6.6276 19.4363 12.0521 13.3071 19.6295 11.5447L25.5515 10.1672Z" fill="url(#paint0_linear_82_1267)"/>
<path d="M25.5515 10.1672L24.8592 7.19099L24.8592 7.191L25.5515 10.1672ZM34.0422 46.6713L34.7345 49.6475L34.7345 49.6475L34.0422 46.6713ZM48.288 25.3845L45.2732 25.8823L48.288 25.3845ZM44.9896 17.4434L47.4658 15.653L44.9896 17.4434ZM26.2437 13.1435C32.5803 11.6697 38.9195 14.2634 42.5134 19.2338L47.4658 15.653C42.481 8.75883 33.6768 5.14016 24.8592 7.19099L26.2437 13.1435ZM43.7081 18.9998L45.3429 26.0284L51.2954 24.6438L49.6606 17.6153L43.7081 18.9998ZM45.2732 25.8823C46.6082 33.9678 41.447 41.8116 33.3499 43.6951L34.7345 49.6475C45.9902 47.0294 53.1592 36.1291 51.3029 24.8867L45.2732 25.8823ZM33.3499 43.6951L27.4279 45.0725L28.8125 51.025L34.7345 49.6475L33.3499 43.6951ZM27.4279 45.0725C19.3308 46.9559 11.2378 42.1949 8.86751 34.3501L3.01735 36.1178C6.31308 47.0254 17.5566 53.6431 28.8125 51.025L27.4279 45.0725ZM8.86936 34.512L7.23441 27.4828L1.28193 28.8674L2.91689 35.8965L8.86936 34.512ZM8.4089 27.1667C9.44018 21.1203 13.9848 15.9949 20.3217 14.5209L18.9372 8.56844C10.1195 10.6194 3.81502 17.7523 2.38453 26.1392L8.4089 27.1667ZM20.3217 14.5209L26.2437 13.1435L24.8592 7.191L18.9372 8.56844L20.3217 14.5209ZM5.51019 30.2523C7.05768 29.8923 8.15839 28.6354 8.4089 27.1667L2.38453 26.1392C2.53108 25.2799 3.18034 24.5197 4.12566 24.2998L5.51019 30.2523ZM7.23441 27.4828C7.52303 28.7237 6.75107 29.9636 5.51019 30.2523L4.12566 24.2998C2.07909 24.7758 0.805905 26.8208 1.28193 28.8674L7.23441 27.4828ZM5.22566 32.2435C6.85828 31.8637 8.48962 32.8794 8.86936 34.512L2.91689 35.8965C3.3018 37.5514 4.95535 38.5808 6.61019 38.1959L5.22566 32.2435ZM47.6115 22.3847C46.0132 22.7564 45.0122 24.3016 45.2732 25.8823L51.3029 24.8867C51.5604 26.4459 50.5731 27.9703 48.996 28.3371L47.6115 22.3847ZM45.3429 26.0284C44.9632 24.3957 45.9789 22.7644 47.6115 22.3847L48.996 28.3371C50.6508 27.9522 51.6803 26.2987 51.2954 24.6438L45.3429 26.0284ZM8.86751 34.3501C8.40415 32.8166 6.82406 31.8717 5.22566 32.2435L6.61019 38.1959C5.03302 38.5628 3.4744 37.6304 3.01735 36.1178L8.86751 34.3501ZM46.4768 20.7236C45.2363 21.0121 43.9967 20.2404 43.7081 18.9998L49.6606 17.6153C49.1845 15.5684 47.1392 14.295 45.0923 14.7711L46.4768 20.7236ZM42.5134 19.2338C43.3865 20.4413 44.9291 21.0836 46.4768 20.7236L45.0923 14.7711C46.0374 14.5513 46.9553 14.9468 47.4658 15.653L42.5134 19.2338Z" fill="#AD5BFE" mask="url(#path-1-inside-1_82_1267)"/>
<rect y="9.86816" width="43.5582" height="38.7486" rx="19.3743" transform="rotate(-13.094 0 9.86816)" fill="url(#paint1_linear_82_1267)"/>
<rect y="9.86816" width="43.5582" height="38.7486" rx="19.3743" transform="rotate(-13.094 0 9.86816)" fill="url(#paint2_linear_82_1267)"/>
<mask id="mask0_82_1267" style="mask-type:alpha" maskUnits="userSpaceOnUse" x="3" y="3" width="45" height="41">
<rect y="9.86816" width="43.5582" height="38.7486" rx="19.3743" transform="rotate(-13.094 0 9.86816)" fill="#74BE39"/>
</mask>
<g mask="url(#mask0_82_1267)">
<ellipse cx="19.6133" cy="-0.889588" rx="30.1557" ry="28.9026" transform="rotate(-13.094 19.6133 -0.889588)" fill="#BF7DFF"/>
</g>
<rect x="3.6685" y="12.1521" width="37.4468" height="32.6372" rx="16.3186" transform="rotate(-13.094 3.6685 12.1521)" stroke="url(#paint3_linear_82_1267)" stroke-width="6.11137"/>
<rect x="3.6685" y="12.1521" width="37.4468" height="32.6372" rx="16.3186" transform="rotate(-13.094 3.6685 12.1521)" stroke="url(#paint4_linear_82_1267)" stroke-width="6.11137"/>
<defs>
<linearGradient id="paint0_linear_82_1267" x1="48.2461" y1="38.7556" x2="12.3571" y2="47.1496" gradientUnits="userSpaceOnUse">
<stop stop-color="#9A4AFE"/>
<stop offset="0.514303" stop-color="#AD5BFE"/>
<stop offset="1" stop-color="#7031FC"/>
</linearGradient>
<linearGradient id="paint1_linear_82_1267" x1="21.7791" y1="9.86816" x2="21.7791" y2="48.6167" gradientUnits="userSpaceOnUse">
<stop stop-color="#BF7DFF"/>
<stop offset="1" stop-color="#D8B1FF"/>
</linearGradient>
<linearGradient id="paint2_linear_82_1267" x1="21.3004" y1="26.0663" x2="24.6523" y2="66.1627" gradientUnits="userSpaceOnUse">
<stop stop-color="#AD5BFE"/>
<stop offset="1" stop-color="#AD5BFE" stop-opacity="0"/>
</linearGradient>
<linearGradient id="paint3_linear_82_1267" x1="25.9674" y1="42.2645" x2="3.3472" y2="5.25237" gradientUnits="userSpaceOnUse">
<stop stop-color="#AD5BFE"/>
<stop offset="1" stop-color="#ECDAFF"/>
</linearGradient>
<linearGradient id="paint4_linear_82_1267" x1="24.6511" y1="41.3117" x2="27.0788" y2="52.2881" gradientUnits="userSpaceOnUse">
<stop stop-color="#AD5BFE" stop-opacity="0"/>
<stop offset="1" stop-color="#DDBBFF"/>
</linearGradient>
</defs>
</svg>
