<svg width="95" height="95" viewBox="0 0 95 95" fill="none" xmlns="http://www.w3.org/2000/svg">
<mask id="path-1-inside-1_82_1212" fill="white">
<path d="M50.1239 17.9063C60.9255 14.0839 72.6188 18.2948 78.6824 27.4245C78.778 27.5685 78.9593 27.6308 79.1222 27.5732C79.3165 27.5044 79.5298 27.6062 79.5985 27.8005L86.2791 46.6785C90.7903 59.4266 84.113 73.4184 71.365 77.9297L47.7695 86.2796C35.0215 90.7909 21.0297 84.1135 16.5184 71.3655L9.83784 52.4875C9.76907 52.2932 9.87085 52.0799 10.0652 52.0111C10.2281 51.9535 10.3297 51.791 10.3135 51.6189C9.28491 40.7074 15.7268 30.0788 26.5284 26.2563L50.1239 17.9063Z"/>
</mask>
<path d="M50.1239 17.9063C60.9255 14.0839 72.6188 18.2948 78.6824 27.4245C78.778 27.5685 78.9593 27.6308 79.1222 27.5732C79.3165 27.5044 79.5298 27.6062 79.5985 27.8005L86.2791 46.6785C90.7903 59.4266 84.113 73.4184 71.365 77.9297L47.7695 86.2796C35.0215 90.7909 21.0297 84.1135 16.5184 71.3655L9.83784 52.4875C9.76907 52.2932 9.87085 52.0799 10.0652 52.0111C10.2281 51.9535 10.3297 51.791 10.3135 51.6189C9.28491 40.7074 15.7268 30.0788 26.5284 26.2563L50.1239 17.9063Z" fill="url(#paint0_linear_82_1212)"/>
<path d="M86.2791 46.6785L89.1644 45.6575L89.1644 45.6575L86.2791 46.6785ZM16.5184 71.3655L13.6331 72.3865L13.6331 72.3866L16.5184 71.3655ZM79.5985 27.8005L76.7132 28.8216L79.5985 27.8005ZM78.6824 27.4245L81.232 25.7312L78.6824 27.4245ZM51.1449 20.7916C60.5922 17.4484 70.8268 21.1287 76.1329 29.1178L81.232 25.7312C74.4108 15.4608 61.2587 10.7193 49.1028 15.021L51.1449 20.7916ZM76.7132 28.8216L83.3938 47.6996L89.1644 45.6575L82.4838 26.7795L76.7132 28.8216ZM83.3938 47.6996C87.3411 58.8541 81.4984 71.097 70.3439 75.0444L72.386 80.815C86.7276 75.7398 94.2395 59.999 89.1644 45.6575L83.3938 47.6996ZM70.3439 75.0444L46.7485 83.3943L48.7906 89.1649L72.386 80.815L70.3439 75.0444ZM46.7485 83.3943C35.594 87.3417 23.3511 81.499 19.4037 70.3444L13.6331 72.3866C18.7083 86.7281 34.449 94.2401 48.7906 89.1649L46.7485 83.3943ZM19.4037 70.3444L12.7231 51.4664L6.95254 53.5085L13.6331 72.3865L19.4037 70.3444ZM13.3607 51.3317C12.4606 41.7834 18.1022 32.4848 27.5495 29.1416L25.5074 23.371C13.3514 27.6728 6.10927 39.6314 7.26639 51.9062L13.3607 51.3317ZM27.5495 29.1416L51.1449 20.7916L49.1028 15.021L25.5074 23.371L27.5495 29.1416ZM11.0862 54.8964C12.5983 54.3613 13.5059 52.8725 13.3607 51.3317L7.26639 51.9062C7.15358 50.7094 7.85785 49.5456 9.04413 49.1258L11.0862 54.8964ZM12.7231 51.4664C13.2183 52.8656 12.4854 54.4013 11.0862 54.8964L9.04413 49.1258C7.2563 49.7585 6.31985 51.7207 6.95254 53.5085L12.7231 51.4664ZM80.1432 30.4585C78.744 30.9536 77.2084 30.2208 76.7132 28.8216L82.4838 26.7795C81.8512 24.9917 79.8889 24.0552 78.1011 24.6879L80.1432 30.4585ZM76.1329 29.1178C76.9891 30.407 78.6311 30.9936 80.1432 30.4585L78.1011 24.6879C79.2874 24.2681 80.5669 24.7299 81.232 25.7312L76.1329 29.1178Z" fill="#FFC715" mask="url(#path-1-inside-1_82_1212)"/>
<rect y="24.687" width="74" height="66.2914" rx="24" transform="rotate(-19.4879 0 24.687)" fill="url(#paint1_linear_82_1212)"/>
<rect y="24.687" width="74" height="66.2914" rx="24" transform="rotate(-19.4879 0 24.687)" fill="url(#paint2_linear_82_1212)"/>
<mask id="mask0_82_1212" style="mask-type:alpha" maskUnits="userSpaceOnUse" x="6" y="6" width="80" height="75">
<rect y="24.687" width="74" height="65.8289" rx="24" transform="rotate(-19.4879 0 24.687)" fill="#74BE39"/>
</mask>
<g mask="url(#mask0_82_1212)">
<ellipse cx="31.079" cy="2.8137" rx="51.2308" ry="49.1019" transform="rotate(-19.4879 31.079 2.8137)" fill="#FFC715"/>
</g>
<rect x="3.90635" y="26.5513" width="67.8787" height="60.1701" rx="20.9394" transform="rotate(-19.4879 3.90635 26.5513)" stroke="url(#paint3_linear_82_1212)" stroke-width="6.12128"/>
<rect x="3.90635" y="26.5513" width="67.8787" height="60.1701" rx="20.9394" transform="rotate(-19.4879 3.90635 26.5513)" stroke="url(#paint4_linear_82_1212)" stroke-width="6.12128"/>
<defs>
<linearGradient id="paint0_linear_82_1212" x1="86.4045" y1="62.8771" x2="27.4013" y2="83.8385" gradientUnits="userSpaceOnUse">
<stop stop-color="#FFB213"/>
<stop offset="0.514303" stop-color="#FFC715"/>
<stop offset="1" stop-color="#FF8413"/>
</linearGradient>
<linearGradient id="paint1_linear_82_1212" x1="37" y1="24.687" x2="37" y2="90.9784" gradientUnits="userSpaceOnUse">
<stop stop-color="#AC8405"/>
<stop offset="1" stop-color="#FFEEB7"/>
</linearGradient>
<linearGradient id="paint2_linear_82_1212" x1="36.1868" y1="52.399" x2="41.961" y2="120.99" gradientUnits="userSpaceOnUse">
<stop stop-color="#FFB213"/>
<stop offset="1" stop-color="#FFB213" stop-opacity="0"/>
</linearGradient>
<linearGradient id="paint3_linear_82_1212" x1="44.1154" y1="80.111" x2="5.29357" y2="17.0321" gradientUnits="userSpaceOnUse">
<stop stop-color="#FFC715"/>
<stop offset="1" stop-color="#FFF5D6"/>
</linearGradient>
<linearGradient id="paint4_linear_82_1212" x1="41.8791" y1="78.4809" x2="46.059" y2="97.2471" gradientUnits="userSpaceOnUse">
<stop stop-color="#FFC715" stop-opacity="0"/>
<stop offset="1" stop-color="#FFEDB4"/>
</linearGradient>
</defs>
</svg>
