<svg width="47" height="47" viewBox="0 0 47 47" fill="none" xmlns="http://www.w3.org/2000/svg">
<mask id="path-1-inside-1_82_1223" fill="white">
<path d="M27.2691 7.73935C34.6262 8.23935 40.7001 12.9268 43.3229 19.3169C43.4717 19.6794 43.8085 19.9338 44.1995 19.9604C44.7482 19.9976 45.1627 20.4727 45.1255 21.0213L44.6522 27.9851C44.6521 27.9862 44.6512 27.987 44.6501 27.9869C44.649 27.9868 44.6481 27.9877 44.648 27.9887C43.7923 38.1481 34.9408 45.7787 24.7311 45.0848L18.6728 44.6731C8.46303 43.9792 0.725343 35.2212 1.25207 25.0395C1.25212 25.0384 1.25131 25.0375 1.25023 25.0374C1.24915 25.0373 1.24833 25.0364 1.2484 25.0353L1.72167 18.0716C1.75896 17.5229 2.23397 17.1083 2.78265 17.1456C3.17361 17.1722 3.54177 16.9657 3.73824 16.6266C7.20153 10.6502 13.8537 6.82762 21.2108 7.32762L27.2691 7.73935Z"/>
</mask>
<path d="M27.2691 7.73935C34.6262 8.23935 40.7001 12.9268 43.3229 19.3169C43.4717 19.6794 43.8085 19.9338 44.1995 19.9604C44.7482 19.9976 45.1627 20.4727 45.1255 21.0213L44.6522 27.9851C44.6521 27.9862 44.6512 27.987 44.6501 27.9869C44.649 27.9868 44.6481 27.9877 44.648 27.9887C43.7923 38.1481 34.9408 45.7787 24.7311 45.0848L18.6728 44.6731C8.46303 43.9792 0.725343 35.2212 1.25207 25.0395C1.25212 25.0384 1.25131 25.0375 1.25023 25.0374C1.24915 25.0373 1.24833 25.0364 1.2484 25.0353L1.72167 18.0716C1.75896 17.5229 2.23397 17.1083 2.78265 17.1456C3.17361 17.1722 3.54177 16.9657 3.73824 16.6266C7.20153 10.6502 13.8537 6.82762 21.2108 7.32762L27.2691 7.73935Z" fill="url(#paint0_linear_82_1223)"/>
<path d="M27.2691 7.73935L27.0616 10.7929L27.2691 7.73935ZM24.7311 45.0848L24.9386 42.0312L24.7311 45.0848ZM18.6728 44.6731L18.4653 47.7267L18.6728 44.6731ZM21.2108 7.32762L21.4184 4.27402L21.2108 7.32762ZM3.73824 16.6266L1.09011 15.0921L3.73824 16.6266ZM44.648 27.9887L41.5982 27.7319L44.648 27.9887ZM44.6522 27.9851L41.5986 27.7776L44.6522 27.9851ZM1.25207 25.0395L4.30862 25.1976L1.25207 25.0395ZM45.1255 21.0213L42.0719 20.8138L45.1255 21.0213ZM43.3229 19.3169L46.1543 18.1547L43.3229 19.3169ZM27.0616 10.7929C33.2109 11.2109 38.2944 15.1263 40.4915 20.479L46.1543 18.1547C43.1057 10.7274 36.0415 5.26783 27.4767 4.68575L27.0616 10.7929ZM42.0719 20.8138L41.5986 27.7776L47.7058 28.1926L48.1791 21.2289L42.0719 20.8138ZM41.5982 27.7319C40.8825 36.2291 33.4781 42.6116 24.9386 42.0312L24.5235 48.1384C36.4036 48.9458 46.7022 40.0671 47.6978 28.2456L41.5982 27.7319ZM24.9386 42.0312L18.8803 41.6195L18.4653 47.7267L24.5235 48.1384L24.9386 42.0312ZM18.8803 41.6195C10.3408 41.0392 3.86807 33.7136 4.30862 25.1976L-1.80449 24.8814C-2.41738 36.7289 6.58526 46.9193 18.4653 47.7267L18.8803 41.6195ZM4.302 25.2428L4.77526 18.2791L-1.33193 17.864L-1.80519 24.8278L4.302 25.2428ZM6.38638 18.1612C9.28746 13.1549 14.8539 9.9633 21.0033 10.3812L21.4184 4.27402C12.8535 3.69194 5.11559 8.14549 1.09011 15.0921L6.38638 18.1612ZM21.0033 10.3812L27.0616 10.7929L27.4767 4.68575L21.4184 4.27402L21.0033 10.3812ZM2.57512 20.1992C4.18885 20.3089 5.63552 19.4569 6.38638 18.1612L1.09011 15.0921C1.44801 14.4745 2.15838 14.0355 2.99018 14.092L2.57512 20.1992ZM4.77526 18.2791C4.69794 19.4169 3.7129 20.2765 2.57512 20.1992L2.99018 14.092C0.755045 13.9401 -1.18003 15.6289 -1.33193 17.864L4.77526 18.2791ZM1.45776 21.9838C3.14313 22.0984 4.41654 23.5575 4.302 25.2428L-1.80519 24.8278C-1.91988 26.5153 -0.644832 27.9763 1.04271 28.091L1.45776 21.9838ZM44.8576 24.9333C43.1676 24.8185 41.7367 26.0875 41.5982 27.7319L47.6978 28.2456C47.5595 29.8879 46.1305 31.1552 44.4426 31.0405L44.8576 24.9333ZM41.5986 27.7776C41.7131 26.0926 43.1718 24.8188 44.8576 24.9333L44.4426 31.0405C46.1306 31.1552 47.5911 29.8797 47.7058 28.1926L41.5986 27.7776ZM4.30862 25.1976C4.39379 23.5511 3.14933 22.0988 1.45776 21.9838L1.04271 28.091C-0.646721 27.9762 -1.88955 26.5257 -1.80449 24.8814L4.30862 25.1976ZM43.992 23.014C42.8542 22.9366 41.9945 21.9516 42.0719 20.8138L48.1791 21.2289C48.331 18.9937 46.6422 17.0587 44.407 16.9068L43.992 23.014ZM40.4915 20.479C41.0602 21.8644 42.3783 22.9043 43.992 23.014L44.407 16.9068C45.2388 16.9633 45.8833 17.4943 46.1543 18.1547L40.4915 20.479Z" fill="#FFC715" mask="url(#path-1-inside-1_82_1223)"/>
<rect x="2.94971" width="43.504" height="38.9722" rx="19.4861" transform="rotate(3.88792 2.94971 0)" fill="url(#paint1_linear_82_1223)"/>
<rect x="2.94971" width="43.504" height="38.9722" rx="19.4861" transform="rotate(3.88792 2.94971 0)" fill="url(#paint2_linear_82_1223)"/>
<mask id="mask0_82_1223" style="mask-type:alpha" maskUnits="userSpaceOnUse" x="1" y="1" width="45" height="40">
<rect x="2.94971" width="43.504" height="38.7003" rx="19.3502" transform="rotate(3.88792 2.94971 0)" fill="#74BE39"/>
</mask>
<g mask="url(#mask0_82_1223)">
<ellipse cx="24.823" cy="-4.55462" rx="30.1182" ry="28.8666" transform="rotate(3.88792 24.823 -4.55462)" fill="#FFC715"/>
</g>
<rect x="5.79578" y="3.26112" width="37.3827" height="32.8509" rx="16.4255" transform="rotate(3.88792 5.79578 3.26112)" stroke="url(#paint3_linear_82_1223)" stroke-width="6.12128"/>
<rect x="5.79578" y="3.26112" width="37.3827" height="32.8509" rx="16.4255" transform="rotate(3.88792 5.79578 3.26112)" stroke="url(#paint4_linear_82_1223)" stroke-width="6.12128"/>
<defs>
<linearGradient id="paint0_linear_82_1223" x1="40.6693" y1="40.7627" x2="3.93956" y2="38.3116" gradientUnits="userSpaceOnUse">
<stop stop-color="#FFB213"/>
<stop offset="0.514303" stop-color="#FFC715"/>
<stop offset="1" stop-color="#FF8413"/>
</linearGradient>
<linearGradient id="paint1_linear_82_1223" x1="24.7017" y1="0" x2="24.7017" y2="38.9722" gradientUnits="userSpaceOnUse">
<stop stop-color="#AC8405"/>
<stop offset="1" stop-color="#FFEEB7"/>
</linearGradient>
<linearGradient id="paint2_linear_82_1223" x1="24.2237" y1="16.2917" x2="27.6182" y2="56.6156" gradientUnits="userSpaceOnUse">
<stop stop-color="#FFB213"/>
<stop offset="1" stop-color="#FFB213" stop-opacity="0"/>
</linearGradient>
<linearGradient id="paint3_linear_82_1223" x1="28.8848" y1="32.5833" x2="6.06176" y2="-4.50028" gradientUnits="userSpaceOnUse">
<stop stop-color="#FFC715"/>
<stop offset="1" stop-color="#FFF5D6"/>
</linearGradient>
<linearGradient id="paint4_linear_82_1223" x1="27.5701" y1="31.625" x2="30.0274" y2="42.6575" gradientUnits="userSpaceOnUse">
<stop stop-color="#FFC715" stop-opacity="0"/>
<stop offset="1" stop-color="#FFEDB4"/>
</linearGradient>
</defs>
</svg>
