<svg width="87" height="105" viewBox="0 0 87 105" fill="none" xmlns="http://www.w3.org/2000/svg">
<path d="M79.5459 7.59412C76.248 4.43305 72.4989 3.14777 68.7844 2.57461C68.0034 2.43566 67.1355 2.33146 66.1635 2.27935C66.1462 2.27935 66.1115 2.27935 66.0941 2.27935C64.3757 2.1404 62.7094 2.10566 61.0952 2.05355C51.0628 1.74092 36.1183 1.8625 28.1167 2.83514C23.517 3.4083 20.2712 5.52726 17.8065 10.4947C11.8009 22.5311 5.17052 41.4975 2.72316 51.7971C2.23716 53.8465 2.11566 55.5487 2.37602 56.9208C2.56695 60.0818 7.63523 64.424 11.3149 67.3245C14.2657 69.6519 18.6744 69.8082 20.1324 69.8082C21.5904 69.8082 20.1324 69.8082 20.1497 69.8082C20.4969 69.8082 20.844 69.8256 21.2085 69.8256C22.3714 69.8256 23.3261 69.8256 24.1072 69.8256C23.9162 70.3466 23.6906 70.9025 23.4129 71.493C20.5142 77.9714 17.2337 86.1173 16.1055 89.8342C15.8972 90.5289 15.7931 91.1889 15.7757 91.7968C15.7757 92.2136 15.8104 92.5957 15.8799 92.9605C16.4353 95.9305 18.9868 98.2232 20.4969 99.7342C22.3541 101.593 25.5999 103.052 27.9604 103.052C30.321 103.052 32.5427 102.722 34.1743 101.593C53.7358 87.941 72.8807 68.5229 78.2441 60.8461C81.1601 56.6776 82.1494 52.9781 81.2816 50.5639C80.5699 47.5765 78.4524 45.5965 76.3695 43.7902C74.6512 42.2965 73.0369 41.1501 71.2839 40.4207C71.5442 40.0038 71.8219 39.5696 72.0997 39.1354C74.7727 34.9148 77.7754 30.5553 80.1187 27.0295C81.9412 24.2853 83.5207 21.489 84.2149 18.9705C85.9333 14.1073 83.6074 11.502 79.5459 7.61149V7.59412Z" fill="url(#paint0_linear_82_7808)"/>
<path d="M27.9778 104.615C25.2007 104.615 21.6077 103.034 19.4034 100.846C19.2819 100.724 19.1604 100.603 19.0215 100.464C17.4073 98.8657 14.9599 96.4688 14.3524 93.273C14.2483 92.7867 14.2136 92.3004 14.2136 91.7967C14.2136 91.0325 14.3524 90.2162 14.6128 89.3999C15.6716 85.8914 18.7785 78.0756 21.7466 71.4234H21.2085C20.8787 71.4234 20.5316 71.4234 20.1497 71.4061C20.1497 71.4061 20.1324 71.4061 20.115 71.4061C17.7892 71.4061 13.4499 71.0413 10.3256 68.5923C3.97287 63.5902 1.03952 60.0644 0.796515 57.1465C0.518801 55.5833 0.640303 53.7249 1.17837 51.467C3.62573 41.2022 10.3256 22.0099 16.3832 9.83459C18.9868 4.60666 22.545 1.98401 27.9084 1.32401C35.7885 0.35137 50.5768 0.195036 61.1299 0.525039H61.911C63.2822 0.594513 64.7055 0.629258 66.1809 0.750838H66.2503C67.2397 0.820312 68.1769 0.924532 69.0274 1.06348C73.8354 1.81033 77.5151 3.5298 80.622 6.49982C84.3191 10.043 87.8252 13.4125 85.7077 19.4567C85.0481 21.8015 83.6595 24.5631 81.4204 27.9152C80.7262 28.9747 79.9624 30.0863 79.164 31.2674C77.3762 33.9247 75.3628 36.9121 73.5403 39.7953C74.7727 40.4901 76.0397 41.4106 77.4109 42.609C79.7715 44.6759 81.9759 46.8122 82.7917 50.1296C83.8157 53.1344 82.6702 57.2507 79.5285 61.7491C73.7833 69.9818 54.1003 89.6256 35.0769 102.895C33.3585 104.094 31.1715 104.632 27.9778 104.632V104.615ZM20.1671 68.2623H20.2018C20.5837 68.2623 20.8961 68.2797 21.2085 68.2797H26.3636L25.5652 70.3987C25.3395 70.9892 25.1139 71.5624 24.8362 72.1529C21.8334 78.8224 18.657 86.7946 17.5982 90.303C17.442 90.8414 17.3552 91.3625 17.3379 91.8315C17.3379 92.1094 17.3552 92.3872 17.4073 92.6478V92.6825C17.8412 94.9231 19.7852 96.8336 21.2085 98.2405C21.3474 98.3794 21.4689 98.501 21.6077 98.6226C23.1872 100.203 26.0512 101.488 27.9778 101.488C29.9044 101.488 32.1435 101.124 33.2891 100.307C53.4234 86.2735 72.1344 66.8555 76.9597 59.9428C79.4591 56.3649 80.5179 53.0475 79.8062 51.0849L79.7715 50.998V50.9112C79.164 48.4449 77.3936 46.7601 75.3281 44.9364C73.6097 43.4253 72.117 42.4353 70.6764 41.8448L68.958 41.1327L70.3119 38.9964C70.4681 38.7532 70.6069 38.5274 70.7632 38.2842C72.6551 35.2969 74.7206 32.2226 76.5604 29.4958C77.3589 28.3147 78.1052 27.2031 78.7995 26.161C80.8477 23.0694 82.1321 20.5857 82.6875 18.5536L82.7222 18.432C84.0761 14.6109 82.6181 12.7351 78.435 8.74037C75.8141 6.2393 72.6724 4.78034 68.5067 4.1377H68.472C67.7257 3.99875 66.9099 3.91192 66.042 3.85981H65.9379C64.5493 3.73823 63.1434 3.7035 61.8069 3.66876H61.0084C50.5768 3.30402 35.9794 3.47769 28.2729 4.4156C23.9509 4.95402 21.3127 6.91668 19.1777 11.2241C13.2069 23.2084 6.61116 42.0879 4.21587 52.1964C3.78195 54.0375 3.66044 55.5312 3.88608 56.6602V56.7644C3.90344 56.7644 3.90344 56.8686 3.90344 56.8686C3.97287 58.1539 5.48294 60.8112 12.2522 66.1434C14.6996 68.0713 18.5008 68.2971 20.0629 68.2971C20.0629 68.2971 20.0803 68.2971 20.0977 68.2971H20.1324L20.1671 68.2623Z" fill="url(#paint1_linear_82_7808)"/>
<path d="M34.1914 101.593C53.7529 87.9408 72.8978 68.5228 78.2612 60.8459C81.1772 56.6775 82.1665 52.978 81.2987 50.5638C80.587 47.5764 78.4695 45.5964 76.3866 43.79C74.6683 42.2963 73.054 41.15 71.301 40.4205C71.5613 40.0037 71.839 39.5695 72.1168 39.1353C74.7898 34.9147 77.7925 30.5552 80.1357 27.0294C81.9583 24.2852 83.5378 21.4888 84.232 18.9704C85.9504 14.1072 83.6245 11.5019 79.563 7.61137C73.9392 2.22712 66.9964 2.26185 61.1123 2.0708C61.1123 2.0708 64.6705 5.96136 69.0098 10.1124C59.0295 9.85191 45.1785 10.0082 37.576 10.9461C32.9764 11.5193 29.7306 13.6383 27.2659 18.6057C21.8158 29.5478 15.8275 46.2043 12.9463 56.8859L2.3584 56.7643C2.3584 59.9428 7.54818 64.3891 11.3147 67.3418C14.2654 69.6692 18.6741 69.8255 20.1321 69.8255C21.5901 69.8255 20.1321 69.8255 20.1495 69.8255C20.4966 69.8255 20.8438 69.8428 21.2083 69.8428C28.2379 69.8428 27.4395 69.8428 30.8241 69.8428C34.2088 69.8428 36.1875 72.2571 32.8896 79.604C31.3622 83.0256 29.7133 86.9161 28.342 90.3551L15.7928 91.7967C15.7928 95.3225 18.8303 98.032 20.514 99.7167C22.3712 101.575 25.617 103.034 27.9775 103.034C30.3381 103.034 32.5598 102.704 34.1914 101.575V101.593Z" fill="url(#paint2_linear_82_7808)"/>
<path d="M17.8061 10.5119C11.8005 22.5483 5.17006 41.5148 2.7227 51.8143C1.03906 58.9007 3.65999 61.7491 11.7658 61.7491C19.8716 61.7491 17.997 61.7491 21.3816 61.7491C24.7663 61.7491 26.745 64.1633 23.4471 71.5102C20.5485 77.9887 17.268 86.1345 16.1398 89.8514C14.1958 96.2778 21.4337 99.0046 27.5781 94.2109C45.2477 80.4203 63.4727 60.4291 68.8187 52.7522C73.9738 45.3532 73.1406 39.4826 66.5276 39.4826C59.9145 39.4826 63.8546 39.4479 62.1188 39.4479C57.0506 39.4479 59.9145 35.401 62.6743 31.0415C65.3473 26.821 68.3501 22.4615 70.6933 18.9356C75.7963 11.2414 78.9726 3.06082 66.1978 2.27923C56.9638 1.72344 37.6626 1.67133 28.1509 2.83502C23.5513 3.40818 20.3055 5.52714 17.8408 10.4945L17.8061 10.5119Z" fill="url(#paint3_linear_82_7808)"/>
<path d="M69.4439 17.5462C67.118 21.0546 64.0979 25.4315 61.4249 29.652C58.7693 33.8379 56.1657 38.9789 61.1298 39.3784C57.4328 38.8574 60.0884 35.0884 62.6573 31.0242C65.3303 26.8036 68.333 22.4441 70.6763 18.9183C75.7793 11.224 78.9556 3.04342 66.1808 2.26184C65.7815 2.24447 65.3476 2.20975 64.9137 2.19238C77.2026 3.09555 74.4948 9.93874 69.4613 17.5288L69.4439 17.5462Z" fill="white" fill-opacity="0.3"/>
<path d="M68.1773 39.6216C72.2389 40.7853 71.9438 45.0927 67.5698 51.3628C62.2238 59.0397 43.9988 79.0308 26.3292 92.8215C22.6842 95.6699 18.64 95.861 16.3662 94.1936C18.0499 97.181 23.0834 97.6673 27.5442 94.1936C45.2138 80.403 63.4388 60.4118 68.7848 52.7349C73.4712 46.0133 73.2109 40.5595 68.1773 39.6042V39.6216Z" fill="white" fill-opacity="0.3"/>
<path d="M20.1323 60.377C16.7477 60.377 17.5461 60.377 10.5164 60.377C3.4868 60.377 2.70573 58.9007 2.21973 55.8091C2.3933 59.9949 5.37873 61.7665 11.7488 61.7665C18.1189 61.7665 17.98 61.7665 21.3647 61.7665C24.7493 61.7665 25.027 62.7044 25.1138 65.2055C25.1312 61.5407 22.6144 60.3944 20.1497 60.3944L20.1323 60.377Z" fill="white" fill-opacity="0.3"/>
<defs>
<linearGradient id="paint0_linear_82_7808" x1="43.5124" y1="1.89724" x2="43.5124" y2="103.052" gradientUnits="userSpaceOnUse">
<stop stop-color="#2FDFFA"/>
<stop offset="1" stop-color="#109EFE"/>
</linearGradient>
<linearGradient id="paint1_linear_82_7808" x1="43.5124" y1="104.615" x2="43.5124" y2="0.333991" gradientUnits="userSpaceOnUse">
<stop stop-color="#0060B5"/>
<stop offset="1" stop-color="#058AFF"/>
</linearGradient>
<linearGradient id="paint2_linear_82_7808" x1="43.5643" y1="103.051" x2="43.5643" y2="2.05343" gradientUnits="userSpaceOnUse">
<stop stop-color="#0073D9"/>
<stop offset="1" stop-color="#009DF2"/>
</linearGradient>
<linearGradient id="paint3_linear_82_7808" x1="38.6867" y1="1.89712" x2="38.6867" y2="96.6425" gradientUnits="userSpaceOnUse">
<stop stop-color="#2FDFFA"/>
<stop offset="1" stop-color="#109EFE"/>
</linearGradient>
</defs>
</svg>
