<svg width="107" height="97" viewBox="0 0 107 97" fill="none" xmlns="http://www.w3.org/2000/svg">
<path d="M105.377 57.2376C103.399 48.7963 100.762 40.6426 99.883 38.0205C99.8154 37.8345 99.7309 37.6315 99.6633 37.4454C99.5111 37.0732 99.3421 36.7011 99.1223 36.3627L85.8009 17.2979C85.1247 16.1646 84.0935 15.268 82.8763 14.7774L51.3141 2.59759C50.4012 2.22543 49.4207 2.07319 48.4402 2.14086L22.7611 3.96784C22.5075 3.98476 22.2708 4.01858 22.0172 4.06933C21.4256 4.18775 20.8339 4.40767 20.3098 4.72908L3.26926 14.8789C2.01826 15.6232 1.30824 17.0442 1.4942 18.499C1.4942 18.5159 1.4942 18.5328 1.4942 18.5667C6.46436 41.6914 13.3279 68.3516 29.0498 93.2357C29.4218 93.8277 30.0303 94.2337 30.6558 94.5213C31.5349 94.9273 32.5323 95.0288 33.5128 94.7581C33.6988 94.7074 33.8678 94.6566 34.0369 94.6059C64.1621 86.2323 87.2041 76.3362 103.67 62.3802C104.414 61.7542 104.955 60.9423 105.242 60.0457C105.529 59.1661 105.58 58.2018 105.36 57.2545L105.377 57.2376Z" fill="url(#paint0_linear_82_8939)"/>
<path d="M32.4132 96.3664C31.6018 96.3664 30.7903 96.1972 30.0465 95.8589C29.0491 95.4021 28.2883 94.7762 27.815 94.015C12.3804 69.5708 5.34783 43.4519 0.073372 18.8554L0.0395697 18.6693C-0.21401 16.6394 0.766485 14.6601 2.54154 13.5944L19.5821 3.44457C20.2414 3.0555 20.9683 2.76793 21.746 2.61569C22.0841 2.54802 22.3884 2.49726 22.6758 2.48035L48.3549 0.653368C49.5552 0.568786 50.7724 0.754875 51.8712 1.21162L83.4503 13.4083C84.9549 14.0173 86.2228 15.1169 87.068 16.504L100.389 35.5688L100.423 35.6196C100.643 35.9917 100.846 36.3977 101.049 36.9052L101.083 36.9898C101.15 37.159 101.235 37.3451 101.302 37.565C102.317 40.6099 104.869 48.5606 106.83 56.9173C107.101 58.1015 107.05 59.3533 106.661 60.5036C106.272 61.6708 105.579 62.7027 104.633 63.4978C96.4674 70.4166 86.6454 76.4388 74.5919 81.9198C63.4006 86.9947 50.2652 91.6129 34.425 96.0111C34.3404 96.028 34.2559 96.0619 34.1714 96.0788C34.0868 96.1126 33.9854 96.1295 33.9009 96.1634C33.4106 96.2987 32.9035 96.3664 32.4132 96.3664ZM2.96417 18.2972C8.18791 42.606 15.136 68.4035 30.3001 92.4248C30.4691 92.6955 30.7903 92.9323 31.2637 93.1523C31.8553 93.4229 32.4977 93.4737 33.1063 93.3045C33.1909 93.2876 33.2754 93.2538 33.3599 93.2368C33.4444 93.203 33.5459 93.1861 33.6304 93.1523C65.5138 84.2881 87.4738 74.1382 102.705 61.231C103.23 60.7912 103.618 60.216 103.838 59.5563C104.058 58.9135 104.075 58.2368 103.923 57.5771C101.945 49.1019 99.2399 40.8129 98.4791 38.4785C98.4453 38.377 98.3946 38.2416 98.327 38.1063L98.2932 38.0048C98.1579 37.6665 98.0227 37.3958 97.8874 37.1421L84.5661 18.0773L84.5322 18.0265C84.0251 17.1807 83.2474 16.504 82.3346 16.1319L50.7555 3.93515C50.0624 3.64758 49.3016 3.52916 48.5578 3.57991L22.8786 5.40689C22.7265 5.40689 22.5405 5.44073 22.3377 5.49148C21.8812 5.59297 21.4586 5.74521 21.0867 5.96512L4.04612 16.115C3.30228 16.5548 2.87966 17.4006 2.9811 18.2634L2.96417 18.2972Z" fill="url(#paint1_linear_82_8939)"/>
<path d="M69.9929 38.8002C80.508 39.1723 91.6993 38.4957 99.6617 37.4468C99.5095 37.0747 99.3405 36.7025 99.1207 36.3642L85.7993 17.2994C85.1231 16.166 84.0919 15.2694 82.8747 14.7789L51.3125 2.59906C50.3996 2.2269 49.4191 2.07466 48.4386 2.14232L22.7595 3.9693C22.5059 3.98622 22.2692 4.02005 22.0156 4.0708C24.1626 9.1288 27.9494 17.3502 32.1588 23.0172C43.5868 30.3251 61.7093 37.007 69.976 38.8171L69.9929 38.8002Z" fill="url(#paint2_linear_82_8939)"/>
<path d="M20.3245 4.71361L3.2839 14.8635C2.03291 15.6078 1.32289 17.0288 1.50885 18.4836C1.50885 18.5005 1.50885 18.5174 1.50885 18.5512C3.08104 22.6788 6.83402 30.8833 14.9317 41.6252C20.0371 34.4019 32.1751 23.0172 32.1751 23.0172C27.9656 17.3502 24.162 9.1288 22.0319 4.0708C21.4402 4.18922 20.8485 4.40913 20.3245 4.73054V4.71361Z" fill="url(#paint3_linear_82_8939)"/>
<path d="M67.3555 62.9226C80.8121 62.5505 94.4547 61.4171 105.257 60.0299C105.545 59.1503 105.595 58.186 105.375 57.2387C103.398 48.7974 100.76 40.6437 99.8813 38.0217C99.8136 37.8356 99.7291 37.6326 99.6615 37.4465C91.6991 38.5123 80.5078 39.172 69.9927 38.7998C69.9251 38.7998 69.8575 38.766 69.8067 38.7491L69.6377 38.969C69.6377 38.969 69.6377 53.3987 67.3555 62.9057V62.9226Z" fill="url(#paint4_linear_82_8939)"/>
<path d="M33.5106 94.7259C33.6965 94.6752 33.8656 94.6244 34.0346 94.5736C41.5744 89.6171 55.8932 78.9598 67.355 62.9061C56.9751 59.0323 24.9565 48.2904 14.9316 41.6084C21.9304 71.7365 27.6106 87.3673 30.6536 94.4891C31.5326 94.8951 32.5301 94.9966 33.5106 94.7259Z" fill="url(#paint5_linear_82_8939)"/>
<path d="M29.0661 93.219C29.438 93.8111 30.0466 94.2171 30.6721 94.5047C27.646 87.3998 21.949 71.769 14.9502 41.624C6.85252 30.8821 3.09954 22.6776 1.52734 18.55C6.4975 41.6748 13.3611 68.335 29.083 93.219H29.0661Z" fill="url(#paint6_linear_82_8939)"/>
<path d="M34.0364 94.5902C64.1617 86.2166 87.2036 76.3205 103.669 62.3645C104.413 61.7386 104.954 60.9266 105.242 60.03C94.456 61.4172 80.8134 62.5506 67.3399 62.9228C55.8781 78.9595 41.5593 89.6337 34.0195 94.5902H34.0364Z" fill="url(#paint7_linear_82_8939)"/>
<path d="M14.9316 41.6249C27.2387 49.8463 51.8528 59.0149 67.355 62.9226C69.6372 53.4156 69.6372 38.9859 69.6372 38.9859L69.8062 38.766C61.455 36.9052 43.5354 30.2571 32.175 23.0168C32.175 23.0168 20.037 34.4185 14.9316 41.6249Z" fill="url(#paint8_linear_82_8939)"/>
<path d="M29.0983 27.4837C30.6198 26.0965 32.6484 25.606 34.8292 26.2995C41.8787 28.5494 52.9855 34.0473 58.5304 35.4344C58.7164 35.4851 58.8685 35.5021 59.0038 35.5359C50.3482 32.474 39.7824 27.8897 32.1751 23.0347C32.1751 23.0347 20.037 34.4363 14.9316 41.6427C26.7146 49.5257 49.8242 58.2546 65.3602 62.4161C32.1412 51.7249 23.2659 45.1444 20.1216 42.5393C18.9382 41.5412 19.5975 38.8684 20.1216 37.9211C22.6912 33.1676 26.9344 29.4629 29.0983 27.5006V27.4837Z" fill="url(#paint9_linear_82_8939)"/>
<path d="M21.829 45.6842C19.2594 44.314 16.9265 42.9607 14.9316 41.6243C21.6092 70.3652 27.0866 85.9114 30.214 93.4561C15.3205 47.7311 17.6703 45.312 21.829 45.7011V45.6842Z" fill="url(#paint10_linear_82_8939)"/>
<path d="M28.2896 19.3121C29.1687 21.5112 29.1687 23.5412 27.4106 25.5543C25.6524 27.5842 19.9384 33.5557 17.7407 35.4165C15.543 37.2604 14.309 37.9709 12.3818 35.8564C10.5391 33.8433 6.46491 27.7703 2.22168 20.2933C4.11507 24.7761 7.86804 32.2362 14.9514 41.6248C20.0568 34.4015 32.1948 23.0168 32.1948 23.0168C28.4418 17.9419 25.01 10.8539 22.7954 5.7959C24.0802 8.92543 27.2584 16.6901 28.3065 19.329L28.2896 19.3121Z" fill="url(#paint11_linear_82_8939)"/>
<path d="M19.9211 61.587C18.3489 55.7847 16.6922 49.1535 14.934 41.6257C9.94697 35.0114 6.61663 29.3782 4.41895 25.0476C9.00028 34.8422 14.0042 40.1032 19.9211 61.587Z" fill="url(#paint12_linear_82_8939)"/>
<path d="M69.8092 38.7676C67.2227 38.1924 63.7233 37.1605 59.8013 35.7903C62.6413 36.9744 65.0757 38.2432 66.0731 39.0213C67.0705 39.8164 68.0172 41.0174 68.3215 45.8217C68.6596 51.0319 67.9327 56.4452 67.0029 58.4921C66.0731 60.539 65.0926 61.7231 58.2291 60.2006C57.8909 60.133 57.6205 60.0822 57.3838 60.0484C60.9677 61.1649 64.3488 62.146 67.3917 62.9073C69.674 53.4002 69.674 38.9706 69.674 38.9706L69.843 38.7507L69.8092 38.7676Z" fill="url(#paint13_linear_82_8939)"/>
<path d="M103.769 60.082C97.5652 61.0801 79.6963 61.7398 74.3543 61.6045C71.4297 61.5368 70.1956 61.4015 69.7391 58.1704C69.2827 54.9394 70.1956 48.342 70.6689 44.6373C71.1253 40.9326 71.9199 40.4759 74.1007 40.1545C76.2815 39.8161 89.6028 39.038 99.4924 37.5155L99.4079 37.4817C91.4624 38.5305 80.3895 39.1733 69.9927 38.8012C69.9251 38.8012 69.8575 38.7673 69.8067 38.7504L69.6377 38.9703C69.6377 38.9703 69.6377 53.4 67.3555 62.907C80.7276 62.5349 94.2518 61.4184 105.02 60.0482C104.868 59.9636 104.48 59.9636 103.786 60.0651L103.769 60.082Z" fill="url(#paint14_linear_82_8939)"/>
<path d="M45.3459 56.0039C51.1444 58.2876 57.1627 60.4698 60.9157 62.1615C62.6738 62.9565 64.8715 63.5655 63.1979 66.5597C60.0366 72.2267 48.5748 83.6284 40.4434 90.0566C48.2367 84.2204 58.6165 75.1363 67.3566 62.9058C61.0678 61.3156 53.2576 58.8627 45.3797 55.9531L45.3459 56.0039Z" fill="url(#paint15_linear_82_8939)"/>
<path d="M104.834 60.0813C94.0995 61.4515 80.6429 62.5511 67.3384 62.9233C56.4345 78.1819 42.961 88.5685 35.1846 93.8126C44.8713 88.1964 58.0067 75.8643 64.9548 68.2519C66.7975 66.222 69.4854 64.7502 72.3424 64.2089C76.4842 63.4138 97.3116 61.8406 104.175 60.335C104.496 60.2674 104.699 60.1828 104.834 60.0982V60.0813Z" fill="url(#paint16_linear_82_8939)"/>
<defs>
<linearGradient id="paint0_linear_82_8939" x1="-2.90118" y1="29.3424" x2="97.3504" y2="71.7892" gradientUnits="userSpaceOnUse">
<stop stop-color="#FAE4FD"/>
<stop offset="0.2" stop-color="#F7CBFC"/>
<stop offset="0.3" stop-color="#F4BCFB"/>
<stop offset="0.4" stop-color="#F4B7FB"/>
<stop offset="0.6" stop-color="#F2B1FA"/>
<stop offset="1" stop-color="#F2AEFA"/>
</linearGradient>
<linearGradient id="paint1_linear_82_8939" x1="9.0839" y1="6.79402" x2="85.2584" y2="82.9186" gradientUnits="userSpaceOnUse">
<stop stop-color="#F86ADE"/>
<stop offset="0.4" stop-color="#DB54B8"/>
<stop offset="1" stop-color="#AB2F7A"/>
</linearGradient>
<linearGradient id="paint2_linear_82_8939" x1="27.5944" y1="7.16649" x2="95.2795" y2="35.4191" gradientUnits="userSpaceOnUse">
<stop stop-color="#F892EE"/>
<stop offset="0.4" stop-color="#F872E1"/>
<stop offset="0.6" stop-color="#F866DD"/>
<stop offset="0.7" stop-color="#F86ADD"/>
<stop offset="1" stop-color="#F875DF"/>
</linearGradient>
<linearGradient id="paint3_linear_82_8939" x1="13.5116" y1="6.84509" x2="20.6545" y2="36.7342" gradientUnits="userSpaceOnUse">
<stop stop-color="#F6C4EB"/>
<stop offset="0.3" stop-color="#F6C8F1"/>
<stop offset="0.7" stop-color="#F8D0FC"/>
<stop offset="1" stop-color="#FBE5FC"/>
</linearGradient>
<linearGradient id="paint4_linear_82_8939" x1="67.4569" y1="51.3518" x2="106.897" y2="47.7195" gradientUnits="userSpaceOnUse">
<stop stop-color="#FF8CE2"/>
<stop offset="0.2" stop-color="#FE77DC"/>
<stop offset="0.9" stop-color="#E446B5"/>
</linearGradient>
<linearGradient id="paint5_linear_82_8939" x1="23.1983" y1="43.5707" x2="54.2629" y2="85.8253" gradientUnits="userSpaceOnUse">
<stop stop-color="#EF8EE9"/>
<stop offset="1" stop-color="#EC50A3"/>
</linearGradient>
<linearGradient id="paint6_linear_82_8939" x1="5.06055" y1="26.7545" x2="27.6044" y2="87.7962" gradientUnits="userSpaceOnUse">
<stop stop-color="#EBA2EA"/>
<stop offset="0.5" stop-color="#F2A6FA"/>
<stop offset="1" stop-color="#EF85C6"/>
</linearGradient>
<linearGradient id="paint7_linear_82_8939" x1="38.2966" y1="88.2635" x2="101.827" y2="56.0545" gradientUnits="userSpaceOnUse">
<stop stop-color="#BD3583"/>
<stop offset="1" stop-color="#BD328B"/>
</linearGradient>
<linearGradient id="paint8_linear_82_8939" x1="19.6313" y1="31.4243" x2="70.1544" y2="52.8166" gradientUnits="userSpaceOnUse">
<stop stop-color="#FAE4FD"/>
<stop offset="0.2" stop-color="#F7CBFC"/>
<stop offset="0.4" stop-color="#F4BCFB"/>
<stop offset="0.5" stop-color="#F4B7FB"/>
<stop offset="1" stop-color="#EF96E5"/>
</linearGradient>
<linearGradient id="paint9_linear_82_8939" x1="21.2204" y1="30.6132" x2="65.9812" y2="53.8661" gradientUnits="userSpaceOnUse">
<stop stop-color="#FBE9FD"/>
<stop offset="0.7" stop-color="#F3B1FA"/>
</linearGradient>
<linearGradient id="paint10_linear_82_8939" x1="18.076" y1="43.6542" x2="31.9383" y2="93.1469" gradientUnits="userSpaceOnUse">
<stop stop-color="#F6CBFC"/>
<stop offset="1" stop-color="#F08DD2"/>
</linearGradient>
<linearGradient id="paint11_linear_82_8939" x1="10.015" y1="10.8708" x2="23.4499" y2="30.5702" gradientUnits="userSpaceOnUse">
<stop offset="0.4" stop-color="#F3B3FA"/>
<stop offset="1" stop-color="#FAE6FC"/>
</linearGradient>
<linearGradient id="paint12_linear_82_8939" x1="4.41895" y1="43.3173" x2="19.9211" y2="43.3173" gradientUnits="userSpaceOnUse">
<stop stop-color="#F4B6FB"/>
<stop offset="1" stop-color="#F9D5FD"/>
</linearGradient>
<linearGradient id="paint13_linear_82_8939" x1="57.35" y1="49.3572" x2="69.8092" y2="49.3572" gradientUnits="userSpaceOnUse">
<stop stop-color="#F3B1FA"/>
<stop offset="1" stop-color="#F3B3F9"/>
</linearGradient>
<linearGradient id="paint14_linear_82_8939" x1="70.2294" y1="51.0994" x2="108.977" y2="47.5178" gradientUnits="userSpaceOnUse">
<stop stop-color="#F3B3F9"/>
<stop offset="1" stop-color="#E648B7"/>
</linearGradient>
<linearGradient id="paint15_linear_82_8939" x1="51.9051" y1="65.0203" x2="36.6786" y2="83.2633" gradientUnits="userSpaceOnUse">
<stop stop-color="#F09EEB"/>
<stop offset="0.6" stop-color="#EC59AD"/>
</linearGradient>
<linearGradient id="paint16_linear_82_8939" x1="73.4244" y1="82.208" x2="62.2904" y2="64.9768" gradientUnits="userSpaceOnUse">
<stop offset="0.3" stop-color="#BD3387"/>
<stop offset="0.8" stop-color="#F09CE9"/>
</linearGradient>
</defs>
</svg>
