<svg width="137" height="115" viewBox="0 0 137 115" fill="none" xmlns="http://www.w3.org/2000/svg">
<path d="M111.936 55.1813C125.718 50.4918 139.187 40.3312 134.171 25.2206C130.422 13.9311 115.009 13.6011 111.103 20.4443C111.19 17.8911 111.242 15.4074 111.242 13.0105C111.242 6.89681 92.1319 1.94678 68.5782 1.94678C45.0246 1.94678 25.9143 6.89681 25.9143 13.0105C25.9143 15.4942 25.9491 18.0821 26.0532 20.7222C22.4082 13.5837 6.63056 13.7748 2.82934 25.2033C-2.18687 40.3139 11.2649 50.4918 25.0639 55.164C30.7396 57.0919 29.1428 61.1214 26.1921 63.4661C23.7621 65.3941 17.9127 66.2277 20.6031 69.5278C25.1506 75.1031 35.7038 74.1304 36.9708 67.7214C37.4395 65.3419 37.4395 63.2577 36.8841 61.0519C41.1366 66.9051 46.9686 71.4904 55.0049 73.8699C61.2535 76.6836 61.6354 80.1573 61.6354 82.1894C61.6354 84.2215 57.1919 86.9484 55.4909 90.04C52.1931 90.7521 49.7804 91.7421 48.739 92.8711C47.767 93.7569 42.421 101.642 42.421 106.262C42.421 110.882 54.1197 113.036 68.5608 113.036C83.002 113.036 94.7007 110.014 94.7007 106.262C94.7007 102.511 89.3547 93.7569 88.3827 92.8711C87.3587 91.7421 84.946 90.7695 81.6308 90.04C79.9298 86.9658 75.4864 84.6384 75.4864 82.1894C75.4864 79.7405 75.8682 76.6662 82.1168 73.8699C90.0143 71.5251 95.7942 67.0614 100.012 61.3472C99.526 63.4488 99.5434 65.4462 99.9946 67.7214C101.262 74.1304 111.815 75.1031 116.362 69.5278C119.053 66.2277 113.203 65.3941 110.773 63.4661C107.84 61.1214 106.243 57.0919 111.902 55.164L111.936 55.1813ZM16.2291 31.977C18.2772 28.3643 25.897 27.6696 27.4071 35.5549C28.2576 40.9044 29.542 46.1844 31.4686 51.0824C26.0532 45.0381 11.9071 39.567 16.2291 31.9943V31.977ZM105.757 50.8045C107.788 45.5765 109.09 39.9144 109.923 34.1828C112.006 27.7564 118.827 28.5901 120.754 31.977C125.006 39.4455 111.346 44.8644 105.757 50.8045Z" fill="url(#paint0_linear_82_9022)"/>
<path d="M68.5605 114.616C61.4441 114.616 54.7443 113.887 49.676 112.584C43.8092 111.073 40.8411 108.954 40.8411 106.28C40.8411 101.052 46.3954 93.01 47.6104 91.7942C47.784 91.6031 47.975 91.4294 48.2006 91.2557L48.4783 91.0126H48.513C49.8148 90.092 51.8282 89.3105 54.5012 88.6852C55.3517 87.3999 56.5494 86.271 57.6082 85.2636C58.7017 84.2215 60.0729 82.9362 60.0729 82.2241C60.0729 80.8173 60.0729 77.9167 54.4665 75.3635C48.3394 73.5225 43.0976 70.3267 38.8277 65.8456C38.7757 66.5577 38.6715 67.2872 38.5153 68.034C37.9078 71.1256 35.4257 73.5051 31.9022 74.3735C27.3373 75.5198 22.1996 73.9219 19.4051 70.5177C18.5199 69.4408 18.1901 68.3466 18.4331 67.2872C18.867 65.394 20.8631 64.4561 22.8071 63.5529C23.7097 63.1187 24.6643 62.6845 25.2371 62.2329C26.6257 61.1213 27.4588 59.7318 27.2852 58.7592C27.0943 57.6476 25.4974 56.9529 24.5601 56.6402C16.6106 53.9481 9.92809 49.8491 5.72766 45.1249C0.416375 39.1501 -1.09371 32.0811 1.35365 24.6995C3.67951 17.6652 9.96279 14.7473 15.0658 14.3652C18.6587 14.0873 21.9739 14.921 24.3866 16.5884C24.3692 15.4247 24.3519 14.2436 24.3519 12.9931C24.3519 9.15466 28.9515 6.01095 38.0119 3.6662C46.1871 1.54724 57.0527 0.383545 68.5779 0.383545C80.103 0.383545 90.9512 1.54724 99.1438 3.6662C108.204 6.01095 112.804 9.15466 112.804 12.9931C112.804 16.8315 112.804 15.3552 112.769 16.4842C115.269 14.8168 118.688 14.0352 122.35 14.4C125.249 14.6952 127.974 15.6852 130.23 17.3005C132.765 19.1068 134.657 21.6774 135.646 24.6995C138.093 32.0811 136.583 39.1501 131.272 45.1249C127.071 49.8491 120.389 53.9308 112.439 56.6402C111.502 56.9529 109.923 57.6476 109.714 58.7592C109.541 59.7145 110.374 61.1213 111.762 62.2329C112.335 62.6845 113.273 63.1361 114.192 63.5529C116.136 64.4561 118.133 65.394 118.566 67.2872C118.809 68.3466 118.48 69.4235 117.594 70.5177C114.817 73.9393 109.68 75.5198 105.097 74.3735C101.574 73.4877 99.0917 71.1256 98.4842 68.034C98.3454 67.3219 98.2412 66.6445 98.1892 65.9672C93.9367 70.3788 88.7469 73.5225 82.6892 75.3462C77.0829 77.8993 77.0829 80.7999 77.0829 82.2067C77.0829 83.6136 78.4541 84.2041 79.5476 85.2462C80.6064 86.2536 81.804 87.3826 82.6545 88.6678C86.0218 89.4668 88.3303 90.5089 89.5279 91.7768C90.7429 92.9926 96.2972 101.034 96.2972 106.262C96.2972 111.49 93.3292 111.039 87.4625 112.567C82.3942 113.87 75.6943 114.599 68.5779 114.599L68.5605 114.616ZM49.5024 94.3647C48.1138 96.0842 43.9828 102.667 43.9828 106.28C43.9828 109.892 45.1804 108.173 50.4744 109.545C55.2823 110.795 61.7218 111.473 68.5779 111.473C75.4339 111.473 81.8561 110.778 86.6814 109.545C91.9753 108.173 93.1729 106.679 93.1729 106.28C93.1729 102.372 88.3303 94.9726 87.3583 94.0521L87.2542 93.9479C86.9765 93.6352 85.692 92.541 81.3354 91.6031L80.6411 91.4468L80.2939 90.8215C79.6691 89.6926 78.5062 88.5984 77.3953 87.5389C75.6249 85.8715 73.9586 84.2736 73.9586 82.2241C73.9586 80.1746 74.7397 75.5199 81.5089 72.4804L81.5957 72.4456L81.6999 72.4109C88.7122 70.3267 94.4574 66.2971 98.7967 60.4613L102.042 56.0671L104.316 50.2486C106.139 45.5765 107.51 40.088 108.395 33.9743V33.8354C108.413 33.8354 108.465 33.7138 108.465 33.7138C109.575 30.3269 111.988 28.1906 115.13 27.8779C117.976 27.5827 120.858 28.9548 122.142 31.2127C123.808 34.148 123.426 37.1701 120.979 40.1922C119.052 42.5891 116.05 44.7602 113.151 46.8444C110.756 48.5812 108.482 50.2139 106.92 51.8813L102.893 56.1539L101.574 61.7466C101.14 63.5703 101.14 65.3245 101.574 67.4435C102.112 70.153 104.768 71.0909 105.878 71.3688C108.69 72.0635 112.804 71.4903 115.199 68.5724C115.46 68.2424 115.529 68.0514 115.546 67.9993C115.338 67.565 113.689 66.7835 112.908 66.4187C111.832 65.915 110.721 65.394 109.853 64.6992C107.493 62.8061 106.295 60.3918 106.677 58.2555C106.92 56.8313 107.961 54.9034 111.467 53.705C118.914 51.1692 125.127 47.4002 128.963 43.0754C133.563 37.8996 134.813 32.0638 132.713 25.7069C131.185 21.1042 127.21 18.0473 122.073 17.5263C117.837 17.1094 113.984 18.5858 112.491 21.2258L109.332 26.749L109.575 20.3921C109.662 18.0473 109.697 15.6331 109.697 13.0105C109.697 10.3878 106.729 8.87676 98.3628 6.70569C90.4305 4.65621 79.86 3.50988 68.5779 3.50988C57.2957 3.50988 46.7426 4.63884 38.793 6.70569C30.4269 8.87676 27.4588 11.4647 27.4588 13.0105C27.4588 15.7373 27.5109 18.2384 27.5976 20.67L27.8754 27.7564L24.6469 21.4342C23.2757 18.7595 19.5092 17.1789 15.2741 17.4916C9.9628 17.891 5.86651 20.9653 4.28701 25.7069C2.1868 32.0638 3.43651 37.8996 8.03615 43.0754C11.8894 47.4002 18.1033 51.1865 25.5322 53.705C29.0383 54.9034 30.0797 56.8313 30.3227 58.2555C30.7046 60.4092 29.507 62.8234 27.1464 64.6992C26.2785 65.394 25.1676 65.915 24.0915 66.4187C23.2931 66.7835 21.6615 67.565 21.4532 67.9993C21.4532 68.0514 21.5227 68.2424 21.8004 68.5724C24.1957 71.5077 28.3093 72.0809 31.1211 71.3688C32.232 71.0909 34.8877 70.153 35.4257 67.4435C35.8597 65.2203 35.8423 63.3792 35.3563 61.4687L34.0198 56.2408L30.3227 52.1071C28.7606 50.3702 26.3827 48.6507 23.8832 46.827C20.9846 44.7254 17.9818 42.5544 16.0552 40.1749C13.6078 37.1527 13.2259 34.1306 14.8922 31.1953C16.2808 28.7637 19.353 27.4264 22.3732 27.9127C23.9874 28.1732 27.8407 29.4237 28.9689 35.2422V35.2943C29.8715 40.9738 31.2079 46.0802 32.9436 50.4918L35.1133 55.9629L38.1508 60.1661C42.5074 66.1756 48.3221 70.2919 55.4559 72.4109L55.56 72.4456L55.6468 72.4804C62.4161 75.5199 63.1972 79.4972 63.1972 82.2241C63.1972 84.951 61.5309 85.8541 59.7604 87.5389C58.6496 88.5984 57.4867 89.6926 56.8618 90.8215L56.5147 91.4468L55.8204 91.6031C51.4464 92.5584 50.1793 93.6352 49.9016 93.9479L49.5197 94.3647H49.5024ZM21.1234 30.9522C19.6481 30.9522 18.2248 31.6643 17.6 32.7585C15.465 36.5101 19.4224 39.758 25.7057 44.3086C26.5215 44.8991 27.3373 45.4896 28.1357 46.0975C27.2158 42.9191 26.4521 39.4801 25.8793 35.8327C25.3412 33.0711 23.9006 31.369 21.8525 31.0216C21.6095 30.9869 21.3664 30.9695 21.1234 30.9695V30.9522ZM111.45 34.5475C110.86 38.6291 110.044 42.4501 109.037 45.9586C109.784 45.4028 110.547 44.847 111.294 44.3086C117.577 39.758 121.535 36.4927 119.4 32.7585C118.723 31.5601 117.039 30.8132 115.425 30.9869C113.585 31.178 112.179 32.4459 111.45 34.5648V34.5475Z" fill="url(#paint1_linear_82_9022)"/>
<path d="M26.0352 20.7222C22.3902 13.5837 6.61255 13.7748 2.81134 25.2033C-0.989875 36.6318 11.2469 50.4919 25.0458 55.164C30.7216 57.0919 29.1248 61.1214 26.174 63.4662C23.744 65.3941 17.8947 66.2278 20.5851 69.5278C25.1326 75.1031 35.6858 74.1305 36.9529 67.7215C37.9769 62.5977 36.814 58.8461 32.44 52.2982C28.066 45.7503 11.6114 40.0534 16.2111 31.9596C18.2766 28.347 25.879 27.6522 27.389 35.5376C28.4478 41.0434 36.6925 32.2202 36.6925 32.2202L26.0179 20.7048L26.0352 20.7222Z" fill="url(#paint2_linear_82_9022)"/>
<path d="M27.4241 35.5549C27.8754 37.8823 29.5938 37.6565 31.451 36.6144L29.0384 35.3812C28.2573 21.1564 13.3996 17.839 9.44216 25.3595C5.46737 32.8801 9.12972 40.5223 16.5065 45.3507C22.9634 49.5887 29.9062 53.6182 31.9023 56.3277C35.5299 61.243 32.8916 67.6519 28.5697 69.0588C25.0983 70.1877 22.2691 69.9619 19.9432 67.8256C19.8912 68.3293 20.0821 68.9025 20.6201 69.5625C25.1677 75.1378 35.7209 74.1651 36.9879 67.7561C38.012 62.6324 36.8491 58.8808 32.4751 52.3329C28.1011 45.785 11.6465 40.0881 16.2461 31.9943C18.3116 28.3817 25.9141 27.6869 27.4241 35.5722V35.5549Z" fill="url(#paint3_linear_82_9022)" fill-opacity="0.6"/>
<path d="M88.4 92.8885C87.0114 93.8264 81.8737 96.1364 77.3435 98.1164V96.4664H58.4415V97.5085C54.2758 95.6848 49.9886 93.7222 48.7389 92.8711C47.7669 93.7569 42.4209 101.642 42.4209 106.262C42.4209 110.882 54.1196 113.036 68.5607 113.036C83.0019 113.036 94.7006 110.014 94.7006 106.262C94.7006 102.511 89.3546 93.7569 88.3826 92.8711L88.4 92.8885Z" fill="url(#paint4_linear_82_9022)"/>
<path d="M88.9547 94.1215C88.9547 97.0394 82.7409 100.53 68.5775 100.53C54.414 100.53 48.2002 97.0394 48.2002 94.1215C48.2002 91.2036 57.33 89.9878 68.5775 89.9878C79.8249 89.9878 88.9547 91.221 88.9547 94.1215Z" fill="white" fill-opacity="0.6"/>
<path d="M68.5609 99.4016C79.8149 99.4016 88.9382 97.0377 88.9382 94.1216C88.9382 91.2055 79.8149 88.8416 68.5609 88.8416C57.3068 88.8416 48.1836 91.2055 48.1836 94.1216C48.1836 97.0377 57.3068 99.4016 68.5609 99.4016Z" fill="url(#paint5_linear_82_9022)"/>
<path d="M68.56 70.4829C68.56 70.4829 48.8771 71.4903 53.7891 73.4008C61.1833 76.284 61.5998 80.0703 61.5998 82.224C61.5998 84.3777 54.8132 88.0772 54.8132 92.402C54.8132 96.7268 60.9576 95.9625 68.56 95.9625C76.1625 95.9625 82.3069 94.3646 82.3069 92.402C82.3069 88.0772 75.5203 85.2635 75.5203 82.224C75.5203 79.1845 75.9368 76.284 83.331 73.4008C88.2604 71.4903 68.56 70.4829 68.56 70.4829Z" fill="url(#paint6_linear_82_9022)"/>
<path d="M78.2282 76.3187C79.3737 75.3114 81.0053 74.3214 83.3312 73.4182C83.6609 73.2793 83.8866 73.1577 84.0081 73.0361C84.0775 72.8103 84.0081 72.6193 83.8172 72.4456C83.3832 72.185 82.5327 71.9592 81.4219 71.7508C74.0798 70.8998 53.8066 73.4182 53.8066 73.4182C56.0284 74.2866 57.6252 75.2245 58.7534 76.1972C64.0647 77.934 71.9622 78.2988 78.2282 76.3361V76.3187Z" fill="#FF8400" fill-opacity="0.7"/>
<path d="M24.6986 30.6223C25.9483 31.5949 26.955 33.1928 27.4063 35.5723C28.4651 41.0781 36.7097 32.2549 36.7097 32.2549L26.0351 20.7396C25.6879 20.0448 25.2019 19.4196 24.6465 18.8638C25.0631 22.2333 25.3755 26.9228 24.6986 30.6223Z" fill="#FF8400" fill-opacity="0.5"/>
<path d="M110.946 20.7222C114.591 13.5837 130.369 13.7748 134.17 25.2033C139.186 40.3139 125.735 50.4919 111.936 55.164C106.26 57.0919 107.857 61.1214 110.807 63.4662C113.237 65.3941 119.087 66.2278 116.396 69.5278C111.849 75.1031 101.296 74.1305 100.029 67.7215C98.7616 61.3125 100.168 58.8461 104.542 52.2982C108.916 45.7503 125.37 40.0534 120.77 31.9596C118.705 28.347 111.103 27.6522 109.592 35.5376C108.534 41.0434 100.289 32.2202 100.289 32.2202L110.964 20.7048L110.946 20.7222Z" fill="url(#paint7_linear_82_9022)"/>
<path d="M109.575 35.5549C109.124 37.8823 107.406 37.6565 105.548 36.6144L107.961 35.3812C108.742 21.1564 123.6 17.839 127.557 25.3595C131.532 32.8801 127.87 40.5223 120.493 45.3507C114.036 49.5887 107.093 53.6182 105.097 56.3277C101.47 61.243 104.108 67.6519 108.43 69.0588C111.901 70.1877 114.73 69.9619 117.056 67.8256C117.108 68.3293 116.917 68.9025 116.379 69.5625C111.832 75.1378 101.279 74.1651 100.012 67.7561C98.9875 62.6324 100.15 58.8808 104.524 52.3329C108.898 45.785 125.353 40.0881 120.753 31.9943C118.688 28.3817 111.085 27.6869 109.575 35.5722V35.5549Z" fill="url(#paint8_linear_82_9022)" fill-opacity="0.6"/>
<path d="M112.284 30.6223C111.034 31.5949 110.027 33.1928 109.576 35.5723C108.517 41.0781 100.272 32.2549 100.272 32.2549L110.947 20.7396C111.294 20.0448 111.78 19.4196 112.336 18.8638C111.919 22.2333 111.607 26.9228 112.284 30.6223Z" fill="#FF8400" fill-opacity="0.5"/>
<path d="M126.689 26.0543C124.277 21.4864 117.854 20.9132 113.012 24.3522C117.924 20.1664 125.005 20.5137 127.574 25.3596C131.306 32.4459 128.286 39.6365 121.76 44.4823C127.678 39.6539 130.265 32.7933 126.689 26.0369V26.0543Z" fill="white" fill-opacity="0.6"/>
<path d="M68.5603 13.0105H25.8965C25.8965 39.0112 30.0622 75.7283 68.5603 75.7283C107.058 75.7283 111.224 39.0112 111.224 13.0105H68.5603Z" fill="url(#paint9_linear_82_9022)"/>
<path d="M111.242 13.0104C111.242 19.1242 95.8807 25.3074 68.5779 25.3074C41.2751 25.3074 25.9141 19.1068 25.9141 13.0104C25.9141 6.91407 45.0243 3.71826 68.5779 3.71826C92.1316 3.71826 111.242 6.8967 111.242 13.0104Z" fill="white" fill-opacity="0.6"/>
<path d="M68.5603 24.0743C92.1229 24.0743 111.224 19.1209 111.224 13.0105C111.224 6.90019 92.1229 1.94678 68.5603 1.94678C44.9977 1.94678 25.8965 6.90019 25.8965 13.0105C25.8965 19.1209 44.9977 24.0743 68.5603 24.0743Z" fill="url(#paint10_linear_82_9022)"/>
<path d="M68.5609 17.3874C84.3875 17.3874 97.2176 14.9457 97.2176 11.9337C97.2176 8.92169 84.3875 6.47998 68.5609 6.47998C52.7343 6.47998 39.9043 8.92169 39.9043 11.9337C39.9043 14.9457 52.7343 17.3874 68.5609 17.3874Z" fill="url(#paint11_linear_82_9022)"/>
<path d="M58.8924 68.8157C57.7468 68.8157 56.7575 68.5378 55.9764 67.9646C52.991 65.8457 53.477 60.6351 54.501 55.2335C50.4915 51.4298 47.0548 47.4524 48.2525 44.0134C49.4328 40.6092 54.7614 39.5497 59.9512 39.0113C60.8711 37.0486 62.0688 34.6865 63.4573 32.8454C65.141 30.6223 66.8073 29.5454 68.5951 29.5454C72.2401 29.5454 74.9998 34.2523 77.2389 38.9939C80.2764 39.3065 82.4287 39.706 84.1644 40.2792C86.7854 41.1302 88.3302 42.346 88.9029 43.996C90.1006 47.435 86.6639 51.4124 82.6544 55.2161C83.6958 60.6177 84.1644 65.8283 81.179 67.9472C80.3806 68.503 79.4086 68.7983 78.263 68.7983C75.3817 68.7983 71.7888 67.0441 68.5777 65.2378C65.3666 67.0441 61.7737 68.7983 58.8924 68.7983V68.8157ZM58.0246 55.3377C57.5038 57.9256 56.4798 64.0741 57.9725 65.1335C58.1634 65.2725 58.4932 65.342 58.8924 65.342C61.3918 65.342 65.9047 62.7714 67.3974 61.9204L68.5603 61.2604L69.7233 61.9204C71.216 62.7714 75.7289 65.342 78.2283 65.342C80.7277 65.342 78.9573 65.2725 79.1482 65.1335C79.6515 64.7862 80.6409 63.1188 79.0962 55.3377L79.0441 55.0424L78.7663 54.0872L79.8078 53.1145C80.6236 52.3503 82.3246 50.7524 83.6784 49.085C85.7439 46.5492 85.6918 45.4897 85.5703 45.1597C84.9628 43.4229 78.7143 42.6413 76.0587 42.3981L74.8784 42.2939L74.3056 41.0607C73.8369 40.036 72.8649 37.9344 71.7194 36.1107C69.9663 33.3491 68.9248 33.0539 68.5603 33.0539C67.9355 33.0539 66.1304 33.8354 62.8151 41.0607L62.2423 42.2939L61.0447 42.4155C58.3891 42.676 52.1231 43.4402 51.5156 45.1771C50.9081 46.8966 55.3516 51.3082 57.2956 53.1319L58.337 54.1045L58.0593 55.0598L58.0072 55.3551L58.0246 55.3377Z" fill="url(#paint12_linear_82_9022)" fill-opacity="0.3"/>
<path d="M78.2463 67.9472C75.5386 67.9472 71.9283 66.1582 68.561 64.2651C64.0481 66.8182 59.1187 69.1456 56.4631 67.2698C53.8074 65.3767 54.4323 59.9924 55.439 54.9382C51.6725 51.395 47.9928 47.3655 49.0689 44.3086C50.1277 41.2865 55.4043 40.3312 60.5246 39.8275C62.6769 35.1554 65.3152 30.4312 68.5783 30.4312C71.8415 30.4312 74.4798 35.1554 76.632 39.8275C81.735 40.3312 87.0116 41.2691 88.0531 44.2912C89.1292 47.3655 85.4495 51.3776 81.683 54.9208C82.6723 59.975 83.3146 65.3593 80.6589 67.2525C79.982 67.7388 79.1662 67.9298 78.2463 67.9298V67.9472ZM68.561 62.2503L69.3073 62.6672C71.3381 63.8309 77.5173 67.3393 79.6522 65.8282C81.7698 64.3172 80.4159 57.4219 79.9646 55.1466L79.8952 54.8166L79.7563 54.3476L80.4159 53.7224C82.1169 52.1245 87.272 47.296 86.4215 44.847C85.571 42.3981 78.4893 41.7207 76.1634 41.5123L75.4865 41.4428L75.122 40.6612C74.15 38.5596 71.1993 32.1506 68.5783 32.1506C65.9574 32.1506 63.0067 38.5596 62.0347 40.6612L61.6702 41.4428L60.9586 41.5123C58.6327 41.7381 51.551 42.3981 50.7005 44.847C49.85 47.296 55.0051 52.1245 56.7061 53.7224L57.3656 54.3303L57.2268 54.7992L57.1573 55.1292C56.7061 57.4045 55.3348 64.2998 57.4698 65.8109C59.6047 67.3219 65.7839 63.7961 67.8146 62.6498L68.561 62.233V62.2503Z" fill="url(#paint13_linear_82_9022)" fill-opacity="0.3"/>
<path d="M68.5605 63.2577C70.8864 64.5777 77.4474 68.4682 80.1551 66.5577C82.8628 64.6472 81.2486 57.2482 80.7453 54.6429C82.6893 52.8192 88.3303 47.6955 87.2368 44.5865C86.178 41.547 78.8707 40.9217 76.0588 40.6438C74.948 38.2296 71.8931 31.2996 68.5779 31.2996C65.2627 31.2996 62.2078 38.2296 61.097 40.6438C58.3025 40.9044 50.943 41.5296 49.8843 44.5865C48.8081 47.6955 54.4492 52.8018 56.3758 54.6255C55.8725 57.2308 54.2583 64.6298 56.966 66.5403C59.6737 68.4509 66.2347 64.5603 68.5605 63.2403V63.2577Z" fill="url(#paint14_linear_82_9022)"/>
<path d="M10.3103 26.0543C12.723 21.4864 19.1451 20.9132 23.9877 24.3522C19.0757 20.1664 11.9939 20.5137 9.42508 25.3596C5.69329 32.4459 8.71343 39.6365 15.2397 44.4823C9.32093 39.6539 6.73474 32.7933 10.3103 26.0369V26.0543Z" fill="white" fill-opacity="0.6"/>
<path d="M29.4206 69.7361C33.7425 68.3293 36.3808 61.9203 32.7532 57.005C32.1283 56.1713 31.0348 55.1987 29.6115 54.1218C30.6009 54.9208 31.3819 55.6503 31.8679 56.3103C35.4956 61.2256 32.8573 67.6345 28.5354 69.0414C25.5326 70.014 23.0158 69.9793 20.8809 68.5551C23.1894 70.6219 25.9839 70.8304 29.4206 69.7188V69.7361Z" fill="white" fill-opacity="0.5"/>
<path d="M107.527 69.7361C103.205 68.3293 100.567 61.9203 104.194 57.005C104.819 56.1713 105.913 55.1987 107.336 54.1218C106.347 54.9208 105.566 55.6503 105.08 56.3103C101.452 61.2256 104.09 67.6345 108.412 69.0414C111.415 70.014 113.932 69.9793 116.067 68.5551C113.758 70.6219 110.964 70.8304 107.527 69.7188V69.7361Z" fill="white" fill-opacity="0.5"/>
<path d="M50.5613 45.646C51.6375 42.5196 59.1705 41.8944 62.017 41.6165C63.1626 39.1501 66.2695 32.0638 69.6542 32.0638C73.0388 32.0638 70.5394 32.1854 70.956 32.3938C70.1922 31.7164 69.3938 31.2996 68.5607 31.2996C65.2455 31.2996 62.1906 38.2296 61.0798 40.6438C58.2853 40.9044 50.9258 41.5296 49.867 44.5865C49.4331 45.8197 50.058 47.3655 51.0994 48.8939C50.4919 47.7302 50.2142 46.6012 50.544 45.646H50.5613Z" fill="white" fill-opacity="0.4"/>
<defs>
<linearGradient id="paint0_linear_82_9022" x1="1.7532" y1="57.4914" x2="135.247" y2="57.4914" gradientUnits="userSpaceOnUse">
<stop stop-color="#FFE162"/>
<stop offset="1" stop-color="#FFE162"/>
</linearGradient>
<linearGradient id="paint1_linear_82_9022" x1="68.4911" y1="114.616" x2="68.4911" y2="0.383545" gradientUnits="userSpaceOnUse">
<stop stop-color="#F57300"/>
<stop offset="0.4" stop-color="#FA8A00"/>
<stop offset="0.7" stop-color="#FD9900"/>
<stop offset="1" stop-color="#FF9E00"/>
</linearGradient>
<linearGradient id="paint2_linear_82_9022" x1="48.1135" y1="78.1252" x2="6.26382" y2="19.6366" gradientUnits="userSpaceOnUse">
<stop stop-color="#FFA102"/>
<stop offset="0.4" stop-color="#FFC218"/>
<stop offset="0.8" stop-color="#FFD725"/>
<stop offset="1" stop-color="#FFDF2A"/>
</linearGradient>
<linearGradient id="paint3_linear_82_9022" x1="22.5468" y1="21.4516" x2="22.5468" y2="73.2099" gradientUnits="userSpaceOnUse">
<stop stop-color="#FFA400"/>
<stop offset="0.5" stop-color="#FF9500"/>
<stop offset="1" stop-color="#FF8400"/>
</linearGradient>
<linearGradient id="paint4_linear_82_9022" x1="68.5608" y1="113.053" x2="68.5608" y2="92.8885" gradientUnits="userSpaceOnUse">
<stop stop-color="#FF9D00"/>
<stop offset="1" stop-color="#FFDF2A"/>
</linearGradient>
<linearGradient id="paint5_linear_82_9022" x1="48.1836" y1="94.1216" x2="88.9555" y2="94.1216" gradientUnits="userSpaceOnUse">
<stop stop-color="#FFE162"/>
<stop offset="1" stop-color="#FFE162"/>
</linearGradient>
<linearGradient id="paint6_linear_82_9022" x1="68.56" y1="95.9452" x2="68.56" y2="70.4829" gradientUnits="userSpaceOnUse">
<stop stop-color="#FFC800"/>
<stop offset="0.3" stop-color="#FFB900"/>
<stop offset="0.8" stop-color="#FF9300"/>
<stop offset="1" stop-color="#FF8400"/>
</linearGradient>
<linearGradient id="paint7_linear_82_9022" x1="88.8854" y1="78.1252" x2="130.735" y2="19.6366" gradientUnits="userSpaceOnUse">
<stop stop-color="#FFA102"/>
<stop offset="0.4" stop-color="#FFC218"/>
<stop offset="0.8" stop-color="#FFD725"/>
<stop offset="1" stop-color="#FFDF2A"/>
</linearGradient>
<linearGradient id="paint8_linear_82_9022" x1="114.453" y1="21.4516" x2="114.453" y2="73.2099" gradientUnits="userSpaceOnUse">
<stop stop-color="#FFA400"/>
<stop offset="0.5" stop-color="#FF9500"/>
<stop offset="1" stop-color="#FF8400"/>
</linearGradient>
<linearGradient id="paint9_linear_82_9022" x1="68.5603" y1="75.7283" x2="68.5603" y2="13.0105" gradientUnits="userSpaceOnUse">
<stop stop-color="#FFA102"/>
<stop offset="0.4" stop-color="#FFC218"/>
<stop offset="0.8" stop-color="#FFD725"/>
<stop offset="1" stop-color="#FFDF2A"/>
</linearGradient>
<linearGradient id="paint10_linear_82_9022" x1="25.8965" y1="13.0105" x2="111.242" y2="13.0105" gradientUnits="userSpaceOnUse">
<stop stop-color="#FFE162"/>
<stop offset="1" stop-color="#FFE162"/>
</linearGradient>
<linearGradient id="paint11_linear_82_9022" x1="68.5609" y1="17.3874" x2="68.5609" y2="6.47998" gradientUnits="userSpaceOnUse">
<stop stop-color="#FFA200"/>
<stop offset="1" stop-color="#FFB802"/>
</linearGradient>
<linearGradient id="paint12_linear_82_9022" x1="68.5603" y1="68.8157" x2="68.5603" y2="29.5628" gradientUnits="userSpaceOnUse">
<stop stop-color="#E84600"/>
<stop offset="1" stop-color="#FF8400"/>
</linearGradient>
<linearGradient id="paint13_linear_82_9022" x1="68.561" y1="67.9472" x2="68.561" y2="30.4312" gradientUnits="userSpaceOnUse">
<stop stop-color="#E84600"/>
<stop offset="1" stop-color="#FF8400"/>
</linearGradient>
<linearGradient id="paint14_linear_82_9022" x1="55.4679" y1="39.8845" x2="81.7153" y2="64.6432" gradientUnits="userSpaceOnUse">
<stop stop-color="#FFE365"/>
<stop offset="1" stop-color="#FFC510"/>
</linearGradient>
</defs>
</svg>
