<svg width="105" height="97" viewBox="0 0 105 97" fill="none" xmlns="http://www.w3.org/2000/svg">
<path d="M101.825 49.5885C104.828 31.7336 96.9996 18.5161 84.2942 14.834C75.199 12.194 68.7248 13.5661 62.2853 17.283C60.3934 18.3772 58.8833 18.6377 57.6857 18.3425C56.488 18.0472 55.273 17.1267 54.0927 15.2682C50.1006 8.99818 45.0149 4.77764 35.7289 2.90183C22.7631 0.279186 9.71052 8.37292 4.10416 25.5851C-1.5022 42.7974 8.32196 67.0786 22.8152 82.4497C30.3829 90.474 35.2776 92.9577 39.1309 93.9129C43.8 95.0593 48.4864 94.9203 58.9007 91.3077C78.8614 84.395 98.8047 67.4259 101.808 49.5885H101.825Z" fill="url(#paint0_linear_82_9113)"/>
<path d="M44.199 96.1187C42.2029 96.1187 40.4846 95.8581 38.7836 95.4413C35.2427 94.5729 30.0877 92.4365 21.7042 83.5265C14.2232 75.5891 8.09616 65.5327 4.46852 55.2331C0.511093 43.9957 -0.11376 33.5746 2.62867 25.1161C5.42317 16.536 10.1443 9.76228 16.2887 5.54173C22.1902 1.47749 29.2024 0.00116122 36.0585 1.39064C44.9627 3.19697 50.76 7.10491 55.4291 14.4518C56.2969 15.8065 57.1995 16.6229 58.0674 16.8486C58.9352 17.0571 60.1329 16.7618 61.5215 15.9455C69.0545 11.6034 76.0147 10.8218 84.7453 13.3402C91.4625 15.2855 96.9995 19.836 100.349 26.1755C103.838 32.7582 104.88 40.9562 103.387 49.8489C101.912 58.62 96.5308 67.5648 87.8175 75.6933C79.8332 83.1444 69.7661 89.2233 59.456 92.7839C52.409 95.2155 47.8614 96.1013 44.2164 96.1013L44.199 96.1187ZM30.9555 3.99593C19.9164 3.99593 10.0402 12.3676 5.57938 26.0714C3.04524 33.8698 3.6701 43.5962 7.38453 54.191C10.8733 64.0911 16.7574 73.748 23.9432 81.3728C31.7713 89.6749 36.371 91.6202 39.4952 92.3844C43.7477 93.4266 48.2085 93.3397 58.3798 89.8312C68.2907 86.4096 77.9587 80.5738 85.6305 73.4006C93.8404 65.7411 98.8914 57.4042 100.245 49.3105C102.953 33.2098 96.3399 19.9402 83.808 16.3102C75.8758 14.0176 69.8529 14.6776 63.0142 18.6202C60.8792 19.8534 58.9526 20.2529 57.2516 19.836C55.5679 19.4192 54.0405 18.1687 52.7214 16.0844C48.4862 9.43229 43.47 6.04542 35.3642 4.41277C33.8715 4.11751 32.3788 3.9612 30.9035 3.9612L30.9555 3.99593Z" fill="url(#paint1_linear_82_9113)"/>
<path d="M101.825 49.5882C104.828 31.7334 96.9996 18.5159 84.2942 14.8338C75.199 12.1937 68.7248 13.5659 62.2853 17.2827C60.3934 18.3769 58.8833 18.6375 57.6857 18.3422C56.488 18.047 55.273 17.1264 54.0927 15.268C50.1006 8.99794 45.0149 4.77739 35.7289 2.90159C22.7631 0.278942 9.71052 8.37268 4.10416 25.5849C-1.5022 42.7971 8.32196 67.0783 22.8152 82.4495C30.3829 90.4737 35.2776 92.9574 39.1309 93.9127C43.8 95.059 48.4864 94.9201 58.9007 91.3074C78.8614 84.3947 98.8047 67.4257 101.808 49.5882H101.825Z" fill="url(#paint2_linear_82_9113)"/>
<path d="M52.166 19.2628C48.3127 8.72005 34.1319 4.8295 26.4774 7.15689C18.8229 9.48427 10.3353 15.6501 9.01615 26.2796C7.07215 41.8766 18.3543 45.1245 28.7686 42.9534C39.1828 40.7824 57.7203 34.3734 52.1834 19.2628H52.166Z" fill="url(#paint3_linear_82_9113)" fill-opacity="0.5"/>
<path d="M96.1142 30.4307C92.261 19.888 78.0802 15.9975 70.4257 18.3249C62.7712 20.6349 54.2835 26.8181 52.9644 37.4476C51.0204 53.0446 62.3025 56.2925 72.7168 54.1214C83.1311 51.9504 101.669 45.5413 96.1316 30.4307H96.1142Z" fill="url(#paint4_linear_82_9113)" fill-opacity="0.5"/>
<path d="M58.9179 91.3248C78.8786 84.4121 98.822 67.4431 101.825 49.6056C103.248 41.1297 102.224 33.696 99.4121 27.8428C110.139 66.262 63.1878 89.8832 43.6436 87.0695C24.6376 84.3426 2.68078 62.4235 2.76757 31.8897C0.875641 48.355 10.0228 68.8846 22.8324 82.4668C30.4001 90.4911 35.2948 92.9748 39.1481 93.9301C43.8172 95.0764 48.5036 94.9374 58.9179 91.3248Z" fill="#AD0053" fill-opacity="0.3"/>
<path d="M32.1188 11.551C27.8837 11.03 21.8261 13.201 19.3093 16.2405C16.3412 19.8358 19.6217 22.8753 23.1452 20.739C25.1933 19.5058 27.849 18.0295 32.4833 17.2826C37.0309 16.5358 36.3713 12.0721 32.1188 11.551Z" fill="url(#paint5_linear_82_9113)" fill-opacity="0.4"/>
<path d="M77.7155 21.3469C73.4804 20.8259 67.4227 22.9969 64.9059 26.0364C61.9379 29.6317 65.2184 32.6712 68.7419 30.5349C70.79 29.3017 73.4456 27.8254 78.08 27.0785C82.6276 26.3317 81.968 21.868 77.7155 21.3469Z" fill="url(#paint6_linear_82_9113)" fill-opacity="0.4"/>
<defs>
<linearGradient id="paint0_linear_82_9113" x1="39.0834" y1="93.9523" x2="59.9927" y2="8.88063" gradientUnits="userSpaceOnUse">
<stop stop-color="#DB0045"/>
<stop offset="1" stop-color="#FF3D5D"/>
</linearGradient>
<linearGradient id="paint1_linear_82_9113" x1="38.7106" y1="95.4703" x2="60.3661" y2="7.36269" gradientUnits="userSpaceOnUse">
<stop stop-color="#A8004E"/>
<stop offset="0.4" stop-color="#BD004D"/>
<stop offset="0.7" stop-color="#CC004D"/>
<stop offset="1" stop-color="#D1004D"/>
</linearGradient>
<linearGradient id="paint2_linear_82_9113" x1="39.0834" y1="93.9521" x2="59.9927" y2="8.88038" gradientUnits="userSpaceOnUse">
<stop stop-color="#CF0040"/>
<stop offset="1" stop-color="#FF2471"/>
</linearGradient>
<linearGradient id="paint3_linear_82_9113" x1="34.8606" y1="42.7831" x2="25.0643" y2="4.80857" gradientUnits="userSpaceOnUse">
<stop stop-color="#F11D47" stop-opacity="0"/>
<stop offset="0.2" stop-color="#F2264D" stop-opacity="0"/>
<stop offset="0.4" stop-color="#F33657" stop-opacity="0.2"/>
<stop offset="0.5" stop-color="#F64C64" stop-opacity="0.4"/>
<stop offset="0.7" stop-color="#F86876" stop-opacity="0.6"/>
<stop offset="0.9" stop-color="#FC898B" stop-opacity="0.8"/>
<stop offset="1" stop-color="#FFA59D"/>
</linearGradient>
<linearGradient id="paint4_linear_82_9113" x1="76.5821" y1="53.6815" x2="72.1302" y2="14.7094" gradientUnits="userSpaceOnUse">
<stop stop-color="#F11D47" stop-opacity="0"/>
<stop offset="0.2" stop-color="#F2264D" stop-opacity="0"/>
<stop offset="0.4" stop-color="#F33657" stop-opacity="0.2"/>
<stop offset="0.5" stop-color="#F64C64" stop-opacity="0.4"/>
<stop offset="0.7" stop-color="#F86876" stop-opacity="0.6"/>
<stop offset="0.9" stop-color="#FC898B" stop-opacity="0.8"/>
<stop offset="1" stop-color="#FFA59D"/>
</linearGradient>
<linearGradient id="paint5_linear_82_9113" x1="28.9425" y1="22.9795" x2="25.3801" y2="12.2993" gradientUnits="userSpaceOnUse">
<stop stop-color="#F9EAD3" stop-opacity="0"/>
<stop offset="0.1" stop-color="#F9EAD3" stop-opacity="0"/>
<stop offset="0.3" stop-color="#F9EAD3" stop-opacity="0.2"/>
<stop offset="0.6" stop-color="#F9EAD3" stop-opacity="0.5"/>
<stop offset="0.9" stop-color="#F9EAD3" stop-opacity="0.9"/>
<stop offset="1" stop-color="#F9EAD3"/>
</linearGradient>
<linearGradient id="paint6_linear_82_9113" x1="74.4003" y1="32.0807" x2="70.8205" y2="21.8347" gradientUnits="userSpaceOnUse">
<stop stop-color="#F9EAD3" stop-opacity="0"/>
<stop offset="0.1" stop-color="#F9EAD3" stop-opacity="0"/>
<stop offset="0.3" stop-color="#F9EAD3" stop-opacity="0.2"/>
<stop offset="0.6" stop-color="#F9EAD3" stop-opacity="0.5"/>
<stop offset="0.9" stop-color="#F9EAD3" stop-opacity="0.9"/>
<stop offset="1" stop-color="#F9EAD3"/>
</linearGradient>
</defs>
</svg>
