<svg width="231" height="257" viewBox="0 0 231 257" fill="none" xmlns="http://www.w3.org/2000/svg">
<path d="M212.504 60.2377C207.824 52.067 201.16 47.3421 194.15 44.0455C192.687 43.3158 191.032 42.6043 189.14 41.9352C189.106 41.9251 189.037 41.9048 189.003 41.8947C185.686 40.6192 182.412 39.58 179.251 38.5368C159.598 32.0753 129.979 23.6115 113.592 20.874C104.164 19.3282 96.5127 21.6273 88.7464 30.013C69.862 50.3129 45.7058 83.9505 34.8682 102.889C32.7136 106.658 31.482 109.952 31.1975 112.817C29.7339 119.178 37.2256 130.715 42.8116 138.593C47.29 144.913 55.9157 147.79 58.7983 148.639C61.681 149.489 58.7983 148.639 58.8327 148.65C59.519 148.852 60.1953 149.088 60.9159 149.301C63.2152 149.978 65.1027 150.534 66.647 150.989C65.966 151.908 65.1961 152.875 64.3031 153.881C54.7987 165.002 43.5682 179.197 39.1727 185.888C38.3563 187.141 37.766 188.385 37.3776 189.577C37.1348 190.401 36.9809 191.176 36.9057 191.938C36.274 198.134 39.9834 204.153 42.0889 208.02C44.6785 212.776 50.2461 217.551 54.9133 218.926C59.5805 220.301 64.1654 220.942 68.0488 219.661C114.676 204.063 163.838 176.821 178.914 164.766C187.107 158.223 191.218 151.485 190.908 146.206C191.241 139.885 188.208 134.737 185.141 129.953C182.614 125.998 180.09 122.792 177.049 120.328C177.806 119.656 178.608 118.959 179.41 118.262C187.154 111.475 195.63 104.604 202.316 98.998C207.518 94.6337 212.269 90.0249 215.109 85.4499C221.339 76.8355 218.258 70.3298 212.494 60.272L212.504 60.2377Z" fill="url(#paint0_linear_1_3641)"/>
<path d="M54.0367 222.026C48.5459 220.409 42.3627 215.191 39.279 209.58C39.1096 209.269 38.9402 208.958 38.7465 208.603C36.4857 204.503 33.0429 198.339 33.7032 191.666C33.7805 190.644 33.9951 189.662 34.2885 188.666C34.7336 187.155 35.4836 185.622 36.4738 184.16C40.6107 177.84 51.3058 164.197 61.0486 152.773L59.9847 152.46C59.3327 152.267 58.6463 152.065 57.9015 151.809C57.9015 151.809 57.8671 151.798 57.8328 151.788C53.2343 150.434 44.8673 147.185 40.1165 140.523C30.4697 126.933 26.7236 118.254 27.9426 112.343C28.304 109.091 29.6267 105.487 32.0056 101.336C42.823 82.4667 67.2479 48.4231 86.3162 27.8788C94.5088 19.0589 103.071 15.9459 114.06 17.7648C130.207 20.4315 159.536 28.7357 180.209 35.5347L181.754 35.9897C184.424 36.9257 187.218 37.8233 190.064 38.923L190.202 38.9635C192.117 39.6771 193.91 40.429 195.51 41.1991C204.581 45.4761 210.855 51.019 215.268 58.7007C220.514 67.8594 225.484 76.5636 217.777 87.2806C215.107 91.5323 210.753 96.1837 204.374 101.507C202.384 103.198 200.226 104.951 197.96 106.821C192.877 111.033 187.157 115.767 181.874 120.406C183.906 122.498 185.875 125.056 187.888 128.224C191.351 133.685 194.465 139.193 194.146 146.227C194.421 152.764 189.758 160.236 180.927 167.3C164.773 180.231 114.415 207.606 69.0741 222.761C64.9787 224.13 60.341 223.921 54.0266 222.061L54.0367 222.026ZM59.7668 145.603L59.8355 145.623C60.5904 145.846 61.198 146.062 61.8157 146.244L72.0081 149.246L69.1953 152.971C68.4052 154.007 67.6253 155.009 66.7322 156.015C56.9107 167.452 45.9873 181.364 41.8504 187.685C41.228 188.658 40.7529 189.638 40.4454 190.555C40.2836 191.104 40.1561 191.664 40.1073 192.209L40.087 192.278C39.64 196.961 42.3708 201.87 44.3654 205.481C44.559 205.836 44.7285 206.148 44.9322 206.469C47.1345 210.514 52.0483 214.723 55.8576 215.845C59.6669 216.967 64.3063 217.55 67.0467 216.603C115.029 200.584 163.333 173.089 176.9 162.232C183.925 156.614 187.951 150.672 187.687 146.377L187.669 146.185L187.72 146.013C187.955 140.783 185.436 136.421 182.414 131.612C179.897 127.624 177.522 124.797 175.018 122.79L172.035 120.381L175.956 116.946C176.407 116.556 176.813 116.191 177.263 115.801C182.744 110.996 188.618 106.121 193.844 101.802C196.111 99.9314 198.234 98.1684 200.213 96.5123C206.063 91.5927 210.05 87.4301 212.331 83.7359L212.471 83.5157C217.373 76.7494 215.583 72.1915 209.639 61.8568C205.914 55.3853 200.552 50.6709 192.69 46.974L192.622 46.9538C191.227 46.2444 189.665 45.5976 187.979 44.9891L187.773 44.9284C185.098 43.8793 182.339 42.9917 179.717 42.1446L178.138 41.6796C157.726 34.8826 128.763 26.7239 112.98 24.0897C104.121 22.637 97.7619 24.9808 91.0321 32.2537C72.2467 52.4707 48.2097 85.9569 37.5863 104.548C35.6561 107.935 34.5458 110.818 34.3344 113.181L34.2737 113.387C34.308 113.397 34.2474 113.603 34.2474 113.603C33.636 116.185 35.0739 122.318 45.3521 136.804C49.068 142.041 56.4521 144.701 59.5407 145.611C59.5407 145.611 59.575 145.621 59.6093 145.631L59.6779 145.652L59.7668 145.603Z" fill="url(#paint1_linear_1_3641)"/>
<path d="M68.0825 219.67C114.71 204.072 163.872 176.83 178.947 164.776C187.141 158.233 191.252 151.494 190.942 146.216C191.275 139.895 188.241 134.747 185.175 129.962C182.648 126.008 180.124 122.801 177.083 120.338C177.84 119.665 178.642 118.969 179.444 118.272C187.187 111.484 195.663 104.614 202.35 99.0074C207.552 94.6431 212.303 90.0343 215.143 85.4594C221.373 76.8449 218.292 70.3392 212.527 60.2814C204.544 46.3605 190.797 42.3854 179.275 38.5805C179.275 38.5805 184.044 48.3452 190.205 59.0798C170.624 52.7518 143.148 44.9934 127.571 42.4198C118.143 40.8741 110.491 43.1731 102.725 51.5589C85.5757 70.0188 64.0348 99.4632 52.1166 118.904L31.2537 112.497C29.4024 118.781 37.0737 130.595 42.8009 138.627C47.2793 144.947 55.9049 147.824 58.7876 148.673C61.6703 149.522 58.7876 148.673 58.8219 148.683C59.5083 148.885 60.1845 149.122 60.9052 149.334C74.8039 153.429 73.2252 152.963 79.9172 154.935C86.6091 156.906 89.1152 162.832 78.3157 175.437C73.3029 181.312 67.7767 188.044 63.0626 194.045L37.4113 189.586C35.3577 196.557 39.7852 203.683 42.1328 207.995C44.7223 212.751 50.29 217.526 54.9572 218.901C59.6244 220.276 64.2092 220.917 68.0926 219.636L68.0825 219.67Z" fill="url(#paint2_linear_1_3641)"/>
<path d="M88.735 30.0472C69.8506 50.347 45.6944 83.9847 34.8568 102.923C27.4006 115.953 30.9235 123.111 46.9499 127.833C62.9762 132.554 59.2699 131.462 65.9618 133.433C72.6538 135.405 75.1598 141.33 64.3604 153.936C54.856 165.056 43.6255 179.251 39.23 185.943C31.6435 197.516 44.3657 207.123 59.3062 201.224C102.274 184.25 149.951 155.339 164.992 143.274C179.494 131.648 181.266 119.556 168.191 115.704C155.116 111.852 162.926 114.078 159.494 113.067C149.474 110.116 157.493 103.782 165.489 96.7703C173.232 89.9825 181.708 83.1121 188.395 77.5058C202.965 65.2653 214.01 50.9411 189.208 41.9552C171.274 35.4781 133.143 24.1333 113.66 20.8941C104.232 19.3483 96.5801 21.6473 88.8137 30.0331L88.735 30.0472Z" fill="url(#paint3_linear_1_3641)"/>
<path d="M186.733 74.0307C180.091 79.6127 171.571 86.5074 163.828 93.2952C156.139 100.024 147.997 108.673 157.579 112.354C150.573 109.17 158.019 103.265 165.465 96.7259C173.208 89.9381 181.684 83.0676 188.371 77.4613C202.942 65.2208 213.987 50.8966 189.184 41.9107C188.405 41.6439 187.567 41.3225 186.719 41.0354C210.49 49.9786 201.151 61.9315 186.778 74.0064L186.733 74.0307Z" fill="white" fill-opacity="0.3"/>
<path d="M171.372 116.94C178.724 121.606 175.632 129.951 163.332 139.8C148.291 151.864 100.614 180.775 57.6464 197.75C48.7806 201.258 40.6733 199.281 37.1488 194.66C38.7377 201.547 48.4065 205.44 59.2494 201.17C102.217 184.196 149.894 155.285 164.935 143.22C178.116 132.66 180.778 121.726 171.382 116.905L171.372 116.94Z" fill="white" fill-opacity="0.3"/>
<path d="M64.2904 129.993C57.5985 128.021 59.1771 128.486 45.2784 124.392C31.3798 120.298 30.6954 116.924 31.5352 110.528C29.4403 118.905 34.3111 124.147 46.9057 127.857C59.5003 131.567 59.2257 131.486 65.9177 133.458C72.6096 135.429 72.6125 137.445 71.3273 142.441C73.4961 135.205 69.1877 131.473 64.3146 130.037L64.2904 129.993Z" fill="white" fill-opacity="0.3"/>
<defs>
<linearGradient id="paint0_linear_1_3641" x1="144.578" y1="27.9868" x2="85.6619" y2="227.984" gradientUnits="userSpaceOnUse">
<stop stop-color="#2FDFFA"/>
<stop offset="1" stop-color="#109EFE"/>
</linearGradient>
<linearGradient id="paint1_linear_1_3641" x1="84.751" y1="231.074" x2="145.488" y2="24.8959" gradientUnits="userSpaceOnUse">
<stop stop-color="#0060B5"/>
<stop offset="1" stop-color="#058AFF"/>
</linearGradient>
<linearGradient id="paint2_linear_1_3641" x1="85.7643" y1="228.014" x2="144.59" y2="28.3255" gradientUnits="userSpaceOnUse">
<stop stop-color="#0073D9"/>
<stop offset="1" stop-color="#009DF2"/>
</linearGradient>
<linearGradient id="paint3_linear_1_3641" x1="135.037" y1="25.1762" x2="79.8532" y2="212.502" gradientUnits="userSpaceOnUse">
<stop stop-color="#2FDFFA"/>
<stop offset="1" stop-color="#109EFE"/>
</linearGradient>
</defs>
</svg>
