<svg width="192" height="171" viewBox="0 0 192 171" fill="none" xmlns="http://www.w3.org/2000/svg">
<path d="M2.89723 101.107C6.43024 86.0294 11.1409 71.465 12.7111 66.7815C12.8319 66.4491 12.9829 66.0865 13.1037 65.7541C13.3755 65.0894 13.6774 64.4246 14.07 63.8203L37.8649 29.7664C39.0728 27.7419 40.9147 26.1404 43.0889 25.2641L99.466 3.50827C101.097 2.84351 102.848 2.57158 104.599 2.69244L150.468 5.95583C150.921 5.98605 151.344 6.04648 151.797 6.13712C152.854 6.34864 153.91 6.74146 154.847 7.31557L185.285 25.4454C187.519 26.775 188.788 29.3131 188.455 31.9117C188.455 31.9419 188.455 31.9722 188.455 32.0326C179.578 73.3385 167.318 120.96 139.235 165.408C138.571 166.466 137.484 167.191 136.366 167.704C134.796 168.43 133.014 168.611 131.263 168.127C130.931 168.037 130.629 167.946 130.327 167.855C76.5166 152.898 35.3586 135.222 5.94708 110.293C4.61842 109.175 3.65216 107.725 3.13881 106.123C2.62547 104.552 2.53487 102.83 2.92741 101.138L2.89723 101.107Z" fill="url(#paint0_linear_1_3651)"/>
<path d="M133.228 171C134.678 171 136.127 170.698 137.456 170.094C139.237 169.278 140.596 168.16 141.442 166.8C169.011 123.137 181.573 76.483 190.994 32.5483L191.055 32.2159C191.508 28.5899 189.756 25.0546 186.586 23.151L156.148 5.02112C154.97 4.32614 153.671 3.81249 152.282 3.54054C151.678 3.41968 151.135 3.32901 150.622 3.2988L104.753 0.0354089C102.609 -0.115673 100.435 0.216722 98.472 1.03257L42.0647 22.8186C39.3772 23.9064 37.1125 25.8705 35.6027 28.3482L11.8078 62.4021L11.7474 62.4928C11.3548 63.1576 10.9924 63.8827 10.6301 64.7892L10.5697 64.9403C10.4489 65.2425 10.2979 65.5749 10.1771 65.9677C8.36534 71.4066 3.80566 85.6084 0.302856 100.535C-0.180298 102.65 -0.0897064 104.886 0.604828 106.941C1.29935 109.026 2.5374 110.869 4.22841 112.289C18.8134 124.648 36.3576 135.405 57.8878 145.195C77.8779 154.26 101.341 162.509 129.635 170.365C129.786 170.396 129.937 170.456 130.088 170.486C130.239 170.547 130.42 170.577 130.571 170.637C131.447 170.879 132.353 171 133.228 171ZM185.831 31.5512C176.5 74.9722 164.089 121.052 137.003 163.96C136.701 164.443 136.127 164.866 135.282 165.259C134.225 165.742 133.077 165.833 131.99 165.531C131.839 165.501 131.688 165.44 131.537 165.41C131.386 165.35 131.205 165.319 131.054 165.259C74.1034 149.425 34.878 131.296 7.67084 108.24C6.73474 107.455 6.04019 106.427 5.64764 105.249C5.25508 104.101 5.22488 102.892 5.49666 101.714C9.02966 86.5753 13.8611 71.7692 15.22 67.5994C15.2804 67.4181 15.3709 67.1763 15.4917 66.9346L15.5521 66.7533C15.7937 66.149 16.0353 65.6655 16.2769 65.2123L40.0718 31.1583L40.1322 31.0677C41.0381 29.5569 42.4271 28.3482 44.0577 27.6834L100.465 5.8974C101.703 5.38372 103.062 5.17222 104.391 5.26287L150.259 8.52626C150.531 8.52626 150.863 8.58669 151.225 8.67734C152.041 8.85864 152.796 9.13056 153.46 9.52338L183.898 27.6532C185.227 28.4389 185.982 29.9497 185.801 31.4907L185.831 31.5512Z" fill="url(#paint1_linear_1_3651)"/>
<path d="M66.1033 68.1739C47.321 68.8386 27.3309 67.63 13.1083 65.7566C13.3801 65.0918 13.682 64.4271 14.0746 63.8227L37.8695 29.7688C39.0774 27.7443 40.9193 26.1428 43.0935 25.2665L99.4706 3.51071C101.101 2.84595 102.853 2.57402 104.604 2.69489L150.473 5.95827C150.926 5.98849 151.348 6.04892 151.801 6.13957C147.966 15.1743 141.202 29.8595 133.683 39.982C113.27 53.0355 80.8997 64.971 66.1335 68.2041L66.1033 68.1739Z" fill="url(#paint2_linear_1_3651)"/>
<path d="M154.821 7.28785L185.259 25.4177C187.494 26.7472 188.762 29.2854 188.43 31.884C188.43 31.9142 188.43 31.9445 188.43 32.0049C185.622 39.3777 178.918 54.0327 164.454 73.2201C155.334 60.3177 133.653 39.982 133.653 39.982C141.172 29.8595 147.967 15.1744 151.771 6.13965C152.828 6.35116 153.885 6.74398 154.821 7.3181V7.28785Z" fill="url(#paint3_linear_1_3651)"/>
<path d="M70.8145 111.262C46.778 110.597 22.4093 108.573 3.11365 106.095C2.6003 104.524 2.50973 102.801 2.90228 101.109C6.43529 86.0311 11.146 71.4668 12.7162 66.7832C12.837 66.4508 12.988 66.0882 13.1087 65.7559C27.3313 67.6595 47.3215 68.8379 66.1038 68.1732C66.2246 68.1732 66.3454 68.1128 66.4359 68.0825L66.7379 68.4753C66.7379 68.4753 66.7379 94.25 70.8145 111.232V111.262Z" fill="url(#paint4_linear_1_3651)"/>
<path d="M131.267 168.07C130.935 167.979 130.633 167.888 130.331 167.798C116.863 158.944 91.2868 139.908 70.8134 111.232C89.3542 104.313 146.547 85.1254 164.453 73.1899C151.952 127.005 141.806 154.925 136.37 167.646C134.8 168.372 133.018 168.553 131.267 168.07Z" fill="url(#paint5_linear_1_3651)"/>
<path d="M139.206 165.378C138.542 166.436 137.455 167.161 136.338 167.675C141.743 154.984 151.919 127.064 164.42 73.2181C178.885 54.0307 185.588 39.3757 188.396 32.0029C179.519 73.3088 167.259 120.93 139.176 165.378H139.206Z" fill="url(#paint6_linear_1_3651)"/>
<path d="M130.328 167.827C76.5179 152.87 35.3599 135.194 5.94836 110.265C4.61971 109.147 3.65344 107.697 3.1401 106.095C22.4055 108.573 46.7742 110.597 70.8409 111.262C91.3142 139.907 116.891 158.974 130.358 167.827H130.328Z" fill="url(#paint7_linear_1_3651)"/>
<path d="M164.453 73.2195C142.47 87.9047 98.5037 104.282 70.8135 111.262C66.7369 94.2804 66.7369 68.5058 66.7369 68.5058L66.4349 68.1129C81.3521 64.7891 113.36 52.9141 133.653 39.9814C133.653 39.9814 155.334 60.3473 164.453 73.2195Z" fill="url(#paint8_linear_1_3651)"/>
<path d="M139.148 47.9601C136.431 45.4824 132.807 44.6061 128.912 45.845C116.32 49.8638 96.4805 59.6841 86.5761 62.1618C86.2439 62.2525 85.9722 62.2827 85.7306 62.3431C101.191 56.874 120.064 48.6853 133.653 40.0132C133.653 40.0132 155.334 60.3791 164.453 73.2513C143.406 87.3321 102.127 102.924 74.3766 110.357C133.713 91.2603 149.566 79.5061 155.183 74.8527C157.297 73.07 156.119 68.2958 155.183 66.6036C150.593 58.1128 143.014 51.4954 139.148 47.9903V47.9601Z" fill="url(#paint9_linear_1_3651)"/>
<path d="M152.133 80.4707C156.723 78.0232 160.89 75.6058 164.453 73.2188C152.525 124.556 142.742 152.325 137.155 165.802C163.759 84.1269 159.561 79.8059 152.133 80.5009V80.4707Z" fill="url(#paint10_linear_1_3651)"/>
<path d="M140.594 33.3641C139.024 37.2923 139.024 40.9182 142.164 44.514C145.305 48.14 155.511 58.8063 159.437 62.1302C163.362 65.4237 165.567 66.6929 169.009 62.9158C172.301 59.3201 179.578 48.4724 187.157 35.1167C183.775 43.1241 177.072 56.4495 164.419 73.2196C155.3 60.3172 133.619 39.9815 133.619 39.9815C140.322 30.9166 146.452 18.2559 150.408 9.22119C148.113 14.8112 142.436 28.6806 140.564 33.3943L140.594 33.3641Z" fill="url(#paint11_linear_1_3651)"/>
<path d="M155.542 108.876C158.35 98.5121 161.31 86.6673 164.45 73.221C173.358 61.4064 179.307 51.3443 183.232 43.6089C175.049 61.1042 166.111 70.5015 155.542 108.876Z" fill="url(#paint12_linear_1_3651)"/>
<path d="M66.431 68.1159C71.0511 67.0886 77.3017 65.2454 84.3074 62.7979C79.2343 64.913 74.886 67.1792 73.1044 68.5692C71.3228 69.9894 69.6318 72.1347 69.0883 80.7162C68.4843 90.0228 69.7828 99.6921 71.4436 103.348C73.1044 107.004 74.8558 109.12 87.1157 106.4C87.7196 106.279 88.2027 106.189 88.6255 106.128C82.2238 108.123 76.1845 109.875 70.7491 111.235C66.6725 94.2531 66.6725 68.4785 66.6725 68.4785L66.3706 68.0857L66.431 68.1159Z" fill="url(#paint13_linear_1_3651)"/>
<path d="M5.77095 106.188C16.8531 107.971 48.7709 109.149 58.313 108.907C63.5371 108.787 65.7414 108.545 66.5567 102.774C67.372 97.0022 65.7414 85.2178 64.8959 78.6004C64.0806 71.983 62.6614 71.1671 58.766 70.593C54.8706 69.9887 31.0757 68.5987 13.4107 65.8793L13.5617 65.8188C27.7541 67.6923 47.5329 68.8405 66.1038 68.1757C66.2246 68.1757 66.3454 68.1153 66.4359 68.0851L66.7379 68.4779C66.7379 68.4779 66.7379 94.2525 70.8145 111.234C46.9289 110.569 22.7716 108.575 3.53639 106.128C3.80816 105.976 4.5027 105.976 5.74076 106.158L5.77095 106.188Z" fill="url(#paint14_linear_1_3651)"/>
<path d="M110.129 98.9037C99.7713 102.983 89.0213 106.881 82.3177 109.902C79.1772 111.323 75.2516 112.41 78.2411 117.759C83.8879 127.881 104.361 148.247 118.886 159.729C104.965 149.305 86.4244 133.078 70.8128 111.232C82.0459 108.392 95.9967 104.01 110.068 98.813L110.129 98.9037Z" fill="url(#paint15_linear_1_3651)"/>
<path d="M3.86781 106.187C23.0427 108.635 47.0792 110.599 70.8439 111.263C90.3207 138.519 114.387 157.071 128.278 166.439C110.975 156.407 87.5124 134.379 75.1016 120.782C71.8102 117.156 67.0089 114.527 61.9057 113.56C54.5075 112.14 17.3053 109.33 5.04549 106.64C4.47175 106.519 4.10938 106.368 3.86781 106.217V106.187Z" fill="url(#paint16_linear_1_3651)"/>
<defs>
<linearGradient id="paint0_linear_1_3651" x1="196.306" y1="51.2805" x2="17.2351" y2="127.1" gradientUnits="userSpaceOnUse">
<stop stop-color="#FAE4FD"/>
<stop offset="0.2" stop-color="#F7CBFC"/>
<stop offset="0.3" stop-color="#F4BCFB"/>
<stop offset="0.4" stop-color="#F4B7FB"/>
<stop offset="0.6" stop-color="#F2B1FA"/>
<stop offset="1" stop-color="#F2AEFA"/>
</linearGradient>
<linearGradient id="paint1_linear_1_3651" x1="174.9" y1="11.004" x2="38.8351" y2="146.979" gradientUnits="userSpaceOnUse">
<stop stop-color="#F86ADE"/>
<stop offset="0.4" stop-color="#DB54B8"/>
<stop offset="1" stop-color="#AB2F7A"/>
</linearGradient>
<linearGradient id="paint2_linear_1_3651" x1="141.836" y1="11.6692" x2="20.9358" y2="62.1346" gradientUnits="userSpaceOnUse">
<stop stop-color="#F892EE"/>
<stop offset="0.4" stop-color="#F872E1"/>
<stop offset="0.6" stop-color="#F866DD"/>
<stop offset="0.7" stop-color="#F86ADD"/>
<stop offset="1" stop-color="#F875DF"/>
</linearGradient>
<linearGradient id="paint3_linear_1_3651" x1="166.99" y1="11.0951" x2="154.232" y2="64.4838" gradientUnits="userSpaceOnUse">
<stop stop-color="#F6C4EB"/>
<stop offset="0.3" stop-color="#F6C8F1"/>
<stop offset="0.7" stop-color="#F8D0FC"/>
<stop offset="1" stop-color="#FBE5FC"/>
</linearGradient>
<linearGradient id="paint4_linear_1_3651" x1="70.6333" y1="90.5938" x2="0.183801" y2="84.1057" gradientUnits="userSpaceOnUse">
<stop stop-color="#FF8CE2"/>
<stop offset="0.2" stop-color="#FE77DC"/>
<stop offset="0.9" stop-color="#E446B5"/>
</linearGradient>
<linearGradient id="paint5_linear_1_3651" x1="149.687" y1="76.695" x2="94.1987" y2="152.171" gradientUnits="userSpaceOnUse">
<stop stop-color="#EF8EE9"/>
<stop offset="1" stop-color="#EC50A3"/>
</linearGradient>
<linearGradient id="paint6_linear_1_3651" x1="182.085" y1="46.6579" x2="141.817" y2="155.692" gradientUnits="userSpaceOnUse">
<stop stop-color="#EBA2EA"/>
<stop offset="0.5" stop-color="#F2A6FA"/>
<stop offset="1" stop-color="#EF85C6"/>
</linearGradient>
<linearGradient id="paint7_linear_1_3651" x1="122.719" y1="156.526" x2="9.23952" y2="98.994" gradientUnits="userSpaceOnUse">
<stop stop-color="#BD3583"/>
<stop offset="1" stop-color="#BD328B"/>
</linearGradient>
<linearGradient id="paint8_linear_1_3651" x1="156.058" y1="54.999" x2="65.813" y2="93.2105" gradientUnits="userSpaceOnUse">
<stop stop-color="#FAE4FD"/>
<stop offset="0.2" stop-color="#F7CBFC"/>
<stop offset="0.4" stop-color="#F4BCFB"/>
<stop offset="0.5" stop-color="#F4B7FB"/>
<stop offset="1" stop-color="#EF96E5"/>
</linearGradient>
<linearGradient id="paint9_linear_1_3651" x1="153.22" y1="53.5501" x2="73.2672" y2="95.085" gradientUnits="userSpaceOnUse">
<stop stop-color="#FBE9FD"/>
<stop offset="0.7" stop-color="#F3B1FA"/>
</linearGradient>
<linearGradient id="paint10_linear_1_3651" x1="158.837" y1="76.8447" x2="134.075" y2="165.25" gradientUnits="userSpaceOnUse">
<stop stop-color="#F6CBFC"/>
<stop offset="1" stop-color="#F08DD2"/>
</linearGradient>
<linearGradient id="paint11_linear_1_3651" x1="173.237" y1="18.2861" x2="149.239" y2="53.4736" gradientUnits="userSpaceOnUse">
<stop offset="0.4" stop-color="#F3B3FA"/>
<stop offset="1" stop-color="#FAE6FC"/>
</linearGradient>
<linearGradient id="paint12_linear_1_3651" x1="183.232" y1="76.2426" x2="155.542" y2="76.2426" gradientUnits="userSpaceOnUse">
<stop stop-color="#F4B6FB"/>
<stop offset="1" stop-color="#F9D5FD"/>
</linearGradient>
<linearGradient id="paint13_linear_1_3651" x1="88.6859" y1="87.0314" x2="66.431" y2="87.0314" gradientUnits="userSpaceOnUse">
<stop stop-color="#F3B1FA"/>
<stop offset="1" stop-color="#F3B3F9"/>
</linearGradient>
<linearGradient id="paint14_linear_1_3651" x1="65.681" y1="90.1431" x2="-3.53039" y2="83.7455" gradientUnits="userSpaceOnUse">
<stop stop-color="#F3B3F9"/>
<stop offset="1" stop-color="#E648B7"/>
</linearGradient>
<linearGradient id="paint15_linear_1_3651" x1="98.4124" y1="115.009" x2="125.61" y2="147.595" gradientUnits="userSpaceOnUse">
<stop stop-color="#F09EEB"/>
<stop offset="0.6" stop-color="#EC59AD"/>
</linearGradient>
<linearGradient id="paint16_linear_1_3651" x1="59.9731" y1="145.71" x2="79.8609" y2="114.931" gradientUnits="userSpaceOnUse">
<stop offset="0.3" stop-color="#BD3387"/>
<stop offset="0.8" stop-color="#F09CE9"/>
</linearGradient>
</defs>
</svg>
