<svg width="24" height="23" viewBox="0 0 24 23" fill="none" xmlns="http://www.w3.org/2000/svg">
<path d="M14.3808 8.92781L13.3046 13.3691C13.0166 14.4604 12.6983 14.703 11.5615 14.4604C10.4398 14.2179 10.1821 13.9299 10.2579 12.7779L10.5156 8.33666C10.5914 7.10887 10.9097 6.8815 12.1072 7.04824L13.2288 7.23013C14.4263 7.42718 14.6688 7.7455 14.3808 8.92781ZM11.1522 18.6743C10.3034 18.6743 9.5 17.9771 9.5 17.007C9.5 16.0975 10.2276 15.3093 11.1371 15.3093C11.9859 15.3093 12.7893 16.0217 12.7893 16.9918C12.7893 17.8407 12.1223 18.6743 11.1522 18.6743Z" fill="white"/>
<path d="M5.58573 8.66003C7.1685 5.87492 8.3149 3.86168 9.35224 2.53416C10.3869 1.2101 11.1748 0.75 12 0.75C12.8252 0.75 13.6131 1.2101 14.6478 2.53416C15.6851 3.86168 16.8315 5.87492 18.4143 8.66004L19.4238 10.4364C21.0064 13.2213 22.1496 15.2368 22.7627 16.8137C23.3736 18.3846 23.3766 19.3185 22.9569 20.0571C22.5396 20.7914 21.7501 21.2522 20.1112 21.4993C18.463 21.7479 16.1758 21.75 13.0095 21.75H10.9905C7.8242 21.75 5.53704 21.7479 3.88883 21.4993C2.24994 21.2522 1.46039 20.7914 1.04308 20.0571C0.623358 19.3185 0.626434 18.3846 1.23725 16.8137C1.85043 15.2368 2.99359 13.2213 4.57625 10.4364L5.58573 8.66003Z" stroke="white" stroke-width="1.5"/>
</svg>
