<svg width="1920" height="2088" viewBox="0 0 1920 2088" fill="none" xmlns="http://www.w3.org/2000/svg">
<path d="M82.4845 1V2087M165.963 1V2087M249.441 1V2087M332.919 1V2087M416.398 1V2087M499.876 1V2087M584.348 1V2087M667.826 1V2087M751.304 1V2087M834.783 1V2087M918.261 1V2087M1001.74 1V2087M1085.22 1V2087M1168.7 1V2087M1252.17 1V2087M1335.65 1V2087M1419.13 1V2087M1502.61 1V2087M1586.09 1V2087M1669.57 1V2087M1753.04 1V2087M1836.52 1V2087M1920 84.5195L0 84.5195M1920 168.039L0 168.039M1920 251.559L0 251.559M1920 335.078L0 335.078M1920 418.598L0 418.598M1920 502.117L0 502.117M1920 584.643L0 584.642M1920 668.162L0 668.162M1920 751.682L0 751.682M1920 835.201L0 835.201M1920 918.721L0 918.721M1920 1002.24L0 1002.24M1920 1085.76L0 1085.76M1920 1169.28H0M1920 1252.8H0M1920 1336.32H0M1920 1419.84H0M1920 1503.36H0M1920 1585.88H0M1920 1669.4H0M1920 1752.92H0M1920 1836.44H0M1920 1919.96H0M1920 2003.48L0 2003.48" stroke="url(#paint0_linear_82_4)" stroke-linecap="round" stroke-linejoin="round"/>
<defs>
<linearGradient id="paint0_linear_82_4" x1="960" y1="1" x2="960" y2="2087" gradientUnits="userSpaceOnUse">
<stop stop-color="white" stop-opacity="0"/>
<stop offset="0.5" stop-color="white" stop-opacity="0.5"/>
<stop offset="1" stop-color="white" stop-opacity="0"/>
</linearGradient>
</defs>
</svg>
