<svg width="249" height="247" viewBox="0 0 249 247" fill="none" xmlns="http://www.w3.org/2000/svg">
<path d="M154.954 30.834C152.797 30.1214 150.658 29.5533 148.508 29.0905C147.752 28.8606 146.993 28.6658 146.269 28.4751C94.649 14.9833 41.6756 46.5848 27.9776 99.1048C18.6555 134.736 29.8329 170.788 54.0956 194.555C68.3045 210.29 88.1249 222.087 110.416 227.909C162.035 241.4 214.767 209.735 228.706 157.279C245.494 94.0538 207.055 47.8324 154.954 30.834Z" fill="url(#paint0_linear_82_1611)"/>
<path d="M123.304 233.565C118.709 233.033 114.15 232.184 109.597 230.98C86.9287 225.043 66.4042 212.88 51.7801 196.741C39.2975 184.515 30.1726 169.085 25.384 152.13C20.4419 134.659 20.2554 116.032 24.9084 98.2865C31.7512 72.0792 48.2375 50.0851 71.3099 36.2897C94.3823 22.4942 121.314 18.6446 147.126 25.373C147.815 25.5596 148.575 25.7544 149.365 25.9884C151.652 26.5026 153.896 27.0829 156.018 27.7914C183.628 36.7916 206.497 53.5664 220.406 74.9584C235.971 98.926 239.926 127.666 231.85 158.07C224.902 184.266 208.38 206.256 185.382 220.024C166.397 231.376 144.777 236.02 123.379 233.538L123.304 233.565ZM132.612 29.1328C112.546 26.8061 92.3123 31.1478 74.5123 41.7837C52.8951 54.6806 37.4526 75.3373 31.0116 99.9192C22.3251 133.134 32.012 168.551 56.2788 192.283L56.4028 192.439C70.2004 207.735 89.6634 219.241 111.195 224.869C115.405 225.962 119.613 226.77 123.787 227.254C169.215 232.521 213.283 202.911 225.594 156.527C242.366 93.4421 201.673 49.4852 153.956 33.9201C152.005 33.2671 149.933 32.7422 147.818 32.2834L147.607 32.259C146.821 31.99 146.096 31.7992 145.442 31.6166C141.196 30.5196 136.883 29.6993 132.604 29.203L132.612 29.1328Z" fill="url(#paint1_linear_82_1611)"/>
<path d="M228.706 157.279C214.767 209.736 162.035 241.401 110.415 227.909C58.7956 214.417 20.4425 168.989 34.1755 116.473C47.9085 63.9568 104.257 14.2837 154.988 30.8386C207.09 47.837 245.529 94.0583 228.741 157.283L228.706 157.279Z" fill="url(#paint2_linear_82_1611)"/>
<path d="M214.854 147.796C228.538 95.2951 197.774 41.8167 146.139 28.3481C94.5046 14.8796 41.5532 46.5212 27.8689 99.0217C14.1846 151.522 44.9494 205.001 96.5839 218.469C148.218 231.938 201.17 200.296 214.854 147.796Z" fill="url(#paint3_linear_82_1611)"/>
<path d="M186.47 142.146C195.71 106.698 174.958 70.5959 140.119 61.5085C105.281 52.4212 69.5493 73.7901 60.3099 109.237C51.0705 144.685 71.8225 180.787 106.661 189.874C141.499 198.962 177.231 177.593 186.47 142.146Z" fill="url(#paint4_linear_82_1611)"/>
<path d="M182.304 138.18C191.543 102.732 170.791 66.6298 135.953 57.5425C101.115 48.4551 65.3828 69.8241 56.1434 105.271C46.904 140.719 67.656 176.821 102.494 185.908C137.332 194.996 173.064 173.627 182.304 138.18Z" fill="url(#paint5_linear_82_1611)"/>
<path d="M184.441 139.862C193.68 104.415 172.928 68.3127 138.09 59.2253C103.252 50.138 67.52 71.5069 58.2806 106.954C49.0413 142.402 69.7932 178.504 104.631 187.591C139.47 196.679 175.202 175.31 184.441 139.862Z" fill="url(#paint6_linear_82_1611)"/>
<path d="M67.388 111.501C76.6506 76.0764 112.403 54.7155 147.216 63.8394C149.837 64.5346 152.368 65.3973 154.851 66.3612C149.765 63.3168 144.176 60.9256 138.17 59.3753C103.318 50.2825 67.57 71.6083 58.3424 107.037C49.7791 139.804 66.8898 173.129 97.0632 185.166C72.6583 170.596 59.7578 140.819 67.423 111.505L67.388 111.501Z" fill="url(#paint7_linear_82_1611)"/>
<path d="M171.58 124.437C171.547 123.188 171.12 121.964 170.44 120.783C170.444 120.748 170.452 120.677 170.386 120.634C170.293 120.517 170.235 120.403 170.142 120.286C169.96 120.016 169.778 119.746 169.561 119.471C169.561 119.471 169.561 119.471 169.53 119.432C169.282 119.119 169.002 118.766 168.719 118.449C164.077 113.108 156.238 108.357 151.043 105.94C150.37 105.613 149.58 105.379 148.715 105.172C148.185 100.237 147.173 91.7956 144.68 85.7078C144.653 85.6335 144.665 85.5282 144.607 85.4148C141.467 77.5445 137.174 75.019 132.666 74.0338C130.134 73.4912 126.071 80.6329 122.943 87.0649C119.412 90.5331 116.356 94.1986 114.588 96.2702C107.988 94.9357 90.6704 91.2913 85.9112 97.9965C81.1006 104.838 90.1344 121.36 93.2259 127.197C92.9112 127.766 92.5451 128.47 92.1708 129.245L78.0393 146.567C78.1416 151.204 79.5164 155.597 89.1157 159.271C89.1858 159.279 89.256 159.287 89.2911 159.291C89.5326 159.355 89.774 159.419 90.0155 159.482C90.0155 159.482 90.0155 159.482 90.0506 159.486C97.3261 161.433 109.654 158.131 114.668 156.898C114.889 157.137 115.137 157.45 115.389 157.729L113.553 157.622C116.839 161.774 125.569 170.186 133.224 172.852C133.43 172.912 133.636 172.971 133.843 173.031C135.591 173.589 137.248 173.71 138.733 173.171C146.378 170.393 148.293 151.121 149.075 144.381C154.908 141.287 171.684 132.738 171.553 124.363L171.58 124.437Z" fill="url(#paint8_linear_82_1611)"/>
<path d="M108.517 152.307C112.857 157.186 124.971 171.362 132.617 168.584C140.262 165.806 142.177 146.534 142.959 139.794C148.792 136.7 165.568 128.151 165.437 119.776C165.321 111.58 149.037 104.854 142.767 102.206C142.016 95.5017 140.287 76.3758 132.671 73.9985C125.05 71.6563 112.841 86.498 108.48 91.613C101.88 90.2785 84.5627 86.634 79.8035 93.3393C74.9929 100.181 84.0267 116.703 87.1182 122.54C83.9692 128.543 74.7102 145.541 79.4555 152.139C84.2008 158.736 102.222 153.854 108.521 152.272L108.517 152.307Z" fill="url(#paint9_linear_82_1611)"/>
<path d="M165.433 119.811C165.377 115.998 161.833 112.528 157.409 109.596C160.541 112.022 162.848 114.815 162.892 117.809C163.028 125.829 146.976 133.964 141.404 136.946C140.659 143.37 138.807 161.796 131.533 164.439C124.223 167.077 112.64 153.532 108.521 148.892C102.48 150.398 85.263 155.089 80.7348 148.765C77.9496 144.885 80.2132 137.321 83.0456 130.677C79.5893 138.103 76.1735 147.632 79.4467 152.209C84.192 158.807 102.214 153.924 108.512 152.342C112.852 157.221 124.966 171.397 132.612 168.619C140.258 165.842 142.172 146.569 142.954 139.829C148.788 136.735 165.563 128.186 165.433 119.811Z" fill="url(#paint10_linear_82_1611)"/>
<path d="M80.6021 96.563C85.3263 89.8536 102.679 93.5022 109.279 94.8367C113.675 89.7258 125.884 74.884 133.469 77.2222C136.97 78.304 139.21 82.9038 140.689 88.2336C139.247 81.663 136.852 75.3377 132.666 74.0341C125.045 71.6918 112.837 86.5336 108.475 91.6485C101.875 90.314 84.5578 86.6696 79.7986 93.3748C77.7566 96.2686 78.2138 100.911 79.614 105.698C78.8944 102.092 78.9923 98.7953 80.567 96.5589L80.6021 96.563Z" fill="url(#paint11_linear_82_1611)"/>
<path d="M59.2312 144.138C63.1089 159.137 63.2615 169.471 56.7893 173.168C49.8203 177.162 38.2915 175.719 28.7331 152.376C37.171 180.782 58.1535 204.631 86.9365 215.475C86.9015 215.471 86.8313 215.463 86.8003 215.424C54.5976 201.266 59.3875 186.631 62.1805 182.473C66.8157 175.611 78.9098 177.085 91.1918 182.457C75.7016 174.4 64.3818 160.423 59.2002 144.099L59.2312 144.138Z" fill="url(#paint12_linear_82_1611)"/>
<path d="M156.583 31.8059C188.61 45.943 183.808 60.683 181.015 64.8415C176.294 71.8357 163.776 70.0285 151.242 64.3773C166.978 72.463 178.492 86.6048 183.649 103.14C179.895 88.2973 180.004 77.8511 186.442 74.1508C193.563 70.0674 205.315 72.9598 214.967 97.9492C207.311 68.3175 186.081 43.2306 156.548 31.8019L156.583 31.8059Z" fill="url(#paint13_linear_82_1611)"/>
<path d="M201.258 67.4734C215.354 89.7053 220.494 117.729 213.262 145.456C199.529 197.972 146.59 229.578 94.9708 216.086C71.644 210.002 52.5727 195.731 39.9809 177.088C52.5706 196.975 72.2727 212.245 96.6356 218.591C148.255 232.083 201.229 200.482 214.927 147.962C222.461 119.167 216.588 90.0975 201.293 67.4775L201.258 67.4734Z" fill="url(#paint14_linear_82_1611)"/>
<path d="M29.913 102.033C43.646 49.517 96.5843 17.9114 148.204 31.4032C171.013 37.3564 189.716 51.1224 202.346 69.1289C189.742 49.6669 170.249 34.7421 146.233 28.471C94.6135 14.9792 41.6401 46.5807 27.9422 99.1007C20.2769 128.414 26.5093 158.059 42.4582 180.861C27.9541 158.475 22.5697 130.103 29.913 102.033Z" fill="url(#paint15_linear_82_1611)"/>
<defs>
<linearGradient id="paint0_linear_82_1611" x1="90.2212" y1="39.3718" x2="173.624" y2="227.885" gradientUnits="userSpaceOnUse">
<stop stop-color="#FFC510"/>
<stop offset="0.5" stop-color="#FFE162"/>
<stop offset="0.6" stop-color="#FFDC53"/>
<stop offset="0.8" stop-color="#FFCF2D"/>
<stop offset="1" stop-color="#FFC510"/>
</linearGradient>
<linearGradient id="paint1_linear_82_1611" x1="61.9472" y1="42.5323" x2="196.513" y2="212.284" gradientUnits="userSpaceOnUse">
<stop stop-color="#FFA100"/>
<stop offset="0.3" stop-color="#F18100"/>
<stop offset="0.5" stop-color="#E66800"/>
<stop offset="0.8" stop-color="#E05A00"/>
<stop offset="1" stop-color="#DE5500"/>
</linearGradient>
<linearGradient id="paint2_linear_82_1611" x1="207.84" y1="35.5441" x2="78.82" y2="204.225" gradientUnits="userSpaceOnUse">
<stop stop-color="#EE6C00"/>
<stop offset="0.5" stop-color="#FFA400"/>
<stop offset="0.7" stop-color="#FA9500"/>
<stop offset="1" stop-color="#EE6C00"/>
</linearGradient>
<linearGradient id="paint3_linear_82_1611" x1="84.8461" y1="41.035" x2="162.632" y2="216.912" gradientUnits="userSpaceOnUse">
<stop stop-color="#FFC510"/>
<stop offset="0.5" stop-color="#FFE162"/>
<stop offset="0.6" stop-color="#FFDC53"/>
<stop offset="0.8" stop-color="#FFCF2D"/>
<stop offset="1" stop-color="#FFC510"/>
</linearGradient>
<linearGradient id="paint4_linear_82_1611" x1="96.0858" y1="67.2756" x2="151.185" y2="185.612" gradientUnits="userSpaceOnUse">
<stop stop-color="#FFDF5C"/>
<stop offset="1" stop-color="#FFE781"/>
</linearGradient>
<linearGradient id="paint5_linear_82_1611" x1="91.9363" y1="63.3518" x2="147.039" y2="181.653" gradientUnits="userSpaceOnUse">
<stop stop-color="#FFDF5C"/>
<stop offset="1" stop-color="#FFE781"/>
</linearGradient>
<linearGradient id="paint6_linear_82_1611" x1="182.035" y1="229.642" x2="88.1554" y2="65.9286" gradientUnits="userSpaceOnUse">
<stop stop-color="#FFA200"/>
<stop offset="0.9" stop-color="#FFB802"/>
</linearGradient>
<linearGradient id="paint7_linear_82_1611" x1="64.0414" y1="171.02" x2="130.736" y2="40.6061" gradientUnits="userSpaceOnUse">
<stop stop-color="#EE6C00"/>
<stop offset="0.5" stop-color="#F87E00"/>
<stop offset="0.9" stop-color="#F06F00"/>
<stop offset="1" stop-color="#EE6C00"/>
</linearGradient>
<linearGradient id="paint8_linear_82_1611" x1="90.943" y1="169.266" x2="157.545" y2="69.3707" gradientUnits="userSpaceOnUse">
<stop stop-color="#E36600"/>
<stop offset="0.5" stop-color="#E87800"/>
<stop offset="0.9" stop-color="#E46900"/>
<stop offset="1" stop-color="#E36600"/>
</linearGradient>
<linearGradient id="paint9_linear_82_1611" x1="94.9442" y1="86.6283" x2="138.872" y2="164.082" gradientUnits="userSpaceOnUse">
<stop stop-color="#FFC510"/>
<stop offset="0.1" stop-color="#FFD031"/>
<stop offset="0.2" stop-color="#FFDA4D"/>
<stop offset="0.3" stop-color="#FFE05E"/>
<stop offset="0.4" stop-color="#FFE365"/>
<stop offset="1" stop-color="#FFC510"/>
</linearGradient>
<linearGradient id="paint10_linear_82_1611" x1="94.9435" y1="86.6285" x2="138.871" y2="164.083" gradientUnits="userSpaceOnUse">
<stop stop-color="#FFC510"/>
<stop offset="1" stop-color="#FEE36D"/>
</linearGradient>
<linearGradient id="paint11_linear_82_1611" x1="102.062" y1="80.7307" x2="114.593" y2="102.772" gradientUnits="userSpaceOnUse">
<stop stop-color="#FFE992"/>
<stop offset="1" stop-color="#FEE67B"/>
</linearGradient>
<linearGradient id="paint12_linear_82_1611" x1="33.2736" y1="141.733" x2="88.6349" y2="207.911" gradientUnits="userSpaceOnUse">
<stop stop-color="#FFDE58"/>
<stop offset="0.5" stop-color="#FFEC9A"/>
<stop offset="0.6" stop-color="#FFE88B"/>
<stop offset="0.9" stop-color="#FFE065"/>
<stop offset="1" stop-color="#FFDD54"/>
</linearGradient>
<linearGradient id="paint13_linear_82_1611" x1="159.295" y1="41.8322" x2="203.231" y2="104.132" gradientUnits="userSpaceOnUse">
<stop stop-color="#FFDE58"/>
<stop offset="0.5" stop-color="#FFE884"/>
<stop offset="0.7" stop-color="#FFE475"/>
<stop offset="1" stop-color="#FFDD54"/>
</linearGradient>
<linearGradient id="paint14_linear_82_1611" x1="223.174" y1="96.7665" x2="70.2704" y2="221.349" gradientUnits="userSpaceOnUse">
<stop stop-color="#FFDE58"/>
<stop offset="0.5" stop-color="#FFE884"/>
<stop offset="0.7" stop-color="#FEE575"/>
<stop offset="1" stop-color="#FEE162"/>
</linearGradient>
<linearGradient id="paint15_linear_82_1611" x1="160.766" y1="35.2789" x2="15.9815" y2="149.388" gradientUnits="userSpaceOnUse">
<stop stop-color="#FFD031"/>
<stop offset="0.5" stop-color="#FFDC50"/>
<stop offset="1" stop-color="#FFDE59"/>
</linearGradient>
</defs>
</svg>
