<svg width="188" height="186" viewBox="0 0 188 186" fill="none" xmlns="http://www.w3.org/2000/svg">
<path d="M70.6054 22.6817C72.2351 22.1433 73.8506 21.714 75.4754 21.3644C76.0462 21.1907 76.62 21.0435 77.1674 20.8994C116.168 10.7059 156.191 34.5819 166.54 74.2623C173.583 101.183 165.138 128.422 146.807 146.378C136.072 158.266 121.097 167.179 104.255 171.578C65.2552 181.771 25.4146 157.847 14.8829 118.215C2.19913 70.4461 31.2409 35.5245 70.6054 22.6817Z" fill="url(#paint0_linear_82_1629)"/>
<path d="M94.5174 175.851C97.9893 175.449 101.434 174.808 104.874 173.898C122 169.412 137.507 160.223 148.556 148.03C157.987 138.792 164.881 127.134 168.499 114.324C172.233 101.125 172.374 87.0514 168.859 73.6441C163.689 53.8436 151.233 37.2264 133.801 26.8035C116.369 16.3806 96.0211 13.4721 76.5195 18.5556C75.9987 18.6966 75.4248 18.8438 74.8276 19.0206C73.0999 19.4091 71.4048 19.8475 69.8016 20.3828C48.9411 27.1828 31.6627 39.8566 21.1545 56.019C9.39462 74.1272 6.40627 95.8412 12.508 118.813C17.7575 138.604 30.2399 155.218 47.6157 165.621C61.9596 174.198 78.2942 177.706 94.4613 175.831L94.5174 175.851ZM87.4854 21.3963C102.645 19.6384 117.933 22.9186 131.381 30.9544C147.714 40.6985 159.381 56.3052 164.247 74.8776C170.81 99.9726 163.492 126.731 145.157 144.661L145.064 144.779C134.639 156.336 119.934 165.029 103.667 169.281C100.486 170.106 97.3063 170.717 94.1524 171.083C59.8305 175.063 26.5357 152.691 17.2344 117.646C4.56289 69.9839 35.3072 36.7732 71.3592 25.0133C72.833 24.5198 74.3986 24.1233 75.9968 23.7767L76.1559 23.7583C76.7501 23.555 77.2974 23.4109 77.7917 23.2729C80.9994 22.444 84.2581 21.8243 87.4915 21.4493L87.4854 21.3963Z" fill="url(#paint1_linear_82_1629)"/>
<path d="M14.8837 118.215C25.4154 157.847 65.256 181.771 104.256 171.578C143.256 161.384 172.233 127.062 161.858 87.3842C151.482 47.7068 108.909 10.1772 70.5797 22.685C31.2152 35.5278 2.17345 70.4494 14.8573 118.218L14.8837 118.215Z" fill="url(#paint2_linear_82_1629)"/>
<path d="M25.349 111.05C15.01 71.384 38.2538 30.9794 77.2652 20.8035C116.277 10.6276 156.283 34.5338 166.622 74.1995C176.961 113.865 153.717 154.27 114.706 164.446C75.6942 174.622 35.6879 150.716 25.349 111.05Z" fill="url(#paint3_linear_82_1629)"/>
<path d="M46.7939 106.781C39.8133 79.9993 55.492 52.7228 81.8134 45.857C108.135 38.9913 135.131 55.1362 142.112 81.9177C149.093 108.699 133.414 135.976 107.092 142.841C80.7711 149.707 53.7745 133.562 46.7939 106.781Z" fill="url(#paint4_linear_82_1629)"/>
<path d="M49.9418 103.784C42.9612 77.003 58.64 49.7265 84.9613 42.8607C111.283 35.9949 138.279 52.1398 145.26 78.9214C152.241 105.703 136.562 132.979 110.24 139.845C83.919 146.711 56.9225 130.566 49.9418 103.784Z" fill="url(#paint5_linear_82_1629)"/>
<path d="M48.3271 105.056C41.3465 78.2744 57.0252 50.998 83.3466 44.1322C109.668 37.2664 136.665 53.4113 143.645 80.1928C150.626 106.974 134.947 134.251 108.626 141.117C82.3043 147.982 55.3077 131.837 48.3271 105.056Z" fill="url(#paint6_linear_82_1629)"/>
<path d="M136.764 83.6283C129.766 56.8636 102.754 40.7248 76.4516 47.6182C74.4712 48.1435 72.5592 48.7952 70.6829 49.5235C74.5257 47.2233 78.7481 45.4167 83.2858 44.2455C109.618 37.3755 136.627 53.4878 143.598 80.2556C150.068 105.012 137.141 130.19 114.344 139.284C132.782 128.276 142.529 105.779 136.738 83.6314L136.764 83.6283Z" fill="url(#paint7_linear_82_1629)"/>
<path d="M58.0439 93.4015C58.0688 92.4579 58.3914 91.5335 58.9056 90.6407C58.9025 90.6142 58.8964 90.5612 58.9463 90.5285C59.0166 90.4397 59.0604 90.354 59.1307 90.2652C59.2682 90.0611 59.4057 89.857 59.5697 89.6499C59.5697 89.6499 59.5696 89.6499 59.5931 89.6203C59.7805 89.3835 59.9914 89.1172 60.2053 88.8774C63.7126 84.8422 69.6353 81.2527 73.56 79.4268C74.0685 79.1797 74.6658 79.003 75.3191 78.8466C75.7194 75.118 76.484 68.74 78.3681 64.1405C78.3884 64.0844 78.3792 64.0048 78.423 63.9191C80.7955 57.9729 84.0391 56.0648 87.4446 55.3205C89.3578 54.9105 92.4277 60.3063 94.7908 65.1658C97.4583 67.7861 99.7671 70.5556 101.104 72.1207C106.09 71.1125 119.174 68.359 122.769 73.425C126.404 78.5941 119.579 91.0772 117.243 95.4871C117.481 95.9165 117.757 96.4488 118.04 97.0342L128.717 110.122C128.64 113.625 127.601 116.944 120.348 119.72C120.295 119.726 120.242 119.732 120.216 119.735C120.033 119.783 119.851 119.831 119.668 119.879C119.668 119.879 119.668 119.879 119.642 119.882C114.145 121.353 104.831 118.858 101.043 117.927C100.876 118.107 100.689 118.344 100.498 118.554L101.886 118.474C99.4021 121.611 92.8064 127.966 87.0234 129.981C86.8674 130.026 86.7115 130.071 86.5555 130.116C85.2346 130.538 83.9828 130.629 82.8612 130.222C77.0847 128.123 75.638 113.562 75.0476 108.47C70.6401 106.132 57.9654 99.673 58.0643 93.3454L58.0439 93.4015Z" fill="url(#paint8_linear_82_1629)"/>
<path d="M105.69 114.458C102.411 118.144 93.2582 128.854 87.4817 126.756C81.7053 124.657 80.2585 110.096 79.6681 105.004C75.2606 102.666 62.5859 96.2072 62.6848 89.8796C62.7726 83.6876 75.076 78.6056 79.813 76.6049C80.3807 71.5399 81.6865 57.0897 87.4411 55.2936C93.1987 53.524 102.423 64.7374 105.718 68.6019C110.704 67.5936 123.788 64.8401 127.384 69.9062C131.018 75.0752 124.193 87.5583 121.857 91.9683C124.236 96.5034 131.232 109.346 127.647 114.331C124.061 119.316 110.446 115.627 105.687 114.431L105.69 114.458Z" fill="url(#paint9_linear_82_1629)"/>
<path d="M62.6883 89.9063C62.7303 87.0255 65.4077 84.4036 68.75 82.1884C66.3841 84.0216 64.6412 86.132 64.608 88.3936C64.5048 94.453 76.6329 100.599 80.8426 102.853C81.4053 107.706 82.8047 121.627 88.3008 123.624C93.8233 125.618 102.575 115.384 105.687 111.878C110.251 113.016 123.259 116.56 126.68 111.782C128.784 108.851 127.074 103.136 124.934 98.1161C127.546 103.726 130.126 110.926 127.653 114.384C124.068 119.369 110.452 115.68 105.694 114.485C102.414 118.171 93.2617 128.881 87.4852 126.783C81.7088 124.684 80.262 110.123 79.6716 105.031C75.2641 102.693 62.5894 96.2339 62.6883 89.9063Z" fill="url(#paint10_linear_82_1629)"/>
<path d="M126.78 72.3419C123.211 67.2728 110.101 70.0294 105.115 71.0376C101.793 67.1762 92.5689 55.9628 86.8378 57.7293C84.1928 58.5467 82.5008 62.0219 81.383 66.0488C82.4727 61.0845 84.2821 56.3055 87.4448 55.3206C93.2025 53.551 102.426 64.7644 105.722 68.6289C110.708 67.6206 123.792 64.8671 127.388 69.9332C128.93 72.1195 128.585 75.6267 127.527 79.2434C128.071 76.5195 127.997 74.0285 126.807 72.3388L126.78 72.3419Z" fill="url(#paint11_linear_82_1629)"/>
<path d="M142.927 108.286C139.997 119.619 139.882 127.426 144.772 130.219C150.037 133.237 158.748 132.146 165.969 114.51C159.594 135.972 143.741 153.991 121.995 162.183C122.021 162.18 122.074 162.174 122.098 162.145C146.428 151.448 142.809 140.391 140.699 137.249C137.197 132.065 128.059 133.178 118.78 137.238C130.483 131.15 139.036 120.59 142.95 108.256L142.927 108.286Z" fill="url(#paint12_linear_82_1629)"/>
<path d="M69.3744 23.416C45.1767 34.0969 48.8049 45.2335 50.9151 48.3754C54.4824 53.6597 63.9399 52.2943 73.4098 48.0247C61.5209 54.1337 52.8218 64.8182 48.9253 77.3111C51.7614 66.0969 51.6788 58.2046 46.8153 55.4088C41.4348 52.3237 32.5559 54.509 25.2637 73.3893C31.048 51.0016 47.0879 32.0477 69.4009 23.4129L69.3744 23.416Z" fill="url(#paint13_linear_82_1629)"/>
<path d="M35.6208 50.3639C24.9713 67.1608 21.0875 88.3336 26.5519 109.282C36.9276 148.96 76.9241 172.839 115.924 162.645C133.548 158.048 147.957 147.266 157.471 133.181C147.959 148.207 133.073 159.743 114.667 164.538C75.6663 174.732 35.6433 150.856 25.2941 111.175C19.6019 89.4197 24.0387 67.457 35.5943 50.367L35.6208 50.3639Z" fill="url(#paint14_linear_82_1629)"/>
<path d="M165.078 76.4744C154.702 36.797 114.705 12.918 75.7051 23.1115C58.4724 27.6094 44.3415 38.01 34.7991 51.6144C44.3214 36.9103 59.0491 25.6342 77.1941 20.8962C116.194 10.7027 156.217 34.5786 166.567 74.259C172.358 96.4064 167.649 118.804 155.599 136.032C166.557 119.118 170.626 97.6824 165.078 76.4744Z" fill="url(#paint15_linear_82_1629)"/>
<defs>
<linearGradient id="paint0_linear_82_1629" x1="119.513" y1="29.1322" x2="56.4997" y2="171.56" gradientUnits="userSpaceOnUse">
<stop stop-color="#FFC510"/>
<stop offset="0.5" stop-color="#FFE162"/>
<stop offset="0.6" stop-color="#FFDC53"/>
<stop offset="0.8" stop-color="#FFCF2D"/>
<stop offset="1" stop-color="#FFC510"/>
</linearGradient>
<linearGradient id="paint1_linear_82_1629" x1="140.875" y1="31.52" x2="39.2062" y2="159.773" gradientUnits="userSpaceOnUse">
<stop stop-color="#FFA100"/>
<stop offset="0.3" stop-color="#F18100"/>
<stop offset="0.5" stop-color="#E66800"/>
<stop offset="0.8" stop-color="#E05A00"/>
<stop offset="1" stop-color="#DE5500"/>
</linearGradient>
<linearGradient id="paint2_linear_82_1629" x1="30.6486" y1="26.2402" x2="128.127" y2="153.684" gradientUnits="userSpaceOnUse">
<stop stop-color="#EE6C00"/>
<stop offset="0.5" stop-color="#FFA400"/>
<stop offset="0.7" stop-color="#FA9500"/>
<stop offset="1" stop-color="#EE6C00"/>
</linearGradient>
<linearGradient id="paint3_linear_82_1629" x1="123.574" y1="30.3888" x2="64.8041" y2="163.27" gradientUnits="userSpaceOnUse">
<stop stop-color="#FFC510"/>
<stop offset="0.5" stop-color="#FFE162"/>
<stop offset="0.6" stop-color="#FFDC53"/>
<stop offset="0.8" stop-color="#FFCF2D"/>
<stop offset="1" stop-color="#FFC510"/>
</linearGradient>
<linearGradient id="paint4_linear_82_1629" x1="115.082" y1="50.2142" x2="73.4532" y2="139.621" gradientUnits="userSpaceOnUse">
<stop stop-color="#FFDF5C"/>
<stop offset="1" stop-color="#FFE781"/>
</linearGradient>
<linearGradient id="paint5_linear_82_1629" x1="118.217" y1="47.2498" x2="76.5853" y2="136.63" gradientUnits="userSpaceOnUse">
<stop stop-color="#FFDF5C"/>
<stop offset="1" stop-color="#FFE781"/>
</linearGradient>
<linearGradient id="paint6_linear_82_1629" x1="50.145" y1="172.887" x2="121.074" y2="49.1967" gradientUnits="userSpaceOnUse">
<stop stop-color="#FFA200"/>
<stop offset="0.9" stop-color="#FFB802"/>
</linearGradient>
<linearGradient id="paint7_linear_82_1629" x1="139.293" y1="128.597" x2="88.9024" y2="30.0647" gradientUnits="userSpaceOnUse">
<stop stop-color="#EE6C00"/>
<stop offset="0.5" stop-color="#F87E00"/>
<stop offset="0.9" stop-color="#F06F00"/>
<stop offset="1" stop-color="#EE6C00"/>
</linearGradient>
<linearGradient id="paint8_linear_82_1629" x1="118.968" y1="127.271" x2="68.6476" y2="51.7973" gradientUnits="userSpaceOnUse">
<stop stop-color="#E36600"/>
<stop offset="0.5" stop-color="#E87800"/>
<stop offset="0.9" stop-color="#E46900"/>
<stop offset="1" stop-color="#E36600"/>
</linearGradient>
<linearGradient id="paint9_linear_82_1629" x1="115.945" y1="64.8358" x2="82.7556" y2="123.355" gradientUnits="userSpaceOnUse">
<stop stop-color="#FFC510"/>
<stop offset="0.1" stop-color="#FFD031"/>
<stop offset="0.2" stop-color="#FFDA4D"/>
<stop offset="0.3" stop-color="#FFE05E"/>
<stop offset="0.4" stop-color="#FFE365"/>
<stop offset="1" stop-color="#FFC510"/>
</linearGradient>
<linearGradient id="paint10_linear_82_1629" x1="115.945" y1="64.836" x2="82.756" y2="123.355" gradientUnits="userSpaceOnUse">
<stop stop-color="#FFC510"/>
<stop offset="1" stop-color="#FEE36D"/>
</linearGradient>
<linearGradient id="paint11_linear_82_1629" x1="110.567" y1="60.3801" x2="101.1" y2="77.0328" gradientUnits="userSpaceOnUse">
<stop stop-color="#FFE992"/>
<stop offset="1" stop-color="#FEE67B"/>
</linearGradient>
<linearGradient id="paint12_linear_82_1629" x1="162.539" y1="106.469" x2="120.712" y2="156.469" gradientUnits="userSpaceOnUse">
<stop stop-color="#FFDE58"/>
<stop offset="0.5" stop-color="#FFEC9A"/>
<stop offset="0.6" stop-color="#FFE88B"/>
<stop offset="0.9" stop-color="#FFE065"/>
<stop offset="1" stop-color="#FFDD54"/>
</linearGradient>
<linearGradient id="paint13_linear_82_1629" x1="67.3251" y1="30.9911" x2="34.1306" y2="78.0608" gradientUnits="userSpaceOnUse">
<stop stop-color="#FFDE58"/>
<stop offset="0.5" stop-color="#FFE884"/>
<stop offset="0.7" stop-color="#FFE475"/>
<stop offset="1" stop-color="#FFDD54"/>
</linearGradient>
<linearGradient id="paint14_linear_82_1629" x1="19.063" y1="72.4957" x2="134.586" y2="166.621" gradientUnits="userSpaceOnUse">
<stop stop-color="#FFDE58"/>
<stop offset="0.5" stop-color="#FFE884"/>
<stop offset="0.7" stop-color="#FEE575"/>
<stop offset="1" stop-color="#FEE162"/>
</linearGradient>
<linearGradient id="paint15_linear_82_1629" x1="66.214" y1="26.0397" x2="175.603" y2="112.253" gradientUnits="userSpaceOnUse">
<stop stop-color="#FFD031"/>
<stop offset="0.5" stop-color="#FFDC50"/>
<stop offset="1" stop-color="#FFDE59"/>
</linearGradient>
</defs>
</svg>
