<svg width="47" height="44" viewBox="0 0 47 44" fill="none" xmlns="http://www.w3.org/2000/svg">
<g filter="url(#filter0_i_35_66)">
<path d="M25.7932 1.79281C25.7932 0.295703 24.0108 -0.484284 22.9111 0.531585L1.40349 20.3995C0.667586 21.0793 0.667585 22.2422 1.40349 22.922L22.9111 42.7899C24.0108 43.8057 25.7932 43.0257 25.7932 41.5286L25.7932 37.1138C25.7932 36.1655 26.5619 35.3968 27.5102 35.3968L44.6802 35.3968C45.6285 35.3968 46.3972 34.628 46.3972 33.6798L46.3972 9.64175C46.3972 8.69348 45.6285 7.92475 44.6802 7.92475L27.5102 7.92475C26.5619 7.92475 25.7932 7.15602 25.7932 6.20775L25.7932 1.79281Z" fill="#404040"/>
</g>
<path d="M23.1664 0.807963C24.0251 0.0147084 25.4169 0.623774 25.4169 1.79281L25.4169 6.20775C25.4169 7.36383 26.3541 8.30101 27.5102 8.30101L44.6802 8.30101C45.4207 8.30101 46.021 8.90128 46.021 9.64175L46.021 33.6798C46.021 34.4202 45.4207 35.0205 44.6802 35.0205L27.5102 35.0205C26.3541 35.0205 25.4169 35.9577 25.4169 37.1138L25.4169 41.5286C25.4169 42.6977 24.0252 43.3067 23.1664 42.5135L1.6588 22.6456C1.08416 22.1148 1.08416 21.2067 1.6588 20.6759L23.1664 0.807963Z" stroke="black" stroke-width="0.752513"/>
<g filter="url(#filter1_i_35_66)">
<path fill-rule="evenodd" clip-rule="evenodd" d="M23.4937 1.1622L1.98603 21.0301C1.61807 21.3701 1.61808 21.9515 1.98603 22.2914L23.4937 42.1592C24.0435 42.6672 24.9347 42.2772 24.9347 41.5286L24.9347 37.1138C24.9347 35.6914 26.0878 34.5383 27.5102 34.5383L44.6802 34.5383C45.1543 34.5383 45.5387 34.1539 45.5387 33.6798L45.5387 9.64175C45.5387 9.16762 45.1543 8.78325 44.6802 8.78325L27.5102 8.78326C26.0878 8.78326 24.9347 7.63016 24.9347 6.20775L24.9347 1.79281C24.9347 1.04426 24.0435 0.654262 23.4937 1.1622ZM22.9111 0.531585C24.0108 -0.484284 25.7932 0.295703 25.7932 1.79281L25.7932 6.20775C25.7932 7.15602 26.5619 7.92475 27.5102 7.92475L44.6802 7.92475C45.6285 7.92475 46.3972 8.69348 46.3972 9.64175L46.3972 33.6798C46.3972 34.628 45.6285 35.3968 44.6802 35.3968L27.5102 35.3968C26.5619 35.3968 25.7932 36.1655 25.7932 37.1138L25.7932 41.5286C25.7932 43.0257 24.0108 43.8057 22.9111 42.7899L1.40349 22.922C0.667585 22.2422 0.667586 21.0793 1.40349 20.3995L22.9111 0.531585Z" fill="#404040"/>
</g>
<path d="M23.2383 0.885821L1.73072 20.7538C1.2015 21.2426 1.2015 22.0789 1.73072 22.5678L23.2383 42.4356C24.0292 43.1662 25.311 42.6053 25.311 41.5286L25.311 37.1138C25.311 35.8992 26.2956 34.9145 27.5102 34.9145L44.6802 34.9145C45.3622 34.9145 45.915 34.3617 45.915 33.6798L45.915 9.64175C45.915 8.95981 45.3621 8.407 44.6802 8.407L27.5102 8.407C26.2956 8.407 25.3109 7.42236 25.3109 6.20775L25.3109 1.79281C25.3109 0.716193 24.0292 0.155265 23.2383 0.885821ZM23.1664 0.807963C24.0251 0.0147084 25.4169 0.623774 25.4169 1.79281L25.4169 6.20775C25.4169 7.36383 26.3541 8.30101 27.5102 8.30101L44.6802 8.30101C45.4207 8.30101 46.021 8.90128 46.021 9.64175L46.021 33.6798C46.021 34.4202 45.4207 35.0205 44.6802 35.0205L27.5102 35.0205C26.3541 35.0205 25.4169 35.9577 25.4169 37.1138L25.4169 41.5286C25.4169 42.6977 24.0252 43.3067 23.1664 42.5135L1.6588 22.6456C1.08416 22.1148 1.08416 21.2068 1.6588 20.6759L23.1664 0.807963Z" stroke="black" stroke-width="0.752513"/>
<defs>
<filter id="filter0_i_35_66" x="0.851562" y="0.0725098" width="45.5459" height="46.1866" filterUnits="userSpaceOnUse" color-interpolation-filters="sRGB">
<feFlood flood-opacity="0" result="BackgroundImageFix"/>
<feBlend mode="normal" in="SourceGraphic" in2="BackgroundImageFix" result="shape"/>
<feColorMatrix in="SourceAlpha" type="matrix" values="0 0 0 0 0 0 0 0 0 0 0 0 0 0 0 0 0 0 127 0" result="hardAlpha"/>
<feOffset dy="3.01005"/>
<feGaussianBlur stdDeviation="1.50503"/>
<feComposite in2="hardAlpha" operator="arithmetic" k2="-1" k3="1"/>
<feColorMatrix type="matrix" values="0 0 0 0 0 0 0 0 0 0 0 0 0 0 0 0 0 0 1 0"/>
<feBlend mode="normal" in2="shape" result="effect1_innerShadow_35_66"/>
</filter>
<filter id="filter1_i_35_66" x="0.851562" y="0.0725098" width="45.5459" height="46.1866" filterUnits="userSpaceOnUse" color-interpolation-filters="sRGB">
<feFlood flood-opacity="0" result="BackgroundImageFix"/>
<feBlend mode="normal" in="SourceGraphic" in2="BackgroundImageFix" result="shape"/>
<feColorMatrix in="SourceAlpha" type="matrix" values="0 0 0 0 0 0 0 0 0 0 0 0 0 0 0 0 0 0 127 0" result="hardAlpha"/>
<feOffset dy="3.01005"/>
<feGaussianBlur stdDeviation="1.50503"/>
<feComposite in2="hardAlpha" operator="arithmetic" k2="-1" k3="1"/>
<feColorMatrix type="matrix" values="0 0 0 0 0 0 0 0 0 0 0 0 0 0 0 0 0 0 1 0"/>
<feBlend mode="normal" in2="shape" result="effect1_innerShadow_35_66"/>
</filter>
</defs>
</svg>
