<svg width="46" height="44" viewBox="0 0 46 44" fill="none" xmlns="http://www.w3.org/2000/svg">
<g filter="url(#filter0_i_35_65)">
<path d="M21.0213 41.5282C21.0213 43.0253 22.8036 43.8053 23.9033 42.7895L45.411 22.9215C46.1469 22.2417 46.1469 21.0789 45.411 20.3991L23.9033 0.531186C22.8036 -0.484678 21.0213 0.295308 21.0213 1.79242L21.0213 6.20726C21.0213 7.15554 20.2525 7.92426 19.3043 7.92426L2.13424 7.92426C1.18597 7.92426 0.41724 8.69299 0.41724 9.64127L0.417239 33.6793C0.417239 34.6276 1.18596 35.3963 2.13424 35.3963L19.3043 35.3963C20.2525 35.3963 21.0213 36.165 21.0213 37.1133L21.0213 41.5282Z" fill="#404040"/>
</g>
<path d="M23.648 42.5131C22.7893 43.3063 21.3975 42.6973 21.3975 41.5282L21.3975 37.1133C21.3975 35.9572 20.4603 35.02 19.3043 35.02L2.13424 35.02C1.39377 35.02 0.793494 34.4198 0.793494 33.6793L0.793495 9.64127C0.793495 8.90079 1.39377 8.30052 2.13424 8.30052L19.3043 8.30052C20.4603 8.30052 21.3975 7.36334 21.3975 6.20726L21.3975 1.79242C21.3975 0.623378 22.7893 0.0143147 23.648 0.807566L45.1557 20.6754C45.7303 21.2063 45.7303 22.1143 45.1557 22.6451L23.648 42.5131Z" stroke="black" stroke-width="0.752513"/>
<g filter="url(#filter1_i_35_65)">
<path fill-rule="evenodd" clip-rule="evenodd" d="M23.3208 42.1588L44.8284 22.2909C45.1964 21.951 45.1964 21.3696 44.8284 21.0297L23.3208 1.1618C22.7709 0.653869 21.8798 1.04386 21.8798 1.79242L21.8798 6.20726C21.8798 7.62967 20.7267 8.78277 19.3043 8.78277L2.13424 8.78276C1.66011 8.78276 1.27574 9.16713 1.27574 9.64127L1.27574 33.6793C1.27574 34.1534 1.66011 34.5378 2.13424 34.5378L19.3043 34.5378C20.7267 34.5378 21.8798 35.6909 21.8798 37.1133L21.8798 41.5282C21.8798 42.2768 22.7709 42.6668 23.3208 42.1588ZM23.9033 42.7895C22.8036 43.8053 21.0213 43.0253 21.0213 41.5282L21.0213 37.1133C21.0213 36.165 20.2525 35.3963 19.3043 35.3963L2.13424 35.3963C1.18597 35.3963 0.417239 34.6276 0.417239 33.6793L0.41724 9.64127C0.41724 8.69299 1.18597 7.92426 2.13424 7.92426L19.3043 7.92426C20.2525 7.92426 21.0213 7.15554 21.0213 6.20726L21.0213 1.79242C21.0213 0.295308 22.8036 -0.484678 23.9033 0.531186L45.411 20.3991C46.1469 21.0789 46.1469 22.2417 45.411 22.9215L23.9033 42.7895Z" fill="#404040"/>
</g>
<path d="M23.5761 42.4352L45.0837 22.5673C45.6129 22.0784 45.6129 21.2422 45.0837 20.7533L23.5761 0.88542C22.7853 0.154876 21.5035 0.715792 21.5035 1.79242L21.5035 6.20726C21.5035 7.42187 20.5189 8.40651 19.3043 8.40651L2.13424 8.40651C1.4523 8.40651 0.899486 8.95933 0.899486 9.64127L0.899485 33.6793C0.899485 34.3612 1.45231 34.914 2.13424 34.914L19.3043 34.914C20.5189 34.914 21.5035 35.8987 21.5035 37.1133L21.5035 41.5282C21.5035 42.6048 22.7853 43.1658 23.5761 42.4352ZM23.648 42.5131C22.7893 43.3063 21.3975 42.6973 21.3975 41.5282L21.3975 37.1133C21.3975 35.9572 20.4603 35.02 19.3043 35.02L2.13424 35.02C1.39377 35.02 0.793494 34.4198 0.793494 33.6793L0.793495 9.64127C0.793495 8.90079 1.39377 8.30052 2.13424 8.30052L19.3043 8.30052C20.4603 8.30052 21.3975 7.36334 21.3975 6.20726L21.3975 1.79242C21.3975 0.623378 22.7893 0.0143148 23.648 0.807566L45.1557 20.6754C45.7303 21.2063 45.7303 22.1143 45.1557 22.6451L23.648 42.5131Z" stroke="black" stroke-width="0.752513"/>
<defs>
<filter id="filter0_i_35_65" x="0.416992" y="0.0720215" width="45.5459" height="46.1866" filterUnits="userSpaceOnUse" color-interpolation-filters="sRGB">
<feFlood flood-opacity="0" result="BackgroundImageFix"/>
<feBlend mode="normal" in="SourceGraphic" in2="BackgroundImageFix" result="shape"/>
<feColorMatrix in="SourceAlpha" type="matrix" values="0 0 0 0 0 0 0 0 0 0 0 0 0 0 0 0 0 0 127 0" result="hardAlpha"/>
<feOffset dy="3.01005"/>
<feGaussianBlur stdDeviation="1.50503"/>
<feComposite in2="hardAlpha" operator="arithmetic" k2="-1" k3="1"/>
<feColorMatrix type="matrix" values="0 0 0 0 0 0 0 0 0 0 0 0 0 0 0 0 0 0 1 0"/>
<feBlend mode="normal" in2="shape" result="effect1_innerShadow_35_65"/>
</filter>
<filter id="filter1_i_35_65" x="0.416992" y="0.0720215" width="45.5459" height="46.1866" filterUnits="userSpaceOnUse" color-interpolation-filters="sRGB">
<feFlood flood-opacity="0" result="BackgroundImageFix"/>
<feBlend mode="normal" in="SourceGraphic" in2="BackgroundImageFix" result="shape"/>
<feColorMatrix in="SourceAlpha" type="matrix" values="0 0 0 0 0 0 0 0 0 0 0 0 0 0 0 0 0 0 127 0" result="hardAlpha"/>
<feOffset dy="3.01005"/>
<feGaussianBlur stdDeviation="1.50503"/>
<feComposite in2="hardAlpha" operator="arithmetic" k2="-1" k3="1"/>
<feColorMatrix type="matrix" values="0 0 0 0 0 0 0 0 0 0 0 0 0 0 0 0 0 0 1 0"/>
<feBlend mode="normal" in2="shape" result="effect1_innerShadow_35_65"/>
</filter>
</defs>
</svg>
