<svg width="72" height="58" viewBox="0 0 72 58" fill="none" xmlns="http://www.w3.org/2000/svg">
<path d="M65.9712 16.9442C64.0251 17.7188 61.7994 18.8593 59.8317 19.9352C58.9608 17.1809 58.3049 15.5347 57.735 13.8563C56.5846 10.4886 54.7567 10.1228 52.1224 12.3392C50.7246 13.5012 49.2301 14.7923 47.9828 15.8898C45.112 10.295 40.0477 1.67681 36.0372 1.64453C36.0372 1.64453 36.0372 1.64453 36.0264 1.64453C36.0264 1.64453 36.0264 1.64453 36.0156 1.64453C31.9836 1.67681 26.8978 10.3595 24.0377 15.9543C22.769 14.8461 21.2422 13.5335 19.8229 12.35C17.1778 10.1336 15.3607 10.4994 14.2102 13.867C13.6404 15.5239 12.9845 17.1701 12.1243 19.8922C10.1782 18.8378 7.98472 17.7188 6.07084 16.9549C2.17855 15.4056 0.501202 17.5574 1.10332 20.9466C1.63018 23.9269 6.95252 35.7943 9.29649 40.2594C8.57609 41.9056 8.6191 44.4233 9.64056 46.0371V49.5231C9.64056 53.3104 21.4787 56.3768 36.0694 56.3768C50.6601 56.3768 62.4983 53.3104 62.4983 49.5231V45.9618C63.4875 44.3372 63.509 41.8303 62.7778 40.2056C65.1218 35.6975 70.4226 23.9054 70.9387 20.9358C71.5408 17.5467 69.8635 15.3948 65.9712 16.9442Z" fill="url(#paint0_linear_82_1157)"/>
<path d="M36.0584 57.3344C28.9189 57.3344 22.1988 56.6136 17.1238 55.3009C11.5111 53.8484 8.66182 51.901 8.66182 49.5232C8.66182 47.1454 8.66182 49.5232 8.66182 49.5125V46.2955C7.74789 44.6493 7.57585 42.2069 8.22098 40.3133C5.92002 35.8267 0.694452 24.2605 0.135339 21.1081C-0.25174 18.9455 0.199862 17.2132 1.3826 16.2449C2.21052 15.5671 3.75882 14.9861 6.41461 16.0512C7.8124 16.6107 9.48974 17.4069 11.5434 18.4936C11.9627 17.2132 12.3391 16.1804 12.6724 15.2551C12.8874 14.6633 13.0917 14.1038 13.2745 13.5551C13.9519 11.5754 14.8873 10.4457 16.1346 10.0906C17.3926 9.73556 18.8011 10.2305 20.4247 11.5969C21.4677 12.4792 22.6289 13.4583 23.7256 14.4051C28.4888 5.35655 32.5962 0.740842 35.9401 0.665527C35.9616 0.665527 35.9831 0.665527 36.0046 0.665527C36.0261 0.665527 36.0476 0.665527 36.0691 0.665527C39.413 0.740842 43.5096 5.33503 48.2513 14.3405C49.3265 13.4152 50.4555 12.4469 51.477 11.5862C53.1113 10.2197 54.5199 9.7248 55.7671 10.0799C57.0144 10.4242 57.9498 11.5646 58.6272 13.5443C58.8207 14.093 59.0143 14.6525 59.2293 15.2443C59.5734 16.1803 59.9389 17.224 60.369 18.5259C62.4765 17.4069 64.143 16.6107 65.5838 16.0405C68.2396 14.9861 69.7879 15.5671 70.6159 16.2341C71.8094 17.2025 72.2502 18.9239 71.8631 21.0973C71.3148 24.2175 66.0999 35.7514 63.8097 40.2487C64.4871 42.1316 64.3366 44.5202 63.4334 46.2094V49.5125C63.4334 51.8903 60.5841 53.8377 54.9714 55.2902C49.9072 56.6028 43.1763 57.3237 36.0369 57.3237L36.0584 57.3344ZM10.5972 49.5232C10.5972 50.4916 12.4358 52.0839 17.6184 53.4288C22.5321 54.6984 29.0802 55.4085 36.0691 55.4085C43.058 55.4085 49.5954 54.7092 54.5199 53.4288C59.7024 52.0839 61.541 50.4808 61.541 49.5232V45.9619C61.541 45.779 61.5948 45.6069 61.6808 45.4562C62.4442 44.1974 62.541 42.024 61.9066 40.6038C61.7883 40.3348 61.7991 40.0228 61.9281 39.7538C64.2828 35.235 69.4976 23.5935 69.9922 20.7638C70.2395 19.3436 70.0353 18.2461 69.4224 17.7404C68.8203 17.2455 67.7235 17.2886 66.3258 17.8373C64.7559 18.4613 62.7883 19.4189 60.2938 20.7745C60.0357 20.9144 59.7347 20.9252 59.4659 20.8176C59.1971 20.71 58.9928 20.484 58.9068 20.2151C58.3369 18.4075 57.853 17.0734 57.4337 15.9006C57.2187 15.2981 57.0144 14.7386 56.8208 14.1684C56.38 12.8773 55.8424 12.1026 55.2725 11.952C54.6919 11.7906 53.821 12.1779 52.7457 13.0817C51.434 14.1791 49.9287 15.4702 48.6169 16.6107C48.3911 16.8044 48.0901 16.8905 47.7997 16.8367C47.5094 16.7829 47.2514 16.5892 47.1224 16.331C42.7247 7.75587 38.5744 2.62371 36.0261 2.61295C33.4671 2.63446 29.306 7.78814 24.8976 16.3955C24.7578 16.6645 24.5105 16.8474 24.2202 16.9012C23.9299 16.955 23.6289 16.8797 23.4031 16.6753C22.0805 15.5133 20.5537 14.2114 19.2097 13.0817C18.1345 12.1779 17.2528 11.7906 16.683 11.952C16.1131 12.1134 15.5755 12.8773 15.1346 14.1684C14.9411 14.7386 14.7368 15.2981 14.5218 15.9006C14.1024 17.0626 13.6293 18.386 13.0595 20.172C12.9734 20.4518 12.7691 20.6669 12.5003 20.7745C12.2315 20.8821 11.9305 20.8606 11.6724 20.7315C9.22093 19.4081 7.27478 18.4613 5.72647 17.8373C4.33944 17.2778 3.23197 17.2455 2.62985 17.7404C2.01698 18.2354 1.81268 19.3436 2.05998 20.7638C2.55458 23.5719 7.85541 35.4071 10.1564 39.7969C10.2962 40.0551 10.3069 40.3671 10.1886 40.6361C9.55425 42.0886 9.68328 44.2727 10.4682 45.4993C10.565 45.6499 10.6187 45.8328 10.6187 46.0157V49.5017L10.5972 49.5232Z" fill="url(#paint1_linear_82_1157)"/>
<path d="M10.9629 23.7979C12.4359 18.4936 13.4036 16.1912 14.1993 13.8564C15.3498 10.4888 17.1776 10.123 19.8119 12.3394C23.1989 15.169 27.1879 18.6981 26.7793 18.5151L20.9194 24.8524L10.9521 23.7979H10.9629Z" fill="url(#paint2_linear_82_1157)"/>
<path d="M60.9714 23.7979C59.4984 18.4936 58.5307 16.1912 57.735 13.8564C56.5845 10.4888 54.7567 10.123 52.1224 12.3394C48.7354 15.169 44.7464 18.6981 45.155 18.5151L51.0149 24.8524L60.9822 23.7979H60.9714Z" fill="url(#paint3_linear_82_1157)"/>
<path d="M11.5435 25.8314C13.0165 20.5271 13.9842 18.2246 14.7799 15.8899C15.9304 12.5222 17.7582 12.1564 20.3925 14.3728C23.7795 17.2025 27.7685 20.7315 27.3599 20.5486L21.5 26.8858L11.5327 25.8314H11.5435Z" fill="url(#paint4_linear_82_1157)"/>
<path d="M60.509 25.8314C59.036 20.5271 58.0683 18.2246 57.2726 15.8899C56.1221 12.5222 54.2942 12.1564 51.66 14.3728C48.273 17.2025 44.284 20.7315 44.6926 20.5486L50.5525 26.8858L60.5198 25.8314H60.509Z" fill="url(#paint5_linear_82_1157)"/>
<path d="M62.4876 45.7574H58.1437C53.4127 43.896 45.2949 42.6694 36.0587 42.6694C26.8226 42.6694 18.694 43.896 13.9738 45.7574H9.62988V49.5231C9.62988 53.3103 21.468 56.3767 36.0587 56.3767C50.6494 56.3767 62.4876 53.3103 62.4876 49.5231V45.7574Z" fill="url(#paint6_linear_82_1157)"/>
<path d="M61.9278 39.0329L59.1645 41.9917C54.6485 39.8936 45.993 38.4734 36.058 38.4734C26.123 38.4734 17.4245 39.9044 12.9193 42.0132L10.1453 39.0436C8.45719 40.3993 8.22065 44.7998 10.1453 46.6827C12.586 49.8136 23.2522 52.1699 36.0473 52.1699C48.8424 52.1699 59.9494 49.7168 62.089 46.489C63.8201 44.5093 63.5406 40.3563 61.9063 39.0329H61.9278Z" fill="url(#paint7_linear_82_1157)"/>
<path d="M65.9712 16.9442C62.2187 18.4397 57.4125 21.3124 55.4341 22.3668C52.5848 23.8731 51.1225 22.5174 50.1225 20.3226C49.1226 18.1277 41.5853 1.68757 36.0264 1.64453C36.0264 1.64453 36.0264 1.64453 36.0156 1.64453C36.0156 1.64453 36.0157 1.64453 36.0049 1.64453C30.4568 1.68757 22.9087 18.1384 21.9088 20.3226C20.9088 22.5174 19.4466 23.8731 16.5972 22.3668C14.6188 21.3232 9.80185 18.4397 6.0601 16.9442C2.16781 15.3948 0.49046 17.5467 1.09258 20.9358C1.6732 24.1959 8.00623 38.1291 9.86636 41.3246C9.92012 41.4322 9.98464 41.529 10.0492 41.6366C10.0599 41.6581 10.0814 41.6796 10.1029 41.7012C12.4469 44.8644 23.1776 47.2529 36.0587 47.2529C48.9398 47.2529 61.5628 44.4232 62.4338 40.8404C64.5627 36.9241 70.3796 24.056 70.9387 20.9358C71.5408 17.5467 69.8635 15.3948 65.9712 16.9442Z" fill="url(#paint8_linear_82_1157)"/>
<path d="M6.26465 18.9131C10.0172 20.4087 14.8234 23.2814 16.8018 24.3358C19.6511 25.8421 21.1134 24.4864 22.1134 22.2915C23.1133 20.0966 30.6506 3.65651 36.2095 3.61348C36.2095 3.61348 36.2095 3.61348 36.2202 3.61348C36.2202 3.61348 36.2202 3.61348 36.231 3.61348C41.7791 3.65651 49.3271 20.1074 50.3271 22.2915C51.327 24.4864 52.7893 25.8421 55.6386 24.3358C57.617 23.2921 62.434 20.4087 66.1758 18.9131C69.1326 17.7404 70.81 18.6872 71.1755 20.6991C71.6594 17.4391 69.9713 15.4271 66.1758 16.9442C62.4233 18.4397 57.617 21.3124 55.6386 22.3668C52.7893 23.8731 51.327 22.5174 50.3271 20.3226C49.3271 18.1277 41.7898 1.68757 36.231 1.64453C36.231 1.64453 36.231 1.64453 36.2202 1.64453C36.2202 1.64453 36.2202 1.64453 36.2095 1.64453C30.6613 1.68757 23.1133 18.1384 22.1134 20.3226C21.1134 22.5174 19.6511 23.8731 16.8018 22.3668C14.8234 21.3232 10.0064 18.4397 6.26465 16.9442C2.45837 15.4271 0.781034 17.4498 1.26488 20.6991C1.64121 18.6872 3.31855 17.7296 6.26465 18.9131Z" fill="url(#paint9_linear_82_1157)"/>
<path d="M36.0583 46.5752C23.0267 46.5752 12.1778 44.1543 9.80152 40.9588C9.78001 40.9373 9.76926 40.9158 9.74776 40.8943C9.67249 40.7867 9.60799 40.6899 9.55423 40.5823C8.38224 38.5595 5.41464 32.2546 3.22119 27.0256C5.40388 32.3515 8.61878 39.2158 9.85528 41.3354C9.90904 41.443 9.97356 41.5398 10.0381 41.6474C10.0488 41.6689 10.0703 41.6905 10.0918 41.712C12.4358 44.8752 23.1665 47.2638 36.0476 47.2638C48.9287 47.2638 61.5518 44.4341 62.4227 40.8513C63.8097 38.3121 66.7343 32.0072 68.7772 27.0364C66.7451 31.8996 64.0355 37.688 62.7237 40.0981C61.8421 43.724 50.2405 46.5859 36.0476 46.5859L36.0583 46.5752Z" fill="#FF8400" fill-opacity="0.3"/>
<path d="M62.4876 46.2202C60.5415 49.5556 49.456 52.1055 36.0587 52.1055C22.6615 52.1055 12.1781 49.6847 9.80192 46.4892C9.78041 46.4677 9.76966 46.4462 9.74815 46.4247C9.70515 46.3601 9.66214 46.2955 9.62988 46.231V46.4462C9.7159 46.5968 9.79116 46.7474 9.86643 46.8658C9.92019 46.9734 9.98471 47.0702 10.0492 47.1778C10.06 47.1993 10.0815 47.2208 10.103 47.2423C12.447 50.4056 23.1776 52.7941 36.0587 52.7941C48.9398 52.7941 61.5629 49.9644 62.4338 46.3816C62.4553 46.3493 62.4661 46.3171 62.4876 46.2848V46.231V46.2202Z" fill="#FF8400" fill-opacity="0.3"/>
<path d="M43.8962 36.569V28.7901C43.8962 28.2521 43.6059 27.7464 43.1435 27.4774L36.4127 23.5826C35.9503 23.3136 35.3697 23.3136 34.8966 23.5826L28.1657 27.4774C27.7034 27.7464 27.4131 28.2413 27.4131 28.7901V36.569C27.4131 37.107 27.7034 37.6126 28.1657 37.8816L34.8966 41.7765C35.359 42.0455 35.9396 42.0455 36.4127 41.7765L43.1435 37.8816C43.6059 37.6126 43.8962 37.1177 43.8962 36.569Z" fill="url(#paint10_linear_82_1157)"/>
<path d="M35.6497 42.4007C35.3163 42.4007 34.983 42.3146 34.682 42.1424L27.9511 38.2476C27.349 37.9033 26.9834 37.2578 26.9834 36.5692V28.7902C26.9834 28.1016 27.3597 27.4561 27.9511 27.1118L34.682 23.217C35.2841 22.8727 36.026 22.8727 36.6281 23.217L43.359 27.1118C43.9611 27.4561 44.3267 28.1016 44.3267 28.7902V36.5692C44.3267 37.2578 43.9503 37.9033 43.359 38.2476L36.6281 42.1424C36.3271 42.3146 35.9937 42.4007 35.6604 42.4007H35.6497ZM35.6497 23.8087C35.4669 23.8087 35.2733 23.8517 35.1121 23.9486L28.3812 27.8434C28.0479 28.0371 27.8436 28.3921 27.8436 28.7795V36.5584C27.8436 36.9457 28.0479 37.3008 28.3812 37.4945L35.1121 41.3893C35.4454 41.583 35.8647 41.583 36.198 41.3893L42.9289 37.4945C43.2622 37.3008 43.4665 36.9457 43.4665 36.5584V28.7795C43.4665 28.3921 43.2622 28.0371 42.9289 27.8434L36.198 23.9486C36.0368 23.8517 35.8432 23.8087 35.6604 23.8087H35.6497Z" fill="#0C98E5"/>
<path d="M43.713 37.3007L38.2509 34.1267L35.8209 35.009L35.7026 41.9702C35.9499 41.9702 36.1865 41.8949 36.4123 41.7658L43.1431 37.8709C43.3904 37.7311 43.584 37.5266 43.713 37.2899V37.3007Z" fill="url(#paint11_linear_82_1157)"/>
<path d="M27.6606 37.4082C27.7897 37.6019 27.9617 37.7633 28.166 37.8816L34.8969 41.7765C35.1334 41.9163 35.4022 41.9809 35.6603 41.9809L35.8216 35.0197L32.7787 34.3203L27.6606 37.419V37.4082Z" fill="url(#paint12_linear_82_1157)"/>
<path d="M27.5744 28.0799C27.4668 28.295 27.4023 28.5317 27.4023 28.7792V36.5581C27.4023 36.8702 27.4991 37.1822 27.6819 37.4296L36.2084 32.319L27.5744 28.0691V28.0799Z" fill="url(#paint13_linear_82_1157)"/>
<path d="M34.8969 23.5826L28.166 27.4774C27.9402 27.6065 27.7467 27.8002 27.6177 28.0262C30.1982 29.4894 35.3377 32.3406 35.3377 32.3406L36.3592 31.4906L35.6603 28.3597V23.3889C35.4023 23.3889 35.1335 23.4535 34.9077 23.5934L34.8969 23.5826Z" fill="url(#paint14_linear_82_1157)"/>
<path d="M35.8219 31.964L38.0046 31.7811L43.6602 27.9616C43.5312 27.7679 43.3592 27.5958 43.1441 27.4774L36.4133 23.5826C36.1875 23.4535 35.9402 23.3889 35.6929 23.3782C35.7466 25.8205 35.8219 31.964 35.8219 31.964Z" fill="url(#paint15_linear_82_1157)"/>
<path d="M36.5098 32.6739L43.5739 37.494C43.7782 37.2358 43.8858 36.913 43.8858 36.5687V28.7898C43.8858 28.5746 43.8427 28.3594 43.7567 28.1658L37.0904 31.5764L36.5098 32.6847V32.6739Z" fill="url(#paint16_linear_82_1157)"/>
<path d="M43.8966 36.6767C43.6278 37.5482 40.0258 35.1596 39.8645 34.2236L38.8753 34.116C38.8753 34.116 38.4345 35.633 39.3914 35.321C40.3483 35.009 43.3375 37.376 43.1547 37.8602C43.5848 37.6127 43.8535 37.1608 43.8966 36.6767Z" fill="url(#paint17_linear_82_1157)"/>
<path d="M34.9404 41.798C35.3813 42.0347 35.8974 42.0347 36.3382 41.798C36.3382 41.798 36.3275 41.798 36.3167 41.798C35.8006 41.7334 35.3813 37.8924 36.1662 37.2468C36.9404 36.6013 35.4243 36.1709 35.4243 36.1709L34.9835 37.0639C35.6823 37.688 35.7791 41.9379 34.9404 41.798Z" fill="url(#paint18_linear_82_1157)"/>
<path d="M28.155 37.8817C27.94 37.4083 30.9613 35.009 31.9183 35.3317C32.8752 35.6545 32.4344 34.1267 32.4344 34.1267L31.4452 34.2343C31.2731 35.2026 27.3916 37.7418 27.3916 36.5691C27.3916 37.107 27.6819 37.6127 28.1443 37.8817H28.155Z" fill="url(#paint19_linear_82_1157)"/>
<path d="M28.1873 27.4775C28.2625 27.4344 28.3055 27.4022 28.3485 27.3699L28.155 27.4775C27.6927 27.7464 27.4023 28.2414 27.4023 28.7793C27.4023 28.7793 27.4023 28.7793 27.4023 28.7686C27.7142 28.349 31.2731 29.8337 31.4559 30.8236C31.6387 31.8134 32.7569 30.6945 32.7569 30.6945L32.1871 29.8876C31.2624 30.2103 27.155 28.0477 28.1765 27.4775H28.1873Z" fill="url(#paint20_linear_82_1157)"/>
<path d="M36.3487 23.5502C35.9186 23.3243 35.4133 23.3243 34.9724 23.5395C34.9832 23.5395 35.0047 23.5395 35.0155 23.5502C35.5316 23.6148 35.9509 27.4558 35.166 28.1014C34.3918 28.7469 35.9079 29.1773 35.9079 29.1773L36.3487 28.2843C35.6713 27.671 35.5531 23.5933 36.3487 23.5502Z" fill="url(#paint21_linear_82_1157)"/>
<path d="M43.8966 28.7685C43.8966 28.2306 43.6063 27.7464 43.1439 27.4774L42.9934 27.3914C43.0257 27.4129 43.0687 27.4452 43.1224 27.4774C44.1439 28.0477 40.0366 30.2103 39.1119 29.8875L38.542 30.6945C38.542 30.6945 39.6495 31.8242 39.843 30.8236C40.0258 29.8337 43.5848 28.3597 43.8966 28.7685Z" fill="url(#paint22_linear_82_1157)"/>
<path d="M39.8428 34.2341V31.1247C39.8428 30.5868 39.5525 30.0811 39.0901 29.8121L36.4021 28.2628C35.9397 27.9938 35.3591 27.9938 34.886 28.2628L32.198 29.8121C31.7356 30.0811 31.4453 30.576 31.4453 31.1247V34.2341C31.4453 34.7721 31.7356 35.2778 32.198 35.5468L34.886 37.0961C35.3484 37.3651 35.929 37.3651 36.4021 37.0961L39.0901 35.5468C39.5525 35.2778 39.8428 34.7829 39.8428 34.2341Z" fill="url(#paint23_linear_82_1157)"/>
<defs>
<linearGradient id="paint0_linear_82_1157" x1="-0.853572" y1="29.0053" x2="74.6052" y2="29.0053" gradientUnits="userSpaceOnUse">
<stop stop-color="#FF7800"/>
<stop offset="0.1" stop-color="#FF950B"/>
<stop offset="0.3" stop-color="#FFBD1C"/>
<stop offset="0.4" stop-color="#FFD526"/>
<stop offset="0.5" stop-color="#FFDF2A"/>
<stop offset="0.6" stop-color="#FFDA28"/>
<stop offset="0.7" stop-color="#FFCE23"/>
<stop offset="0.8" stop-color="#FFBA1B"/>
<stop offset="0.9" stop-color="#FF9E0F"/>
<stop offset="1" stop-color="#FF7800"/>
</linearGradient>
<linearGradient id="paint1_linear_82_1157" x1="36.0154" y1="57.3344" x2="36.0154" y2="0.665527" gradientUnits="userSpaceOnUse">
<stop stop-color="#F07200"/>
<stop offset="0.5" stop-color="#FA7B00"/>
<stop offset="1" stop-color="#FF8000"/>
</linearGradient>
<linearGradient id="paint2_linear_82_1157" x1="10.9593" y1="17.8895" x2="26.8129" y2="17.8972" gradientUnits="userSpaceOnUse">
<stop stop-color="#FFB81C"/>
<stop offset="0.5" stop-color="#FFED9F"/>
<stop offset="0.6" stop-color="#FFE790"/>
<stop offset="0.7" stop-color="#FFD76A"/>
<stop offset="0.9" stop-color="#FFBF2D"/>
<stop offset="1" stop-color="#FFB81C"/>
</linearGradient>
<linearGradient id="paint3_linear_82_1157" x1="45.1067" y1="17.8945" x2="60.9597" y2="17.8976" gradientUnits="userSpaceOnUse">
<stop stop-color="#FFB81C"/>
<stop offset="0.5" stop-color="#FFED9F"/>
<stop offset="0.6" stop-color="#FFE790"/>
<stop offset="0.7" stop-color="#FFD76A"/>
<stop offset="0.9" stop-color="#FFBF2D"/>
<stop offset="1" stop-color="#FFB81C"/>
</linearGradient>
<linearGradient id="paint4_linear_82_1157" x1="19.4723" y1="12.9735" x2="19.4817" y2="26.8737" gradientUnits="userSpaceOnUse">
<stop stop-color="#FFC800"/>
<stop offset="0.3" stop-color="#FFB900"/>
<stop offset="0.8" stop-color="#FF9300"/>
<stop offset="1" stop-color="#FF8400"/>
</linearGradient>
<linearGradient id="paint5_linear_82_1157" x1="52.5767" y1="12.9688" x2="52.5773" y2="26.8805" gradientUnits="userSpaceOnUse">
<stop stop-color="#FFC800"/>
<stop offset="0.3" stop-color="#FFB900"/>
<stop offset="0.8" stop-color="#FF9300"/>
<stop offset="1" stop-color="#FF8400"/>
</linearGradient>
<linearGradient id="paint6_linear_82_1157" x1="2.15712" y1="49.5231" x2="66.767" y2="49.5231" gradientUnits="userSpaceOnUse">
<stop stop-color="#FF7800"/>
<stop offset="0.1" stop-color="#FF950B"/>
<stop offset="0.3" stop-color="#FFBD1C"/>
<stop offset="0.4" stop-color="#FFD526"/>
<stop offset="0.5" stop-color="#FFDF2A"/>
<stop offset="0.6" stop-color="#FFDA28"/>
<stop offset="0.7" stop-color="#FFCE23"/>
<stop offset="0.8" stop-color="#FFBA1B"/>
<stop offset="0.9" stop-color="#FF9E0F"/>
<stop offset="1" stop-color="#FF7800"/>
</linearGradient>
<linearGradient id="paint7_linear_82_1157" x1="8.79051" y1="45.3163" x2="63.2825" y2="45.3163" gradientUnits="userSpaceOnUse">
<stop stop-color="#FFAD09"/>
<stop offset="0.5" stop-color="#FFF42A"/>
<stop offset="1" stop-color="#FFAD09"/>
</linearGradient>
<linearGradient id="paint8_linear_82_1157" x1="-207.08" y1="24.4434" x2="-206.973" y2="24.4434" gradientUnits="userSpaceOnUse">
<stop stop-color="#FF7800"/>
<stop offset="0.1" stop-color="#FF950B"/>
<stop offset="0.3" stop-color="#FFBD1C"/>
<stop offset="0.4" stop-color="#FFD526"/>
<stop offset="0.5" stop-color="#FFDF2A"/>
<stop offset="0.6" stop-color="#FFDA28"/>
<stop offset="0.7" stop-color="#FFCE23"/>
<stop offset="0.8" stop-color="#FFBA1B"/>
<stop offset="0.9" stop-color="#FF9E0F"/>
<stop offset="1" stop-color="#FF7800"/>
</linearGradient>
<linearGradient id="paint9_linear_82_1157" x1="1.17886" y1="13.3075" x2="71.2508" y2="13.3075" gradientUnits="userSpaceOnUse">
<stop stop-color="#FFB81C"/>
<stop offset="0.5" stop-color="#FFED9F"/>
<stop offset="0.6" stop-color="#FFE790"/>
<stop offset="0.7" stop-color="#FFD76A"/>
<stop offset="0.9" stop-color="#FFBF2D"/>
<stop offset="1" stop-color="#FFB81C"/>
</linearGradient>
<linearGradient id="paint10_linear_82_1157" x1="35.6493" y1="23.3889" x2="35.6493" y2="41.9809" gradientUnits="userSpaceOnUse">
<stop stop-color="#2FDFFA"/>
<stop offset="1" stop-color="#109EFE"/>
</linearGradient>
<linearGradient id="paint11_linear_82_1157" x1="41.9712" y1="41.8949" x2="36.2903" y2="36.2392" gradientUnits="userSpaceOnUse">
<stop stop-color="#2FDFFA"/>
<stop offset="1" stop-color="#109EFE"/>
</linearGradient>
<linearGradient id="paint12_linear_82_1157" x1="29.4455" y1="41.4322" x2="35.8678" y2="36.3902" gradientUnits="userSpaceOnUse">
<stop stop-color="#2FDFFA"/>
<stop offset="1" stop-color="#109EFE"/>
</linearGradient>
<linearGradient id="paint13_linear_82_1157" x1="27.4238" y1="32.8247" x2="35.8759" y2="30.3423" gradientUnits="userSpaceOnUse">
<stop stop-color="#2FDFFA"/>
<stop offset="1" stop-color="#109EFE"/>
</linearGradient>
<linearGradient id="paint14_linear_82_1157" x1="31.9078" y1="26.1325" x2="36.6646" y2="33.4675" gradientUnits="userSpaceOnUse">
<stop stop-color="#2FDFFA"/>
<stop offset="1" stop-color="#109EFE"/>
</linearGradient>
<linearGradient id="paint15_linear_82_1157" x1="39.7787" y1="25.4977" x2="35.5921" y2="32.2844" gradientUnits="userSpaceOnUse">
<stop stop-color="#2FDFFA"/>
<stop offset="1" stop-color="#109EFE"/>
</linearGradient>
<linearGradient id="paint16_linear_82_1157" x1="45.2298" y1="32.8676" x2="37.843" y2="32.7064" gradientUnits="userSpaceOnUse">
<stop stop-color="#2FDFFA"/>
<stop offset="1" stop-color="#109EFE"/>
</linearGradient>
<linearGradient id="paint17_linear_82_1157" x1="39.7032" y1="34.7292" x2="43.8339" y2="37.7608" gradientUnits="userSpaceOnUse">
<stop stop-color="#10BCFE"/>
<stop offset="1" stop-color="#33DDFA"/>
</linearGradient>
<linearGradient id="paint18_linear_82_1157" x1="35.6608" y1="41.9701" x2="35.6608" y2="36.1817" gradientUnits="userSpaceOnUse">
<stop stop-color="#24CCFB"/>
<stop offset="1" stop-color="#1CC8FC"/>
</linearGradient>
<linearGradient id="paint19_linear_82_1157" x1="27.6712" y1="37.5912" x2="31.7912" y2="34.5274" gradientUnits="userSpaceOnUse">
<stop stop-color="#52E3F9"/>
<stop offset="1" stop-color="#2FDCFA"/>
</linearGradient>
<linearGradient id="paint20_linear_82_1157" x1="28.0045" y1="28.1876" x2="32.7261" y2="30.7457" gradientUnits="userSpaceOnUse">
<stop stop-color="#51E3F9"/>
<stop offset="1" stop-color="#2CDCFA"/>
</linearGradient>
<linearGradient id="paint21_linear_82_1157" x1="35.6498" y1="29.1773" x2="35.6498" y2="23.3781" gradientUnits="userSpaceOnUse">
<stop stop-color="#21CEFC"/>
<stop offset="0.6" stop-color="#38D8FA"/>
<stop offset="1" stop-color="#4DE1FA"/>
</linearGradient>
<linearGradient id="paint22_linear_82_1157" x1="39.1656" y1="30.4578" x2="43.8657" y2="27.8996" gradientUnits="userSpaceOnUse">
<stop stop-color="#10BCFE"/>
<stop offset="1" stop-color="#74E6FA"/>
</linearGradient>
<linearGradient id="paint23_linear_82_1157" x1="31.4561" y1="32.6741" x2="39.8428" y2="32.6741" gradientUnits="userSpaceOnUse">
<stop stop-color="#2FDFFA"/>
<stop offset="1" stop-color="#10BAFE"/>
</linearGradient>
</defs>
</svg>
