<svg width="52" height="76" viewBox="0 0 52 76" fill="none" xmlns="http://www.w3.org/2000/svg">
<path d="M26.2955 2.06323C12.659 1.9045 1.35632 12.8643 1.11957 26.4949C0.993322 33.7613 3.98518 40.3302 8.84563 44.955C11.3571 47.3448 12.814 50.6336 12.8288 54.098C12.8286 54.1159 12.8285 54.1338 12.8285 54.1517C12.8285 55.6481 13.5102 57.0501 14.6987 58.2461V63.1884C14.6987 64.6838 15.4918 66.067 16.8373 67.1925C18.0383 71.0655 21.6285 73.8879 25.8859 73.9375C30.2116 73.9878 33.9275 71.1355 35.1587 67.1957C36.5065 66.0696 37.3011 64.6852 37.3011 63.1884V58.2452L37.3012 58.2451C38.4885 57.0489 39.1704 55.6483 39.1704 54.1517V54.1507H39.1708C39.1708 50.6734 40.6193 47.3634 43.1407 44.9678C47.9101 40.4362 50.884 34.0341 50.884 26.937C50.884 13.2973 39.9024 2.2216 26.2955 2.06323Z" fill="url(#paint0_linear_82_1137)"/>
<path fill-rule="evenodd" clip-rule="evenodd" d="M38.4171 58.6882V63.1886C38.4171 65.0036 37.5038 66.5967 36.1222 67.8375C34.6545 72.0729 30.5925 75.1083 25.873 75.0534C21.2328 74.9993 17.3054 71.9959 15.873 67.833C14.4942 66.593 13.5829 65.0015 13.5829 63.1886V58.6894C12.4278 57.4014 11.7127 55.8552 11.7127 54.1518C11.7127 54.1327 11.7128 54.1137 11.713 54.0947C11.6974 50.9457 10.3721 47.9478 8.07657 45.7635C2.99958 40.9327 -0.127884 34.0674 0.00401411 26.4756C0.251445 12.23 12.0597 0.78173 26.3086 0.94758C40.5257 1.11305 52 12.6852 52 26.9371C52 34.3528 48.8912 41.0435 43.9094 45.7768C41.6053 47.966 40.2868 50.9854 40.2868 54.1508C40.2868 54.1618 40.2866 54.1727 40.2863 54.1836C40.2775 55.8749 39.5638 57.4087 38.4171 58.6882ZM12.8289 54.0981C12.8287 54.116 12.8286 54.1339 12.8286 54.1518C12.8286 55.6483 13.5103 57.0502 14.6988 58.2462V63.1886C14.6988 64.6839 15.4919 66.0671 16.8374 67.1926C18.0385 71.0656 21.6286 73.888 25.886 73.9376C30.2117 73.9879 33.9277 71.1357 35.1589 67.1958C36.5067 66.0697 37.3012 64.6853 37.3012 63.1886V58.2453L37.3014 58.2452C38.4886 57.0491 39.1705 55.6485 39.1705 54.1518V54.1508H39.1709C39.1709 50.6735 40.6194 47.3635 43.1408 44.9679C47.9103 40.4363 50.8841 34.0343 50.8841 26.9371C50.8841 13.2974 39.9026 2.22173 26.2956 2.06336C12.6592 1.90464 1.35645 12.8644 1.1197 26.495C0.993453 33.7614 3.98531 40.3303 8.84576 44.9552C11.3572 47.3449 12.8142 50.6338 12.8289 54.0981Z" fill="url(#paint1_linear_82_1137)"/>
<path d="M26.2955 2.06323C12.659 1.9045 1.35632 12.8643 1.11957 26.4949C0.993322 33.7613 3.98518 40.3302 8.84563 44.955C11.3571 47.3448 12.814 50.6336 12.8288 54.098C12.8286 54.1159 12.8285 54.1338 12.8285 54.1517C12.8285 55.6481 13.5102 57.0501 14.6987 58.2461V63.1884C14.6987 64.6838 15.4918 66.067 16.8373 67.1925C18.0383 71.0655 21.6285 73.8879 25.8859 73.9375C30.2116 73.9878 33.9275 71.1355 35.1587 67.1957C36.5065 66.0696 37.3011 64.6852 37.3011 63.1884V58.2452L37.3013 58.2451C38.4885 57.0489 39.1704 55.6483 39.1704 54.1517V54.1507H39.1708C39.1708 50.6734 40.6193 47.3634 43.1407 44.9678C47.9101 40.4362 50.884 34.0341 50.884 26.937C50.884 13.2973 39.9024 2.2216 26.2955 2.06323Z" fill="#FFD202"/>
<path d="M26.2955 2.06323C12.659 1.9045 1.35632 12.8643 1.11957 26.4949C0.993322 33.7613 3.98518 40.3302 8.84563 44.955C11.3571 47.3448 12.814 50.6336 12.8288 54.098C12.8286 54.1159 12.8285 54.1338 12.8285 54.1517C12.8285 55.6481 13.5102 57.0501 14.6987 58.2461V63.1884C14.6987 64.6838 15.4918 66.067 16.8373 67.1925C18.0383 71.0655 21.6285 73.8879 25.8859 73.9375C30.2116 73.9878 33.9275 71.1355 35.1587 67.1957C36.5065 66.0696 37.3011 64.6852 37.3011 63.1884V58.2452L37.3013 58.2451C38.4885 57.0489 39.1704 55.6483 39.1704 54.1517V54.1507H39.1708C39.1708 50.6734 40.6193 47.3634 43.1407 44.9678C47.9101 40.4362 50.884 34.0341 50.884 26.937C50.884 13.2973 39.9024 2.2216 26.2955 2.06323Z" fill="url(#paint2_linear_82_1137)"/>
<path d="M25.9995 62.1214C21.201 62.1214 17.0008 60.569 14.6992 58.2465C14.699 58.2463 14.6989 58.2462 14.6987 58.2461V63.1884C14.6987 64.6837 15.4918 66.067 16.8373 67.1925C18.0384 71.0654 21.6285 73.8878 25.886 73.9374C30.2117 73.9877 33.9276 71.1355 35.1588 67.1957C36.5066 66.0696 37.3012 64.6851 37.3012 63.1884V58.2451C35.0011 60.5675 30.801 62.1214 25.9995 62.1214Z" fill="#BDBDBD"/>
<path d="M36.5493 56.1645C36.5493 58.7382 33.2884 61.8173 25.8557 61.8173C18.423 61.8173 15.1621 58.7382 15.1621 56.1645C15.1621 53.5909 19.9533 52.5186 25.8557 52.5186C31.7581 52.5186 36.5493 53.6062 36.5493 56.1645Z" fill="white" fill-opacity="0.6"/>
<path d="M16.8369 67.1924C18.038 71.0653 21.6281 73.8877 25.8855 73.9373C30.2112 73.9877 33.9272 71.1354 35.1584 67.1956C33.105 68.9112 29.7676 70.0272 25.9995 70.0272C22.229 70.0272 18.8899 68.9098 16.8369 67.1924Z" fill="#494A49"/>
<path d="M37.3013 52.3003C37.2688 52.1681 37.2212 52.0376 37.1592 51.9092C36.1752 49.8708 31.5533 48.3279 26 48.3279C20.4468 48.3279 15.8248 49.8708 14.8409 51.9092C14.7788 52.0376 14.7312 52.1681 14.6988 52.3003C14.6648 52.4387 14.6475 52.5789 14.6475 52.7208C14.6475 52.8627 14.6648 53.0029 14.6988 53.1413C14.699 53.1419 14.6991 53.1426 14.6993 53.1433V57.472C17.0009 59.7945 21.2011 61.3469 25.9996 61.3469C30.8011 61.3469 35.0012 59.793 37.3013 57.4706L37.3014 57.4704V53.1406C37.3353 53.0025 37.3526 52.8624 37.3526 52.7208C37.3526 52.579 37.3352 52.4387 37.3013 52.3003Z" fill="#FCBE11"/>
<path d="M26 57.1137C30.9761 57.1137 35.2043 55.8748 36.7375 54.1508C37.0232 53.8295 37.2154 53.4913 37.3013 53.1412L37.3014 53.1406C37.3353 53.0024 37.3526 52.8624 37.3526 52.7207C37.3526 52.579 37.3353 52.4387 37.3013 52.3003C37.2688 52.1681 37.2212 52.0376 37.1592 51.9092C36.1752 49.8708 31.5533 48.3279 26 48.3279C20.4468 48.3279 15.8248 49.8708 14.8409 51.9092C14.7788 52.0376 14.7312 52.1681 14.6988 52.3003C14.6648 52.4387 14.6475 52.5789 14.6475 52.7208C14.6475 52.8627 14.6648 53.0029 14.6988 53.1413C14.699 53.1419 14.6991 53.1426 14.6993 53.1433C14.7855 53.4928 14.9775 53.8303 15.2628 54.1511C16.7962 55.875 21.0243 57.1137 26 57.1137Z" fill="url(#paint3_linear_82_1137)"/>
<defs>
<linearGradient id="paint0_linear_82_1137" x1="25.9967" y1="73.9381" x2="25.9967" y2="2.06152" gradientUnits="userSpaceOnUse">
<stop stop-color="#F57300"/>
<stop offset="0.4" stop-color="#FA8A00"/>
<stop offset="0.7" stop-color="#FD9900"/>
<stop offset="1" stop-color="#FF9E00"/>
</linearGradient>
<linearGradient id="paint1_linear_82_1137" x1="25.9967" y1="69.1988" x2="25.9967" y2="0.945801" gradientUnits="userSpaceOnUse">
<stop stop-color="#2F2F2F"/>
<stop offset="0.4" stop-color="#FA8A00"/>
<stop offset="0.7" stop-color="#FD9900"/>
<stop offset="1" stop-color="#FF9E00"/>
</linearGradient>
<linearGradient id="paint2_linear_82_1137" x1="25.9999" y1="73.9381" x2="25.9999" y2="2.06152" gradientUnits="userSpaceOnUse">
<stop stop-color="#FFA102"/>
<stop offset="0.4" stop-color="#FFC218"/>
<stop offset="0.8" stop-color="#FFD725"/>
<stop offset="1" stop-color="#FFDF2A"/>
</linearGradient>
<linearGradient id="paint3_linear_82_1137" x1="26" y1="57.1137" x2="26" y2="48.3279" gradientUnits="userSpaceOnUse">
<stop stop-color="#FFA200"/>
<stop offset="1" stop-color="#FFB802"/>
</linearGradient>
</defs>
</svg>
