<svg width="224" height="97" viewBox="0 0 224 97" fill="none" xmlns="http://www.w3.org/2000/svg">
<g filter="url(#filter0_d_82_1006)">
<mask id="path-1-inside-1_82_1006" fill="white">
<path d="M182.368 17.043C196.577 17.043 208.807 25.5164 214.282 37.6855H217.346V52.5947H217.338C217.032 71.6484 201.494 86.9999 182.368 87H41.6323C22.5057 87 6.96777 71.6485 6.66162 52.5947H6.65381V37.6855H9.71826C15.1932 25.5164 27.4228 17.043 41.6323 17.043H182.368Z"/>
</mask>
<path d="M182.368 17.043C196.577 17.043 208.807 25.5164 214.282 37.6855H217.346V52.5947H217.338C217.032 71.6484 201.494 86.9999 182.368 87H41.6323C22.5057 87 6.96777 71.6485 6.66162 52.5947H6.65381V37.6855H9.71826C15.1932 25.5164 27.4228 17.043 41.6323 17.043H182.368Z" fill="url(#paint0_linear_82_1006)"/>
<path d="M182.368 17.043V16.2449V17.043ZM214.282 37.6855L213.554 38.013L213.766 38.4836H214.282V37.6855ZM217.346 37.6855H218.144V36.8875H217.346V37.6855ZM217.346 52.5947V53.3928H218.144V52.5947H217.346ZM217.338 52.5947V51.7966H216.553L216.54 52.5819L217.338 52.5947ZM182.368 87V87.7981V87ZM41.6323 87V87.7981V87ZM6.66162 52.5947L7.4596 52.5819L7.44698 51.7966H6.66162V52.5947ZM6.65381 52.5947H5.85573V53.3928H6.65381V52.5947ZM6.65381 37.6855V36.8875H5.85573V37.6855H6.65381ZM9.71826 37.6855V38.4836H10.2343L10.4461 38.013L9.71826 37.6855ZM41.6323 17.043V16.2449V17.043ZM182.368 17.841C196.252 17.8411 208.203 26.1197 213.554 38.013L215.01 37.3581C209.411 24.913 196.903 16.2449 182.368 16.2449V17.841ZM214.282 38.4836H217.346V36.8875H214.282V38.4836ZM216.548 37.6855V52.5947H218.144V37.6855H216.548ZM217.346 51.7966H217.338V53.3928H217.346V51.7966ZM216.54 52.5819C216.241 71.2007 201.058 86.2019 182.368 86.2019V87.7981C201.931 87.798 217.823 72.0962 218.136 52.6075L216.54 52.5819ZM182.368 86.2019H41.6323V87.7981H182.368V86.2019ZM41.6323 86.2019C22.9422 86.2019 7.75875 71.2007 7.4596 52.5819L5.86365 52.6075C6.17678 72.0962 22.0691 87.798 41.6323 87.7981V86.2019ZM6.66162 51.7966H6.65381V53.3928H6.66162V51.7966ZM7.45189 52.5947V37.6855H5.85573V52.5947H7.45189ZM6.65381 38.4836H9.71826V36.8875H6.65381V38.4836ZM10.4461 38.013C15.7969 26.1197 27.7483 17.8411 41.6323 17.841V16.2449C27.0973 16.2449 14.5895 24.913 8.99045 37.3581L10.4461 38.013ZM41.6323 17.841H182.368V16.2449H41.6323V17.841Z" fill="#8DCC2E" mask="url(#path-1-inside-1_82_1006)"/>
<rect x="6.65381" y="4" width="210.692" height="72.3286" rx="36.1643" fill="url(#paint1_linear_82_1006)"/>
<rect x="6.65381" y="4" width="210.692" height="72.3286" rx="36.1643" fill="url(#paint2_linear_82_1006)"/>
<mask id="mask0_82_1006" style="mask-type:alpha" maskUnits="userSpaceOnUse" x="6" y="4" width="212" height="73">
<rect x="6.65381" y="4" width="210.692" height="72.3286" rx="36.1643" fill="#74BE39"/>
</mask>
<g mask="url(#mask0_82_1006)">
<ellipse cx="110.845" cy="-7.26434" rx="145.864" ry="53.95" fill="#91D742"/>
</g>
<rect x="7.45189" y="4.79808" width="209.096" height="70.7324" rx="35.3662" stroke="url(#paint3_linear_82_1006)" stroke-width="1.59615"/>
<rect x="7.45189" y="4.79808" width="209.096" height="70.7324" rx="35.3662" stroke="url(#paint4_linear_82_1006)" stroke-width="1.59615"/>
</g>
<g filter="url(#filter1_d_82_1006)">
<path d="M65.0452 50.1425L65.2304 55.836C65.3693 59.5391 64.4435 60.4185 60.6015 60.4185C56.8059 60.4185 55.9727 59.5391 55.8338 55.7897L55.1858 30.5625C55.0469 27.0446 56.2041 25.7948 59.5369 25.193C61.7125 24.7764 63.9343 24.6376 66.295 24.6376C75.4139 24.6376 82.172 28.3869 82.172 35.5616C82.172 43.8473 76.3396 49.6333 65.0452 50.1425ZM66.0173 42.5512C71.0627 42.5512 73.9326 39.8202 73.9326 37.3669C73.9326 35.3765 72.1274 33.6638 68.1929 33.6638C66.9431 33.6638 65.647 33.849 64.5824 34.2193L64.8138 42.5049C65.2304 42.5512 65.647 42.5512 66.0173 42.5512ZM107.286 54.3548C107.425 58.243 106.592 59.215 102.843 59.4465L90.2985 60.3723C86.5954 60.6037 85.6234 59.7705 85.3919 56.0674L83.8644 29.359C83.6329 25.6559 84.4661 24.5913 88.2155 24.3598L90.6688 24.1747C94.4182 23.9432 95.2514 24.6838 95.2514 28.4332L94.9736 50.698L102.519 50.0962C106.222 49.8648 107.147 50.6054 107.286 54.3548ZM130.959 27.9703L140.355 54.9565C141.605 58.3356 140.818 59.3539 137.254 59.4928L135.726 59.5853C131.097 59.8168 130.82 58.9836 129.94 55.2805L128.922 51.2997L119.988 51.6237L119.479 54.4473C118.877 58.1967 118.646 58.8447 113.971 59.215L112.628 59.3076C109.064 59.4928 108.277 58.5207 109.203 55.0491L116.285 29.0812C117.257 25.3782 118.322 24.4987 124.802 23.9895C128.598 23.7581 129.709 24.3598 130.959 27.9703ZM121.238 45.1896H127.302L123.876 34.2656L121.238 45.1896ZM159.206 44.6805L159.299 55.512C159.299 59.2613 158.466 60.326 154.716 60.5574L152.587 60.6963C148.93 60.9277 147.912 60.1408 147.912 56.484L147.773 44.3564L137.682 31.1642C135.507 28.3406 135.877 27.1834 139.256 26.0262L143.144 24.6838C146.709 23.4341 147.958 23.9432 149.81 27.2297L155.133 36.7188L160.503 27.1834C162.215 24.0821 163.465 23.5729 166.937 24.9153C170.223 26.1651 170.593 27.3223 168.696 30.2385L159.206 44.6805Z" fill="white"/>
</g>
<defs>
<filter id="filter0_d_82_1006" x="0.269193" y="0.807692" width="223.462" height="95.7692" filterUnits="userSpaceOnUse" color-interpolation-filters="sRGB">
<feFlood flood-opacity="0" result="BackgroundImageFix"/>
<feColorMatrix in="SourceAlpha" type="matrix" values="0 0 0 0 0 0 0 0 0 0 0 0 0 0 0 0 0 0 127 0" result="hardAlpha"/>
<feOffset dy="3.19231"/>
<feGaussianBlur stdDeviation="3.19231"/>
<feColorMatrix type="matrix" values="0 0 0 0 0.128597 0 0 0 0 0.104621 0 0 0 0 0.104621 0 0 0 0.4 0"/>
<feBlend mode="normal" in2="BackgroundImageFix" result="effect1_dropShadow_82_1006"/>
<feBlend mode="normal" in="SourceGraphic" in2="effect1_dropShadow_82_1006" result="shape"/>
</filter>
<filter id="filter1_d_82_1006" x="55.0469" y="23.4341" width="115.546" height="39.0898" filterUnits="userSpaceOnUse" color-interpolation-filters="sRGB">
<feFlood flood-opacity="0" result="BackgroundImageFix"/>
<feColorMatrix in="SourceAlpha" type="matrix" values="0 0 0 0 0 0 0 0 0 0 0 0 0 0 0 0 0 0 127 0" result="hardAlpha"/>
<feOffset dy="1.59615"/>
<feComposite in2="hardAlpha" operator="out"/>
<feColorMatrix type="matrix" values="0 0 0 0 0 0 0 0 0 0 0 0 0 0 0 0 0 0 0.15 0"/>
<feBlend mode="normal" in2="BackgroundImageFix" result="effect1_dropShadow_82_1006"/>
<feBlend mode="normal" in="SourceGraphic" in2="effect1_dropShadow_82_1006" result="shape"/>
</filter>
<linearGradient id="paint0_linear_82_1006" x1="202.297" y1="76.9215" x2="24.0185" y2="77.4867" gradientUnits="userSpaceOnUse">
<stop stop-color="#6FA835"/>
<stop offset="0.514303" stop-color="#7CB435"/>
<stop offset="1" stop-color="#538D2B"/>
</linearGradient>
<linearGradient id="paint1_linear_82_1006" x1="112" y1="4" x2="112" y2="76.3286" gradientUnits="userSpaceOnUse">
<stop stop-color="#BBF341"/>
<stop offset="1" stop-color="#90DE0B"/>
</linearGradient>
<linearGradient id="paint2_linear_82_1006" x1="109.685" y1="34.2357" x2="112.113" y2="109.525" gradientUnits="userSpaceOnUse">
<stop stop-color="#74BE39"/>
<stop offset="1" stop-color="#74BE39" stop-opacity="0"/>
</linearGradient>
<linearGradient id="paint3_linear_82_1006" x1="132.259" y1="64.4714" x2="111.058" y2="-25.4207" gradientUnits="userSpaceOnUse">
<stop stop-color="#90D447"/>
<stop offset="1" stop-color="#EEFF2D"/>
</linearGradient>
<linearGradient id="paint4_linear_82_1006" x1="125.892" y1="62.6929" x2="127.713" y2="84.0285" gradientUnits="userSpaceOnUse">
<stop stop-color="#90D447" stop-opacity="0"/>
<stop offset="1" stop-color="#EBFF00"/>
</linearGradient>
</defs>
</svg>
