<svg width="226" height="131" viewBox="0 0 226 131" fill="none" xmlns="http://www.w3.org/2000/svg">
<g filter="url(#filter0_ii_202_4983)">
<path d="M222.264 110.786C223.873 107.936 224.839 104.567 224.839 101.068C224.839 90.2488 216.147 81.5025 205.394 81.5025C203.463 81.5025 201.595 81.7616 199.857 82.3447C200.114 80.5955 200.243 78.8462 200.243 77.0322C200.243 61.8071 191.551 48.5905 178.931 42.1766C180.67 38.4189 181.635 34.1429 181.635 29.7374C181.635 13.3462 168.436 0 152.082 0C140.17 0 129.933 7.06182 125.232 17.2982C121.176 13.2166 115.51 10.6251 109.265 10.6251C98.9627 10.6251 90.2704 17.6222 87.5662 27.1459C84.7975 26.6276 81.9001 26.3037 78.9383 26.3037C54.1494 26.3037 34.0607 46.5173 34.0607 71.4604C34.0607 74.7646 34.447 78.004 35.0908 81.1137C33.8675 80.8546 32.5798 80.725 31.292 80.725C20.3463 80.725 11.4609 89.6657 11.4609 100.68C11.4609 103.271 11.9759 105.733 12.813 108C12.3623 107.936 11.9116 107.936 11.4609 107.936C5.15094 107.936 0 113.054 0 119.468C0 125.817 5.08656 131 11.4609 131C17.7708 131 208.614 131 214.537 131C220.847 131 225.998 125.882 225.998 119.468C226.062 115.969 224.581 112.924 222.264 110.786Z" fill="#E7F7FF"/>
</g>
<defs>
<filter id="filter0_ii_202_4983" x="0" y="-3.50402" width="226" height="134.504" filterUnits="userSpaceOnUse" color-interpolation-filters="sRGB">
<feFlood flood-opacity="0" result="BackgroundImageFix"/>
<feBlend mode="normal" in="SourceGraphic" in2="BackgroundImageFix" result="shape"/>
<feColorMatrix in="SourceAlpha" type="matrix" values="0 0 0 0 0 0 0 0 0 0 0 0 0 0 0 0 0 0 127 0" result="hardAlpha"/>
<feOffset dy="-3.09662"/>
<feGaussianBlur stdDeviation="7.74156"/>
<feComposite in2="hardAlpha" operator="arithmetic" k2="-1" k3="1"/>
<feColorMatrix type="matrix" values="0 0 0 0 0.14902 0 0 0 0 0.647059 0 0 0 0 0.901961 0 0 0 1 0"/>
<feBlend mode="normal" in2="shape" result="effect1_innerShadow_202_4983"/>
<feColorMatrix in="SourceAlpha" type="matrix" values="0 0 0 0 0 0 0 0 0 0 0 0 0 0 0 0 0 0 127 0" result="hardAlpha"/>
<feOffset dy="-3.50402"/>
<feGaussianBlur stdDeviation="5.80617"/>
<feComposite in2="hardAlpha" operator="arithmetic" k2="-1" k3="1"/>
<feColorMatrix type="matrix" values="0 0 0 0 0.820833 0 0 0 0 0.9355 0 0 0 0 1 0 0 0 1 0"/>
<feBlend mode="normal" in2="effect1_innerShadow_202_4983" result="effect2_innerShadow_202_4983"/>
</filter>
</defs>
</svg>
